<?xml version="1.0" standalone="no"?><!DOCTYPE svg PUBLIC "-//W3C//DTD SVG 1.1//EN" "http://www.w3.org/Graphics/SVG/1.1/DTD/svg11.dtd"><svg xmlns="http://www.w3.org/2000/svg" width="1200" height="1200" viewBox="0 -100 1200 1200"><!--This file is Copyright © 2023 Benjie Gillam. All rights reserved.--><path fill="#a74413" d="M600 800l47.917 36.667-9.792 146.458-22.5 58.125L1100 615 770 412.5 600 800zM600 800l-47.917 36.667 9.792 146.458 22.5 58.125L100 615l330-202.5L600 800z" class="seg3" shape-rendering="geometricPrecision"/><g class="base"><path fill="#fa8e3b" d="M100 615L25 360 260 25l340 775z" class="seg2" shape-rendering="geometricPrecision"/><path fill="#d45c00" d="M25 360L260 25l340 105v670z" class="seg0" shape-rendering="geometricPrecision"/><path fill="#fd6e01" d="M260 25l340 105L940 25 600 800z" class="seg1" shape-rendering="geometricPrecision"/><path fill="#d45c00" d="M600 130L940 25l235 335-575 440z" class="seg0" shape-rendering="geometricPrecision"/><path fill="#fd6e01" d="M940 25l235 335-75 255-500 185z" class="seg1" shape-rendering="geometricPrecision"/><path fill="#fa8e3b" d="M1175 360l-75 255-500 185zM100 615L25 360l575 440z" class="seg2" shape-rendering="geometricPrecision"/></g><path fill="#7e120e" d="M120.833 433.333l287.5 220-225-7.5-62.5-212.5zM1079.167 433.333l-287.5 220 225-7.5 62.5-212.5z" class="seg4" shape-rendering="geometricPrecision"/><path fill="none" stroke="#7e120e" stroke-width="50" d="M486.667 541.667L260 25 90-27.5 21.458 70.208M713.333 541.667L940 25l170-52.5 68.542 97.708" class="path4"/></svg>