<?xml version="1.0" encoding="UTF-8" standalone="no"?><svg xmlns="http://www.w3.org/2000/svg" width="1200" height="1200" viewBox="0 -50 1200 1200"><!--This file is Copyright © 2023 Benjie Gillam. All rights reserved.--><path fill="#b7561b" d="M600 843.17l-500-185-75-255 235-335z" class="seg1" shape-rendering="geometricPrecision"/><path fill="#d45c00" d="M600 843.17l-575-440 235-335 340 105z" class="seg0" shape-rendering="geometricPrecision"/><path fill="#fd6e01" d="M600 843.17l-340-775 340 105 340-105z" class="seg0" shape-rendering="geometricPrecision"/><path fill="#d45c00" d="M600 843.17v-670l340-105 235 335z" class="seg1" shape-rendering="geometricPrecision"/><path fill="#fd6e01" d="M600 843.17l340-775 235 335-75 255z" class="seg1" shape-rendering="geometricPrecision"/><path fill="#fa8e3b" d="M25 403.17l575 440-500-185zM1175 403.17l-575 440 500-185z" class="seg1" shape-rendering="geometricPrecision"/><path fill="#7e120e" d="M445.13 587.57l67.855-30.257L273.55 55.696 91.554-16.166.3 99.534l32.846 22.618 69.408-89.818 130.424 65.005zM755.17 587.57l-67.855-30.257L926.751 55.696l181.995-71.862L1200 99.534l-32.846 22.618-69.408-89.818-130.423 65.005z" class="seg4" shape-rendering="geometricPrecision"/><path fill="#a74413" d="M1100.155 657.543l-484.848 427.373L649.4 994.65l7.576-119.924-56.821-32.183z" class="seg3" shape-rendering="geometricPrecision"/><path fill="#a74413" d="M100.155 657.543l484.848 427.373-34.093-90.266-7.576-119.924 56.821-32.183z" class="seg3" shape-rendering="geometricPrecision"/><path fill="#7e120e" fill-rule="evenodd" d="M123.14 478.837l64.751 214.141 218.367 1.31zM1075.075 478.837l-64.752 214.141-218.367 1.31z"/></svg>