<?xml version="1.0" encoding="UTF-8" standalone="no"?><!--Created with Inkscape (http://www.inkscape.org/)--><svg xmlns="http://www.w3.org/2000/svg" width="58" height="58" viewBox="0 0 58 58"><g fill="#1dcb11"><path d="M28.84 50.318a1 1 0 010-2c10.726 0 19.452-8.726 19.452-19.45 0-10.726-8.726-19.452-19.451-19.452a1 1 0 010-2c11.829 0 21.451 9.623 21.451 21.452 0 11.828-9.622 21.45-21.451 21.45"/><path d="M32.23 12.621a1 1 0 01-.6-.2L27.383 9.23a1 1 0 01.011-1.606l4.247-3.101a1 1 0 011.18 1.615l-3.157 2.305 3.168 2.38a1 1 0 01-.602 1.8M15.29 3.5a5.589 5.589 0 00-5.582 5.583 5.589 5.589 0 005.583 5.583 5.589 5.589 0 005.581-5.583A5.589 5.589 0 0015.291 3.5zm0 13.165c-4.18 0-7.582-3.402-7.582-7.582 0-4.181 3.402-7.583 7.583-7.583 4.18 0 7.581 3.402 7.581 7.583 0 4.18-3.4 7.582-7.581 7.582M15.29 23.418A5.589 5.589 0 009.709 29a5.589 5.589 0 005.583 5.583A5.589 5.589 0 0020.872 29a5.588 5.588 0 00-5.581-5.582zm0 13.165c-4.18 0-7.582-3.402-7.582-7.583 0-4.18 3.402-7.582 7.583-7.582 4.18 0 7.581 3.401 7.581 7.582 0 4.18-3.4 7.583-7.581 7.583M15.29 43.336a5.589 5.589 0 00-5.582 5.581A5.589 5.589 0 0015.29 54.5a5.589 5.589 0 005.581-5.583 5.588 5.588 0 00-5.581-5.581zm0 13.164c-4.18 0-7.582-3.4-7.582-7.583 0-4.18 3.402-7.581 7.583-7.581 4.18 0 7.581 3.4 7.581 7.581 0 4.182-3.4 7.583-7.581 7.583"/><path d="M15.29 47.362a1.557 1.557 0 000 3.112 1.557 1.557 0 000-3.112zm0 5.112a3.56 3.56 0 01-3.555-3.557 3.56 3.56 0 013.556-3.555 3.56 3.56 0 013.555 3.555 3.56 3.56 0 01-3.555 3.557"/></g></svg>