<?xml version="1.0" encoding="UTF-8" standalone="no"?><!--Created with Inkscape (http://www.inkscape.org/)--><svg xmlns="http://www.w3.org/2000/svg" width="650" height="575" viewBox="0 0 650 575"><g fill="#0c5207" class="darkest"><path d="M499.953 152.564a6.814 6.814 0 00-6.807 6.806 6.815 6.815 0 006.807 6.808 6.814 6.814 0 006.806-6.808 6.814 6.814 0 00-6.806-6.806zm0 16.052c-5.097 0-9.246-4.147-9.246-9.246 0-5.097 4.149-9.244 9.246-9.244 5.098 0 9.245 4.147 9.245 9.244 0 5.1-4.147 9.246-9.245 9.246" class="darkest"/><path d="M499.953 157.474c-1.046 0-1.896.85-1.896 1.896 0 1.048.85 1.898 1.896 1.898 1.046 0 1.897-.85 1.897-1.898 0-1.046-.85-1.896-1.897-1.896zm0 6.233a4.34 4.34 0 01-4.335-4.337 4.34 4.34 0 014.335-4.335 4.34 4.34 0 014.335 4.335 4.34 4.34 0 01-4.335 4.337" class="darkest"/></g><g fill="#0c5207" class="darkest"><path d="M107.206 313.128a6.814 6.814 0 00-6.807 6.806 6.815 6.815 0 006.807 6.808 6.814 6.814 0 006.806-6.808 6.814 6.814 0 00-6.806-6.806zm0 16.052c-5.098 0-9.246-4.147-9.246-9.246 0-5.098 4.148-9.244 9.246-9.244 5.098 0 9.245 4.146 9.245 9.244 0 5.1-4.147 9.246-9.245 9.246" class="darkest"/><path d="M107.206 318.038c-1.046 0-1.896.85-1.896 1.896 0 1.047.85 1.898 1.896 1.898 1.046 0 1.897-.85 1.897-1.898 0-1.046-.851-1.896-1.897-1.896zm0 6.233a4.34 4.34 0 01-4.335-4.337 4.34 4.34 0 014.335-4.335 4.34 4.34 0 014.335 4.335 4.34 4.34 0 01-4.335 4.337" class="darkest"/></g><g fill="#0c5207" stroke-width=".06" class="darkest"><g class="darkest"><path d="M238.278 400.525c9.45 2.088 16.072 4.676 23.867 9.015 10.177 5.663 20.425 11.207 30.676 16.73 10.668 5.745 21.437 11.28 32.45 16.338 8.544 3.924 20.787 7.857 27.625 13.416 2.439.056 2.947-3.057 1.165-4.297-8.308-5.776-19.352-8.399-28.544-12.62-11.014-5.058-21.765-10.703-32.477-16.366-16.234-8.579-35.261-21.948-53.79-24.523-1.414-.193-2.18 1.436-.972 2.307z" class="darkest"/></g><g class="darkest"><path d="M351.262 456.856c13.716 12.888 32.452 12.74 49.755 18.819 19.102 6.709 38.086 20.831 55.45 31.017 16.461 9.656 68.785 32.499 89.535 37.644 13.365 5.584 31.916 8.259 48.406 11.67 2.037.421 9.666-.323 7.564-.993-6.906-2.203-60.02-14.346-67.149-15.91-9.962-2.184-20.495-7.743-29.828-11.79-17.245-7.47-33.601-16.97-49.8-26.455-14.872-8.71-29.359-17.801-45.479-24.064-19.054-7.4-38.165-13.08-56.347-22.671-1.7-.898-3.591 1.336-2.107 2.733z" class="darkest"/></g><g class="darkest"><path d="M182.683 517.022c8.886.162 10.186-17.341 17.03-23.292 7.852-16.37 16.667-25.007 36.356-26.299 15.822-1.038 30.983 7.883 43.433 16.615 12.332 8.65 25.52 23.936 35.378 33.808 1.09.547 2.176-.547 1.637-1.638-6.323-12.686-20.683-22.754-31.692-31.18-12.792-9.788-27.274-17.329-43.398-19.238-14.053-1.664-29.652 4.217-38.433 15.332-8.557 10.83-11.259 24.357-20.801 34.705-.412.447-.131 1.178.49 1.187z" class="darkest"/></g><g class="darkest"><path d="M195.348 518.064c3.618-18.285 14.563-30.577 34.208-30.191 18.016.355 33.124 10.252 44.11 23.824.841.543 2.129-.364 1.757-1.349-12.293-32.586-84.664-36.488-82.137 7.156.057.99 1.59 1.65 2.062.56z" class="darkest"/></g><g class="darkest"><path d="M201.69 517.775c4.09-20.328 32.305-11.381 43.621-4.108.88.565 2.255-.38 1.852-1.423-9.3-12.298-43.791-16.789-46.818 5.531.136.67 1.213.666 1.344 0z" class="darkest"/></g><g class="darkest"><path d="M-1172.757 645.728c29.1 10.37 59.413 16.212 87.585 29.319 11.443 5.325 22.487 11.35 34.762 14.556 5.737 1.498 11.527 2.698 17.202 4.432 5.137 1.568 9.67 4.87 14.946 5.78 1.257.22 2.48-.757 2.116-2.114-2.29-8.518-13.142-10.98-20.644-12.976-14.478-3.858-27.541-8.207-41.292-14.386-29.604-13.308-62.557-19.912-94.342-25.829-.797-.149-1.1.942-.333 1.218z" class="darkest"/></g><g class="darkest"><path d="M-1023.933 696.168c9.604 23.223 35.275 37.99 56.212 49.55 12.687 7.008 25.728 13.358 38.49 20.229 11.14 6 21.769 15.279 33.483 19.79 1.314.503 2.632-1.266 1.844-2.396-6.18-8.837-17.876-14.254-26.998-19.536-11.61-6.722-23.64-12.704-35.472-19.014-11.728-6.254-23.254-12.91-34.145-20.54-11.951-8.372-21.2-18.896-31.119-29.414-.893-.946-2.833.026-2.295 1.33z" class="darkest"/></g><g class="darkest"><path d="M-1049.718 595.962c3.552 12.393 10.484 21.248 19.83 29.99 4.782 4.47 9.919 8.565 14.95 12.743 4.577 3.797 8.457 8.758 14.005 11 1.585.644 3.574-1.318 2.917-2.916-3.526-8.527-15.034-14.347-22.308-19.483-11.662-8.233-23.184-17.789-28.093-31.697-.285-.806-1.541-.482-1.3.363z" class="darkest"/></g><g class="darkest"><path d="M-1001.66 646.14c1.126 11.083 3.31 22.045 4.612 33.11 1.007 8.562-.25 19.173 4.256 26.71.793 1.322 2.461.854 2.982-.39 3.63-8.697.176-20.99-1.046-30.103-1.388-10.357-3.298-20.644-7.765-30.15-.674-1.433-3.2-.772-3.039.822z" class="darkest"/></g><g class="darkest"><path d="M-992.275 702.597c.99 8.714 5.334 16.452 10.68 23.253 2.466 3.136 6.898-1.296 4.398-4.396-4.9-6.074-8.25-13.029-12.407-19.58-.696-1.104-2.842-.788-2.671.723z" class="darkest"/></g><g class="darkest"><path d="M-989.783 707.138c.867 2.881 2.089 5.583 2.745 8.535.644 2.886.162 5.763.552 8.64.21 1.572 2.632 1.717 3.298.43 2.724-5.269-1.45-14.58-5.43-18.284-.495-.455-1.371-.009-1.165.679z" class="darkest"/></g><g class="darkest"><path d="M-982.422 723.394c9.499 12.34 23.547 20.092 37.276 26.914 7.703 3.828 15.66 7.165 23.6 10.476 7.672 3.2 16.063 8.176 24.41 8.61 1.362.07 2.076-1.761 1.108-2.672-4.809-4.537-11.202-6.18-17.28-8.632-8.702-3.512-17.434-6.932-26.03-10.694-15.24-6.67-28.475-15.708-42.309-24.773-.455-.298-1.125.315-.775.77z" class="darkest"/></g><g class="darkest"><path d="M-897.797 767.164c-1.958 1.861-5.496 4.598-5.654 7.471-.03.565.578.985 1.1.836 2.697-.761 4.663-4.904 6.02-7.177.557-.924-.704-1.853-1.466-1.13z" class="darkest"/></g><g class="darkest"><path d="M18.274 458.677c.14 0 .14-.219 0-.219s-.14.22 0 .22z" class="darkest"/></g><g class="darkest"><path d="M17.655 457.808c17.298-5.771 37.049-3.748 54.947-7.965 8.14-1.918 15.218-5.4 22.211-9.823 7.55-4.778 15.822 1.209 22.847-2.794 7.663-4.366 14.464-10.002 22.316-14.066 10.716-5.549 25.317-1.76 36.97-3.061 9.056-1.012 18.725-5.943 27.02-9.503 10.444-4.484 21.454-8.522 31.408-13.992 2.39-1.314 1.586-.712-.889-.208-22.08 4.515-41.015 20.871-64.02 21.927-8.61.394-17.03-.644-25.618.621-8.864 1.31-17.057 8.65-24.17 13.52-7.313 5.005-14.1 1.457-21.935 3.2-3.24.723-6.24 2.816-8.977 4.546-5.566 3.521-11.67 5.693-17.955 7.554-10.847 3.21-22.741 4.401-34 5.124-7.126.455-14.982.67-20.846 5.185-1.681 1.3-1.704.532.691-.265z" class="darkest"/></g><g class="darkest"><path d="M428.499 485.067c3.932 14.35 6.897 37.416 20.587 46.24 9.012 5.811 20.201 8.294 30.44 11.119 5.373 1.484 10.926 2.391 16.479 1.708 7.322-.898 12.783-4.59 20.53-2.904 1.243.272 2.067-1.445.889-2.106-8.128-4.563-15.735.328-24.41.377-11.566.065-24.209-4.603-35.253-7.77-21.016-6.03-16.618-29.824-27.496-44.358-.311-.42-1.474-.642-1.766-2.306z" class="darkest"/></g><g class="darkest"><path d="M441.067 498.248c2.799 10.607 4.704 22.65 14.964 28.487 5.242 2.978 12.24 3.985 18.095 4.914 8.198 1.296 15.687-2.558 23.806-1.454 1.949.267 2.846-2.663.832-3.018-3.574-.635-6.32-.407-9.875.285-8.798 1.708-14.614 1.993-23.486-.004-17.035-3.832-15.919-17.495-23.342-29.626-.32-.525-1.151-.184-.994.416z" class="darkest"/></g><g class="darkest"><path d="M444.886 499.96c3.385 8.43 5.478 16.217 14.412 20.15 6.324 2.785 16.466 2.198 20.872-3.57.306-.403-.11-1.042-.583-1.016-8.115.508-14.136 4.069-22.168-.276-6.104-3.302-6.928-11.25-11.99-15.607-.219-.189-.674-.009-.543.32z" class="darkest"/></g><g class="darkest"><path d="M353.881 458.804c7.418 12.516 10.846 24.394 13.913 39.68 6.963 10.266 17.451 18.691 28.404 24.459.66.346 1.392-.517.819-1.06-11.382-10.76-24.778-16.168-28.019-32.954-2.115-10.948-4.778-24.016-14.342-30.895-.477-.346-1.05.306-.775.77z" class="darkest"/></g><g class="darkest"><path d="M372.878 465.671c1.02 6.372.762 12.293.56 18.704-.126 4.05.517 7.843 4.052 10.199.127.088.346-.026.328-.188-.591-5.54-.77-10.953-.617-16.519.122-4.502-.193-9.336-3.591-12.62-.342-.32-.797.012-.732.424z" class="darkest"/></g><g class="darkest"><path d="M378.343 497.355c.6 2.089 1.38 3.985 2.602 5.79.92 1.357 2.605 2.46 3.779 3.651 1.274 1.292 2.741 2.321 4.182 3.407 1.524 1.148 3.061 3.048 4.984 3.35.525.084 1.033-.31.88-.884-.736-2.811-5.093-4.445-7.436-5.763-1.66-.933-4.116-1.664-4.817-3.64-.77-2.163-2.23-3.958-2.873-6.27-.236-.832-1.541-.478-1.3.359z" class="darkest"/></g><g class="darkest"><path d="M28.604 458.778c.171-.149.342-.289.5-.451.113-.118 0-.355-.171-.289-.232.088-.451.193-.675.298-.346.162.014.727.346.442z" class="darkest"/></g><g class="darkest"><path d="M30.733 457.64c5.312 5.784 8.246 11 15.393 14.858 7.028 3.788 16.01 3.526 23.722 3.547 9.415.027 18.791 1.082 28.207.75 10.335-.369 19.886-4.533 29.297-8.4 13.234-5.44 72.231-27.948 36.794-46.219-1.349-.696-2.448 1.196-1.187 2.028 9.626 6.328 12.157 13.015 3.78 21.287-4.52 4.463-10.66 7.489-16.335 10.178-13.558 6.424-27.883 12.42-42.352 16.466-13.238 3.705-28.057.74-41.497-.228-9.183-.661-18.323-2.724-25.627-8.636-3.408-2.759-5.251-5.526-9.574-6.726-.634-.176-1.05.626-.621 1.094z" class="darkest"/></g><g class="darkest"><path d="M45.329 456.076c7.309 7.79 10.054 14.522 21.93 15.043 12.407.543 25.046-.692 37.15-3.381 9.293-2.067 18.612-7.637 21.813-16.948 2.452-7.133-4.077-13.641-9.985-15.892-.679-.258-.932.705-.45 1.073 7.645 5.824 12.09 12.35 4.225 21.182-3.359 3.77-8.526 5.803-13.142 7.366-7.694 2.602-16.348 2.256-24.384 2.273-6.831.018-13.693-1.095-20.332-2.671-6.679-1.586-9.473-7.914-15.858-9.713-.985-.28-1.642.954-.967 1.668z" class="darkest"/></g><g class="darkest"><path d="M64.943 454.683c-1.699 15.27 21.848 6.254 28.163 3.088 2.505-1.257 9.157-5.387 5.04-8.72-3.385-2.736-11.149-2.066-15.217-2.044-1.511.008-1.726 2.106-.346 2.562 2.514.832 5.413.6 8.027.77.394.027 6.595.276 5.062 2.216-1.419 1.8-4.37 2.623-6.42 3.267-3.078.972-6.218 1.498-9.397 1.997-5.742.907-9.009.464-12.906-3.968-.749-.854-1.9-.087-2.006.832z" class="darkest"/></g><g class="darkest"><path d="M-737.364 397.009c-24.808-4.695-30.957-29.385-28.312-51.509-1.3.75-2.601 1.494-3.902 2.242 15.17 8.028 21.87 24.612 18.88 41.213 1.948.263 3.901.53 5.85.793-1.292-23.346-5.51-52.546 17.473-67.06l-4.524-1.838c5.75 24.874-1.401 46.625-12.704 68.666-1.699 3.315 2.991 6.078 4.992 2.921 13.878-21.857 19.563-47.865 13.655-73.22-.442-1.901-2.882-2.882-4.524-1.84-25.154 15.945-21.992 46.429-20.324 72.38.206 3.166 5.255 4.283 5.85.793 3.272-19.111-4.146-38.393-22.005-47.274-1.865-.929-3.705.236-3.902 2.242-2.255 22.833 5.557 53.041 33.252 53.343 1.033-.004 1.3-1.65.245-1.852z" class="darkest"/></g><g class="darkest"><path d="M-717.128 384.016c.793-17.263 22.295-62.737 43.368-39.93v-3.78c-12.73 13.077-25.527 26.026-39.974 37.228-1.668 1.297-.66 4.261 1.24 4.686 5.907 1.323 11.714-3.183 17.613-4.392 11.74-2.404 23.683 1.55 31.377 10.61.443-1.68.89-3.363 1.332-5.044-13.48 4.865-26.867 5.202-40.907 3-3.6-.565-5.242 4.751-1.537 5.574 14.666 3.263 29.923 2.335 44.05-2.754 2.23-.802 2.856-3.25 1.332-5.045-6.197-7.309-14.841-12.004-24.537-12.595-5.373-.328-10.361.127-15.616 1.235-2.912.613-9 4.541-11.614 4.007.412 1.564.823 3.123 1.24 4.686 14.39-11.272 27.12-24.283 39.785-37.416 1.038-1.073 1.007-2.698 0-3.78-24.721-26.494-52.205 21.082-50.278 43.71.166 1.997 3.035 2.04 3.126 0z" class="darkest"/></g><g class="darkest"><path d="M-702.5 314.587c10.452-13.448 10.987-31.469-3.61-41.813-1.2-.85-3.179-.008-3.463 1.41-2.383 11.85-4.415 30.953 4.598 40.662 1.064 1.147 3.516.341 3.302-1.367-.653-5.215-2.947-10.076-3.95-15.283-1.445-7.476-.784-15.35.6-22.755-1.156.469-2.308.942-3.464 1.41 13.632 9.39 9.42 23.188 3.53 35.84-.693 1.489 1.291 3.398 2.456 1.896z" class="darkest"/></g><g class="darkest"><path d="M-836.26 410.344c.184-20.885-12.39-45.93-34.802-49.56-1.647-.267-3.188.674-3.232 2.465-.206 8.356 4.23 14.798 9.7 20.74 6.446 7.003 15.139 14.982 23.276 19.943 1.983 1.214 4.475-1.213 3.21-3.214-8.417-13.304-31.373-18.809-31.075-37.473-1.078.823-2.155 1.642-3.232 2.465 20.144 3.083 32.043 25.882 32.77 44.634.078 2.176 3.363 2.194 3.385 0z" class="darkest"/></g><g class="darkest"><path d="M-847.655 405.211c-13.177-19.172-38.875-15.445-53.493-.03-1.182 1.243-1.182 3.766.587 4.567 15.144 6.84 44.191 16.602 55.21-2.338 1.099-1.888-1.003-3.486-2.738-2.737-8.189 3.534-13.645 7.589-23.105 7.54-9.069-.048-18.278-3.875-26.433-7.484.197 1.524.395 3.044.587 4.568 12.923-13.83 33.239-16.247 46.959-2.211 1.208 1.226 3.437-.408 2.426-1.875z" class="darkest"/></g><g class="darkest"><path d="M-843.355 458.97c-5.338 22.072-2.868 45.624-15.572 65.676 1.598.434 3.197.867 4.8 1.3 2.189-19.955-.434-40.48 5.206-59.964.924-3.188-3.551-4.944-5.242-2.212-6.41 10.357-12.218 21.06-19.194 31.058a78.566 78.566 0 01-12.323 13.851c-4.949 4.388-10.926 4.932-16.238 8.146-1.476.893-1.09 2.965.455 3.495 10.16 3.49 21.59-8.387 27.476-15.161 10.015-11.527 16.825-25.562 24.777-38.49-1.747-.735-3.494-1.475-5.242-2.211-5.737 20.03-2.816 40.99-4.821 61.493-.263 2.685 3.547 3.324 4.8 1.3 11.311-18.34 15.187-46.76 13.001-68.022-.105-1.016-1.611-1.38-1.883-.258z" class="darkest"/></g><g class="darkest"><path d="M-893.628 451.622c-15.293 15.971-27.918 38.02-49.753 45.72.867 1.13 1.739 2.26 2.606 3.39 4.4-8.641 10.164-15.784 17.245-22.366 3.963-3.683 8.343-6.884 12.766-9.98 2.018-1.414 11.114-8.907 13.58-7.93-.215-1.625-.425-3.25-.64-4.88-6.315 4.805-19.404 6.21-27.028 8.225-11.172 2.952-22.567 4.082-32.893-1.997v4.725c14.693-8.618 31.934-8.36 48.448-8.872 3.043-.096 3.875-4.725.735-5.439-12.42-2.825-24.23-6.845-32.953-16.575l-.565 4.37c14.937-10.01 26.77.893 35.283 13.12 1.809 2.597 5.64.381 4.244-2.478-8.006-16.405-25.868-26.504-42.339-15.446-1.537 1.033-1.808 2.982-.565 4.37 9.346 10.41 22.076 14.96 35.415 17.982l.736-5.44c-17.53.557-35.66.517-51.21 9.687-1.77 1.043-1.779 3.683 0 4.726 9.642 5.649 19.517 5.767 30.334 3.985 6.819-1.121 13.493-3.36 20.096-5.338 4.857-1.459 10.883-1.892 14.942-4.997 1.901-1.454 1.63-3.985-.639-4.879-6.455-2.54-18.879 9.114-23.705 12.884-10.55 8.242-19.93 17.762-25.29 30.208-.683 1.58.477 4.265 2.606 3.39 22.728-9.346 34.705-30.743 50.15-48.544.99-1.104-.568-2.707-1.606-1.62z" class="darkest"/></g><g class="darkest"><path d="M-926.433 400.057c14.745-16.904 28.763-53.151-1.743-61.244-1.84-.486-3.201 1.16-2.886 2.886 1.957 10.576-3.95 20.613-6.573 30.585-2.304 8.75-.942 17.066 2.636 25.207 1.051-1.367 2.098-2.733 3.149-4.095-26.193-5.185-50.616 2.89-59.352 29.853-.74 2.29 1.533 3.915 3.569 3.57 20.368-3.469 50.48-8.199 56.164-32.324.678-2.886-3.6-4.979-4.966-2.093-10.173 21.45-31.242 25.12-52.74 28.824 1.192 1.187 2.378 2.378 3.57 3.57 7.685-23.88 29.358-30.393 52.274-26.018 2.532.482 4.17-1.817 3.15-4.094-8.702-19.444 7.558-35.078 3.643-54.224-.964.959-1.923 1.922-2.886 2.881 28.443 6.946 10.23 39.3 1.112 55.275-.661 1.147.963 2.487 1.879 1.44z" class="darkest"/></g><g class="darkest"><path d="M-937.092 389.582c-23.127-9.31-25.728-29.792-16.282-50.834l-4.59.59c11.92 11.558 12.258 23.189 13.506 38.639.127 1.585 2.513 2.662 3.32.902 6.971-15.2-1.498-32.976-12.696-43.674-1.24-1.183-3.806-1.191-4.59.59-10.352 23.53-7.79 49.71 20.522 56.716 1.953.487 2.588-2.215.81-2.93z" class="darkest"/></g><g class="darkest"><path d="M-962.36 378.585c-4.892-2.969-10.147-5.693-16.06-4.48-7.155 1.468-12.068 6.149-16.347 11.829-1.34 1.778.893 4.677 2.956 3.845 3.84-1.546 6.832-1.765 10.72-.302 2.913 1.094 5.396 1.983 8.483 1.502 1.555-.246 1.34-2.216.385-2.939-6.148-4.668-13.834-6.275-20.98-3.306.985 1.283 1.97 2.566 2.955 3.845 6.534-8.886 16.26-13.169 26.679-7.927 1.375.688 2.54-1.26 1.208-2.067z" class="darkest"/></g><g class="darkest"><path d="M-829.875 423.236c-8.194-19.08 1.94-38.204 14.315-52.717l-3.73-.985c5.666 17.858 1.37 34.91-9.145 50.002-1.664 2.39 2.05 5.176 3.994 3.083 5.702-6.127 13.304-8.846 20.35-13.024-1.283-.985-2.566-1.97-3.849-2.96-2.023 7.939-6.337 14.123-9.735 21.383-.924 1.97 1.323 3.788 3.004 2.317 6.503-5.68 9.744-14.084 11.785-22.308.543-2.19-1.826-4.173-3.85-2.96-7.444 4.475-15.318 7.44-21.305 13.952 1.332 1.03 2.663 2.054 3.994 3.083 11.005-16.177 15.28-34.89 9.061-53.755-.482-1.459-2.588-2.356-3.731-.986-13.304 15.967-24.222 37.005-13.147 57.04.736 1.336 2.558.162 1.989-1.165z" class="darkest"/></g><g class="darkest"><path d="M-1168.92 638.65c10.024-32.392-3.307-61.392-34.22-74.867-1.34-.586-3.022.364-2.58 1.984 6.67 24.261 10.844 50.151 24.073 71.938l3.63-3.63c-22.924-10.493-47.847-2.335-56.356 22.255-.551 1.594.95 3.836 2.737 3.595 17.119-2.286 35.704-1.633 45.908-18.02 1.984-3.184-2.864-5.882-4.957-2.895-9.889 14.114-26.289 13.23-41.704 15.336l3.495 3.495c7.2-21.03 28.592-27.835 48.198-19.181 2.246.99 5.18-1.16 3.63-3.63-13.536-21.617-16.22-46.828-25.272-70.191l-2.16 2.159c31.273 12.503 40.311 39.93 33.769 71.162-.241 1.17 1.45 1.647 1.809.49z" class="darkest"/></g><g class="darkest"><path d="M-1196.996 674.767c.14 17.573-3.017 38.12-25.08 37.64l1.796 4.33c10.47-10.834 12.227-25.79 17.026-39.47 1.095-3.122-3.306-4.454-4.992-2.102-8.268 11.517-17.968 23.652-33.168 24.835.814 1.423 1.633 2.846 2.448 4.265 2.947-5.356 6.13-10.366 10.203-14.955 4.45-5.01 10.423-7.221 15.674-11.066 1.305-.955.893-2.996-.833-3.079-14.03-.666-24.13 15.56-29.94 26.236-.955 1.752.205 4.454 2.448 4.265 17.438-1.436 28.35-14.337 37.884-27.75l-4.992-2.103c-4.405 12.735-5.934 27.02-15.35 37.338-1.457 1.598-.498 4.34 1.796 4.33 23.534-.091 31.759-22.583 27.94-43.1-.307-1.646-2.873-1.226-2.86.386z" class="darkest"/></g><g class="darkest"><path d="M-1173.851 663.967c7.295 10.125 11.394 20.622 9.038 33.182 1.288-.342 2.58-.679 3.867-1.02-8.123-7.77-14.167-15.814-17.232-26.793-1.511.635-3.017 1.275-4.528 1.91 5.255 11.123 7.536 22.202 1.93 33.698-.748 1.537-.196 3.66 1.66 4.081.128.031.255.057.377.088.495-1.791.986-3.582 1.48-5.37-4.747-1.076-3.253-2.062-4.423-7.255-1.738-7.717-.889-15.363.084-23.088.227-1.822-2.321-2.102-3.162-.854-6.63 9.84-3.613 23.267-.171 33.742.298.902.998 1.787 1.984 1.984 1.401.28 2.803.56 4.208.845 3.508.705 5.001-4.664 1.48-5.369l-.38-.079c.551 1.362 1.107 2.724 1.66 4.086 6.121-13.409 3.796-26.1-2.453-39.006-1.24-2.561-5.295-.744-4.528 1.91 3.394 11.727 9.919 20.477 18.734 28.745 1.147 1.073 3.587.797 3.867-1.02 2.155-13.821-3.464-25.054-12.345-35.31-.534-.635-1.642.21-1.147.893z" class="darkest"/></g><g class="darkest"><path d="M-929.66 816.632c9.37 10.747 25.263 34.933 5.684 43.95 1.116.293 2.229.582 3.345.876-6.993-13.532-14.118-26.889-23.275-39.102-1.472-1.962-5.457-1.669-5.19 1.405 1.638 18.962-1.033 47.06-17.867 59.16 1.467.84 2.938 1.686 4.405 2.526-1.489-17.867 3.425-34.346 8.987-51.105 1.19-3.591-4.375-5.054-5.619-1.55-5.658 15.914-15.34 29.818-30.887 37.262 1.397 1.073 2.794 2.15 4.196 3.223 4.226-17.271 14.95-29.152 27.405-41.13 1.594-1.532-.42-3.77-2.238-2.903-15.853 7.559-26.586 26.004-30.668 42.514-.635 2.566 1.962 4.283 4.196 3.223 16.895-8.04 27.47-23.385 33.623-40.644l-5.618-1.55c-5.741 17.272-10.742 34.272-9.218 52.656.166 1.988 2.439 3.941 4.405 2.527 18.721-13.445 22.645-42.882 20.482-64.217l-4.756 1.97c9.188 11.886 16.352 24.993 23.429 38.196.665 1.244 2.18 1.436 3.346.876 21.843-10.458 6.844-38.63-6.061-50.265-1.441-1.274-3.36.666-2.107 2.102z" class="darkest"/></g><g class="darkest"><path d="M-958.787 801.077c-5.483 17.837-19.838 27.357-38.45 25.216l2.181 3.8c3.45-7.015 6.359-14.284 10.462-20.967 2.255-3.674 5.093-6.801 8.868-8.92 4.51-2.532 9.687-.544 14.333.306 1.616.298 3.456-1.857 1.818-3.127-20.68-16.054-33.396 16.383-39.847 30.151-.832 1.774.166 3.683 2.18 3.801 19.567 1.157 37.435-9.384 41.047-29.55.311-1.682-2.075-2.392-2.592-.71z" class="darkest"/></g><g class="darkest"><path d="M-965.444 792.402c-13.111-2.072-29.121-8.413-30.133-23.626-1.17.889-2.339 1.778-3.503 2.671 8.46 1.156 15.988 4.3 22.737 9.56 6.166 4.808 9.231 11.714 14.434 17.232 1.12 1.191 3.665.364 3.45-1.432-2.045-17.267-24.379-29.35-39.886-30.803-1.41-.132-2.894 1.362-2.767 2.767 1.664 18.568 18.795 25.413 35.318 26.232 1.476.074 1.835-2.37.35-2.601z" class="darkest"/></g><g class="darkest"><path d="M-916.15 801.725c6.27 3.893 12.476 6.376 15.712 13.55l3.245-3.246c-3.433-2.229-6.762-4.593-10.09-6.971-2.32-1.66-5.886-5.26-8.955-4.196-.876.302-1.235 1.038-1.095 1.927.477 3.017 5.237 4.984 7.532 6.578 3.35 2.325 6.648 4.769 10.212 6.757 2.116 1.182 4.362-1.152 3.246-3.245-2.02-3.78-4.787-6.718-8.387-9.017-3.083-1.97-6.713-2.965-9.95-4.65-1.663-.872-3.07 1.519-1.47 2.513z" class="darkest"/></g><g class="darkest"><path d="M-906.188 829.752c9.13 4.248 15.88 11.325 17.534 21.472l3.057-3.057c-4.843-1.235-6.564-3.342-7.62-8.036-.731-3.25-1.073-7.637-4.217-9.468-.871-.508-2.128-.057-2.365.963-.49 2.133.25 4.117.771 6.206.574 2.32.858 4.686 1.633 6.954 1.647 4.817 5.75 7.081 10.48 8.176 1.874.434 3.503-1.174 3.057-3.057-2.514-10.624-11.18-18.38-20.88-22.627-1.669-.736-3.14 1.686-1.45 2.474z" class="darkest"/></g><g class="darkest"><path d="M-644.047 810.251c9.91.859 20.43 1.043 29.639 5.203.201-1.533.398-3.066.6-4.598-11.176 3.363-21.454 4.322-32.656.53-2.921-.99-4.695 3.437-2.072 4.913 13.37 7.524 17.776 23.149 10.09 36.47h5.168c-5.829-9.446-10.716-19.132-13.011-30.063-.71-3.385-6.052-2.584-5.969.81.386 15.581-.85 30.883-3.95 46.17 1.686-.446 3.376-.889 5.062-1.335-11.565-14.044-6.48-34.39 3.955-47.432 1.117-1.397-.368-3.932-2.08-2.697-16.908 12.209-19.23 38.528-6.157 54.412 1.418 1.725 4.633.788 5.062-1.336 3.21-15.805 4.576-31.658 4.182-47.782-1.988.267-3.98.539-5.969.806 2.396 11.438 7.445 21.664 13.703 31.47 1.174 1.843 4.033 2.031 5.167 0 8.917-16.007 3.543-35.232-12.542-44.13-.692 1.637-1.38 3.275-2.071 4.913 11.938 3.941 23.582 2.978 35.424-.858 2.5-.81 2.281-3.964 0-4.853-9.64-3.761-21.34-4.961-31.58-3.779-2.014.228-2.062 2.987.005 3.166z" class="darkest"/></g><g class="darkest"><path d="M-637.885 876.85c6.608 11.768 14.46 24.91 10.15 38.814 1.59-.21 3.18-.416 4.774-.622-4.856-11.49-15.402-21.388-16.628-34.079-.157-1.625-2.08-2.737-3.376-1.397-3.617 3.74-1.112 8.815.828 12.836 4.243 8.797 10.76 16.255 14.67 25.272.955 2.203 4.187 1.331 4.769-.622 4.458-14.876-4.003-30.02-12.48-41.782-1.161-1.607-3.714-.215-2.707 1.58z" class="darkest"/></g><g class="darkest"><path d="M-1170.834 721.817c-.815-.455-1.861-1.235-2.75-1.638-1.003-.455-2.3.526-1.616 1.616 3.17 5.08 11.162 8.522 15.493 12.634 11.531 10.948 20.675 21.686 16.698 38.581 1.459-.595 2.921-1.186 4.38-1.782-17.136-11.876-29.687-23.543-36.497-43.77-1.327-3.942-7.611-2.234-6.249 1.72 7.497 21.783 21.077 34.53 39.733 47.196 1.554 1.055 3.972.022 4.379-1.783 3.188-14.145-.613-25.229-10.383-35.721-4.336-4.65-9.363-9.17-14.46-12.967-1.783-1.327-3.88-2.343-5.847-3.359a19.59 19.59 0 00-2.097-1.003c-.495-.18-.986-.363-1.48-.543-2.505-1.34-2.44-.674.192 2.006.71.232 1.143-.828.504-1.187z" class="darkest"/></g><g class="darkest"><path d="M-1180.074 735.24c5.369 15.65 14.78 35.633 2.61 50.383 1.554.411 3.113.823 4.668 1.23-2.207-7.449-6.175-14.171-9.564-21.12-5.794-11.877-4.03-19.607.254-31.492.556-1.542-1.485-3.162-2.842-2.185-20.303 14.626.775 40.11 6.765 56.282.89 2.4 3.618 2.64 5.107.665 12.861-17.061 3.034-37.644-4.612-54.77-.604-1.35-2.864-.382-2.386 1.006z" class="darkest"/></g><g class="darkest"><path d="M-1062.006 580.197c-26.67.201-40.871-24.83-37.994-49.113-1.506.867-3.017 1.73-4.524 2.597 17.154 10.002 34.347 22.18 38.634 42.793 2.137-.586 4.274-1.178 6.411-1.769-9.153-25.732-19.492-49.936-7.287-76.667h-5.78c7.36 10.94 9.897 22.019 10.418 35.043.38 9.511-.456 19.106 1.953 28.399.792 3.065 5.369 2.356 5.421-.736.399-22.527 1.03-46.735-12.012-66.087-1.27-1.883-4.66-2.457-5.78 0-13.12 28.689-3.473 53.882 6.66 81.813 1.454 4.007 7.318 2.457 6.411-1.77-4.725-22.014-23.135-36.093-42.005-46.222-2.137-1.147-4.314.324-4.524 2.597-2.57 27.488 14.6 53.72 44.011 52.157 1.932-.097 1.962-3.053-.013-3.035z" class="darkest"/></g><g class="darkest"><path d="M-1041.712 557.88c-2.024-16.746 4.13-30.9 19.124-39.32l-4.23-1.722c2.281 8.829 2.08 17.092-1.673 25.474-3.451 7.708-10.24 11.653-15.166 17.99-1.436 1.848-.206 5.067 2.475 4.252 18.839-5.715 26.371-32.542 19.92-49.244-.647-1.682-2.517-2.768-4.23-1.721-15.673 9.555-24.62 26.476-18.65 44.624.406 1.257 2.605 1.121 2.43-.333z" class="darkest"/></g><g class="darkest"><path d="M-1096.808 521.765c-15.576-7.082-17.403-23.46-19.575-38.599l-3.718 2.86c6.753 4.558 12.122 9.958 16.055 17.131 3.77 6.876 3.017 14.263 4.821 21.572.447 1.805 2.724 1.459 3.31 0 6.662-16.474-9.047-34.74-21.633-43.074-2.058-1.362-4.02.872-3.718 2.86 2.335 15.283 4.84 37.026 24.108 38.546.67.052.977-1.012.35-1.296z" class="darkest"/></g><g class="darkest"><path d="M-1072.901 602.343c-12.231 4.558-25.036 5.075-37.75 2.421.189 1.454.382 2.904.57 4.358 5.855-4.104 12.043-6.858 19.216-7.524 8.036-.749 13.992 3.652 21.283 5.838 1.13.337 2.26-1.02 1.572-2.045-10.116-15.034-33.111-9.184-44.961-.014-1.375 1.065-.605 3.692 1.05 3.986 13.765 2.43 27.432 1.865 39.839-5.072 1.038-.578.328-2.378-.82-1.948z" class="darkest"/></g><g class="darkest"><path d="M-1218.261 611.272c-7.62-18.77-26.438-38.555-48.159-29.424-1.865.784-2.32 3.648 0 4.256 20.832 5.44 17.311 47.055 45.588 35.919 3.24-1.279 2.063-6.21-1.467-5.325-13.795 3.464-18.047-4.63-23.53-15.713-4.3-8.693-9.511-16.597-19.413-19.137l.526 4.033c20.407-8.675 34.57 11.351 43.28 26.731.946 1.677 3.928.517 3.175-1.34z" class="darkest"/></g><g class="darkest"><path d="M-1235.55 629.126c-19.247-4.703-35.845 10.664-35.157 30.147a2.75 2.75 0 004.65 1.927c10.314-9.613 26.412-16.142 32.486-29.604 1.406-3.11-2.593-5.496-4.58-2.676-8.501 12.048-21.27 18.454-31.76 28.426 1.551.644 3.101 1.283 4.652 1.927-.75-16.545 12.826-29.889 29.397-27.84 1.332.163 1.577-2 .311-2.307z" class="darkest"/></g><g class="darkest"><path d="M-1210.37 608.894c-7.896-11.11-6.98-22.92-2.562-35.371-1.681.219-3.363.438-5.045.661 6.876 11.053 8.899 22.518 11.434 35.008.246 1.2 2.059 1.13 2.348 0 3.363-13.085-2.142-26.71-9.017-37.793-1.31-2.11-4.265-1.585-5.045.661-4.12 11.89-7.506 31.277 6.1 38.62 1.073.574 2.588-.656 1.787-1.786z" class="darkest"/></g><g class="darkest"><path d="M-1265.163 619.264c-5.045-2.207-9.468-4.62-15.056-5.093-5.439-.46-10.729 2.343-14.986 5.378-1.782 1.274-1.738 4.204.631 4.839 6.043 1.611 15.257 4.607 21.051 1.12 1.397-.84.928-2.635-.416-3.178-2.435-.986-4.975-.986-7.576-1.253-3.91-.398-7.773-1.174-11.653-1.795l1.169 4.423c7.826-6.525 16.948-6.193 26.245-3.057.814.28 1.384-1.038.591-1.384z" class="darkest"/></g><g class="darkest"><path d="M-1245.299 715.892c-4.366 17.464-5.627 39.33-22.995 49.214a3329.7 3329.7 0 013.486 2.001c2.15-17.04 5.627-33.094 16.199-47.06 1.554-2.053-1.441-4.838-3.478-3.476-16.825 11.215-30.483 26.157-52.218 25.872.793 1.384 1.586 2.768 2.383 4.152 11.719-18.792 28.268-28.058 50.028-29.788 2.452-.192 3.193-3.77.6-4.44-22.877-5.943-44.392 13.44-55.389 31.443-1.099 1.8.324 4.142 2.383 4.147 22.872.087 37.04-15 54.784-26.998-1.16-1.16-2.321-2.321-3.481-3.477-10.848 14.526-14.833 31.837-16.44 49.625-.153 1.721 2.093 2.93 3.486 2.001 18.27-12.213 19.505-32.63 22.71-52.647.21-1.327-1.716-1.927-2.058-.57z" class="darkest"/></g><g class="darkest"><path d="M-1209.2 724.243c2.61 17.259-.5 36.033-16.33 46.035 1.129.46 2.254.92 3.384 1.375-2.837-8.951-4.13-17.942-2.527-27.274 1.538-8.951 7.252-14 12.35-20.837.893-1.2-.578-2.872-1.892-2.456-20.153 6.367-17.929 36.444-12.376 51.793.635 1.752 2.444 2.11 3.85 1.016 16.177-12.577 20.24-30.773 15.844-50.291-.342-1.533-2.527-.845-2.304.64z" class="darkest"/></g><g class="darkest"><path d="M-1035.997 585.338c1.554-5.798 3.59-11.474 5.955-16.991 1.209-2.82 2.72-5.488 4.3-8.11a44.028 44.028 0 013.653-5.015c1.712-1.143 1.966-.7.77 1.331 1.402 12.446-4.978 23.77-14.372 31.312-2.382 1.914.688 5.706 3.214 4.165 12.932-7.887 18.144-25.536 14.386-39.703-.157-.595-.705-1.23-1.34-1.34-5.404-.928-7.843 5.518-10.186 9.608-4.283 7.493-6.477 15.875-8.014 24.292-.197 1.06 1.345 1.52 1.634.451z" class="darkest"/></g><g class="darkest"><path d="M-988.237 643.096c.512-13.037 4.094-24.962 15.366-32.595-1.16-.665-2.316-1.331-3.477-1.997 1.612 16.86-3.766 29.534-16.536 40.372-2.32 1.971.648 5.51 3.162 4.1 15.669-8.803 20.473-28.461 17.915-45.085-.214-1.406-2.264-2.194-3.393-1.38-12.03 8.672-17.246 21.936-15.38 36.585.184 1.463 2.281 1.554 2.343 0z" class="darkest"/></g><g class="darkest"><path d="M-975.31 658.555c7.497-17.552 29.437-24.034 42.934-9.065l.512-3.972c-13.82 7.006-27.519 12.349-43.244 11.806-3.613-.123-3.543 5.312 0 5.566 16.387 1.178 31.622-5.505 45.793-13.006 1.485-.789 1.581-2.825.513-3.972-15.494-16.58-42.514-10.138-49.254 11.482-.495 1.603 2.072 2.737 2.746 1.16z" class="darkest"/></g></g><g fill="#ef6801" class="primary"><path d="M370.06 260.658c-19.404-4.57-12.24 20.09 5.113 11.77l-.023.008c.863-.336 1.804-.474 2.66-.07a2.887 2.887 0 00-2.24-.835c-4 .357-8.298.817-11.455-2.238-5.383-4.862 2.116-7.056 6.236-5.177 3.422 1.163 8.373 3.968 7.946 8.127 2.498-5.105-3.821-10.162-8.237-11.585zm5.065 11.785l-.067.02.067-.02z" class="primary"/><path d="M362.404 246.154c-5.353-1.153-10.967-1.985-16.438-1.996 5.011 1.976 9.989 3.995 15.196 5.49 8.875 4.015 16.093 9.81 21.01 18.32 3.581 6.824 4.752 18.063 1.771 25.25-.873 1.611-2.292 3.083-4.195 3.297 1.032.265 2.152.19 3.13-.263 7.66-4.236 6.737-14.677 5.202-22.032-2.55-13.083-13.899-22.935-25.676-28.066zM364.902 209.939c.423 1.585-.465 2.781-1.693 3.68.05-.044.1-.088.15-.13-7.585 6.598-22.701 22.074-24.737 31.727-.498 1.951-.19 4.087 1.526 5.335-.225-.52-.474-1.042-.596-1.605-.892-7.835 29.967-34.11 25.35-39.007zm-.207 2.185l-.016.025.016-.025zm-25.137 36.852l.005.03-.005-.03z" class="primary"/><path d="M364.578 211.207c8.479 7.843-.04 11.658-5.916 16.708l.036-.032c-6.15 5.329-14.788 10.672-15.531 19.532.049 1.398-.04 3.834.602 1.146 3.715-9.202 13.68-14.05 20.684-20.57 7.28-4.429 9.116-13.124.125-16.784z" class="primary"/><path d="M367.73 203.19c-5.164-.897-5.1 1.855-2.539 5.355 1.753 3.891.847-.993.563-2.85 3.159.012 2.977 7.144 3.767 9.62 1.337-3.34 2.573-10.7-1.792-12.125z" class="primary"/><path d="M365.96 196.886c-3.39-.965-2.618 2.586-.993 4.13-.112-.824-.23-1.678-.1-2.512 3.114.616 2.353 4.356 3.863 6.554.275-2.895 1.459-7.885-2.77-8.172zm-.977 1.28l-.037.052a.743.743 0 01.037-.053zm-.326.267l-.016.008c.005-.003.01-.008.016-.008z" class="primary"/><path d="M366.673 188.3c-4.73-.399-3.8 4.06-2.093 6.83h-.001c.526-.104-.52-5.896 1.569-3.926.129 2.894 1.24 5.564 2.388 8.185.005-2.458 1.563-10.971-1.863-11.089zm-.712 2.457a.842.842 0 01.053.037l-.053-.037z" class="primary"/><path d="M365.94 178.776c-6.841-1.014-3.97 5.535-1.139 8.47-.213-2.212-2.414-7.227 1.6-5.25 1.336 2.113.399 5.244 1.895 7.485.254-3.62 3.278-9.968-2.355-10.705zm-2.08 2.737l-.002.002.002-.002z" class="primary"/><path d="M364.886 170.569c-6.535-.711-3.01 5.26-.803 8.115-.197-1.773-.603-3.562-.634-5.358 2.07-.027 3.408.804 3.267 3 .332 1.82 1.03 3.544 1.656 5.278.254-3.928 2.728-11.033-3.486-11.035z" class="primary"/><path d="M365.03 164.453c-3.177-1.064-6.326.17-3.597 3.635 2.486 4.323 1.623 1.534 1.178-1.486 1.27.285 2.774.568 3.2 1.985l-.008-.017c.665 1.753 1.143 3.587 1.753 5.351.697-3.123 1.454-8.367-2.527-9.468z" class="primary"/><path d="M365.477 155.918c-6.14-1.656-5.15 6.287-3.377 9.748.282-2.41.33-9.714 4.11-5.958-.023 2.083-.284 4.227.735 6.141.403-3.501 3.911-8.633-1.468-9.93z" class="primary"/><path d="M365.682 150.628c-2.983-.281-6.157 2.25-3.85 5.213.066-.82-.017-1.914.624-2.527.921-.116 2.522-1.055 2.897.188.826 1.82 1.06 3.855 1.88 5.67.432-2.646 1.47-7.161-1.55-8.544z" class="primary"/><path d="M364.43 144.002c-4.521.312-3.985 5.4-1.72 8.035.113-1.882-.962-4.96 1.63-5.513 1.734.166.795 3.987 2.089 5.268.153-2.637 2.395-7.766-2-7.79z" class="primary"/><path d="M362.121 140.317c-4.151.184-3.46 4.535-1.35 6.833-.292-2.264-.657-5.116 2.543-4.59.96 1.044.857 3.205 1.752 4.526.49-2.686 1.414-7.663-2.945-6.77z" class="primary"/><path d="M361.931 134.731c-2.729-.29-3.66 2.977-4.175 5.078-.142 1.94 2.055 3.028 3.188 4.319-.276-1.643-1.972-3.352-.685-4.872 1.596-4.125 2.938.762 3.962 2.723.293-2.368.373-6.27-2.29-7.248zm-.455 2.382c-.018-.005-.034-.012-.052-.018.018.005.035.012.052.018zm-1.771 3.11l-.008.021.008-.022z" class="primary"/><path d="M359.795 132.043c-4.615-.794.291 8.045-.332 4.405.005-.868-.21-1.749-.09-2.613 1.237.93 2.172 2.22 2.96 3.54.185-1.965-.664-4.44-2.538-5.332zm-.524 1.76l-.026-.003.026.003zm.037.035l-.1.046a.714.714 0 01.1-.046zm.048.02l-.038.109a1.1 1.1 0 01.038-.108zM326.255 192.782c-1.631-.688-3.514.55-3.703 2.276-.191 2.125 1.496 3.807 2.48 5.539 2.933 5.14 5.77 10.344 9.208 15.178-1.451-5.33-3.138-10.635-5.149-15.79 4.621 5.557 7.557 12.696 7.489 19.976v-.061c-.367 7.945-1.22 16.014-3.47 23.65 11.049-14.768 9.158-40.178-6.855-50.768z" class="primary"/><path d="M319.667 173.214c-5.83-.79 4.56 18.707 5.433 21.461.691-6.896-2.004-13.294-4.943-19.363 1.184.09 1.64 2.262 2.38 3.16-.181-1.942.017-5.691-2.87-5.258zm.942 2.021l-.06-.013.06.013zm-.101-.003c.018.008.035.018.052.027-.017-.01-.035-.018-.052-.027z" class="primary"/><path d="M317.721 165.13c-5.09-.02-1.48 5.187-.05 7.448l-.005-.007c2.839 5.25.728-3.509-.472-5.441 1.23-.973 1.528 1.228 2.133 1.95.031-1.4.346-3.816-1.606-3.95zm.338 1.694l-.078-.017c.026.003.052.009.078.017z" class="primary"/><path d="M314.839 155.862c-1.89-.045-3.545 2.254-2.13 3.833 1.302 2.191 2.32 4.571 3.878 6.595a28.847 28.847 0 00-.51-4.145c.105-.917-2.218-4.768-.907-3.77.517.879.911 1.839 1.376 2.736.048-1.739.573-4.789-1.707-5.25zm.078 2.047l-.005-.002.005.002zm-.05.026l.01.005-.01-.005zm-.115-.044h.001l-.065.004a.781.781 0 01.064-.004zm-.191.481v0z" class="primary"/><path d="M312.298 148.572c-4.6-.416.988 8.269 1.981 9.985.16-3.063-.725-5.997-2.078-8.718.526.35.735 1.032 1.051 1.547.094-.996.176-2.39-.954-2.814zm-.155.967l-.018.084a.564.564 0 01.018-.084zm.115.304l-.038-.008a.808.808 0 01.038.008zm.002.02c.009.005.018.008.026.015-.01-.004-.017-.01-.026-.014zm.024.014c.012.005.024.013.036.019-.012-.008-.025-.01-.036-.019zm-.234-.05h-.018.018zm-.027.029c-.013.01-.03.01-.045.017a.834.834 0 01.045-.017z" class="primary"/><path d="M309.3 142.147c-5.354.161 1.503 6.963 2.916 8.647-.399-2.663-1.573-5.158-3.176-7.313.691-.394 1.143.765 1.615 1.13-.161-.894-.243-2.289-1.356-2.464zm.149 1.232c.017.007.032.016.048.024l-.048-.024zm-.133-.019l-.062.02a.672.672 0 01.062-.02z" class="primary"/><path d="M306.965 134.625c-6.43.525.065 6.399 1.323 9.21a9.26 9.26 0 00-.86-4.73c-.403-.902-1-1.693-1.46-2.56 1.042-1.1 1.397-.33 2.012.682-.148-.858.285-2.613-1.015-2.602zm-1.096 2.006l-.004.022.004-.022z" class="primary"/><path d="M302.567 126.976c-2.987.013-.698 3.09.177 4.336l-.072-.104c.858 1.244 1.698 2.503 2.328 3.882.487-2.428-.63-4.816-2.044-6.738.794-.408 1.3.733 1.76 1.21.001-1.27-.594-2.909-2.149-2.586z" class="primary"/><path d="M299.022 121.188c-4.67 1.817 2.53 5.144 3.814 7.127-.263-2.352-1.875-4.2-3.631-5.662.646-.848 1.53-.893 2.407-.376-.523-.941-1.526-1.646-2.59-1.089z" class="primary"/><path d="M297.48 115.36c-6.13.896.174 4.975 1.73 7.302-.168-1.956-.965-3.883-2.29-5.348.877-.911 1.502 1.22 2.1 1.75 0-.004-.003-.006-.005-.008.138-.695-.086-3.381-1.536-3.696zm.003 1.57l-.05.004c.015-.007.033-.003.05-.004z" class="primary"/><path d="M293.514 110.823c-1.287-.036-3.94.615-3.323 2.377 1.045 1.402 3.132 1.673 4.38 2.935 3.147 3.882.466-2.713-1.686-3.414 1.067-.577 1.976 1.193 2.848 1.699-.473-1.269-.814-3.072-2.22-3.597zm.006 1.627l-.087.007a.592.592 0 01.087-.007zm-.187.034l-.032.012c.01-.004.021-.01.032-.012z" class="primary"/><path d="M288.399 107.062c-2.262.131-2.69 3.636-.263 4.064-.064-.03-.127-.062-.191-.093 1.306.522 2.482 1.283 3.596 2.121-.292-2.095-2.547-2.928-3.49-4.23.017-1.114 1.212-1.252 1.984-.73-.27-.657-.96-1.03-1.636-1.132zm-.394 2.044l.005.058a1.341 1.341 0 01-.005-.058zm-.035.023l.022.06c-.011-.017-.015-.04-.022-.06zm.03.083zm.023.02l.031.027c-.01-.01-.024-.016-.03-.027z" class="primary"/><path d="M284.02 103.504c-1.216.195-1.609 1.83-1.442 2.877.939 1.703 3.624 1.386 4.938 2.847-.374-1.669-1.876-2.651-3.295-3.411-.318-1.539 1.193-1.436 2.228-.991l-.002-.001.01.004c-.003 0-.004-.002-.007-.003.061-.478-1.576-1.524-2.43-1.323zm.385 1.096l-.041.047a.805.805 0 01.04-.047zm-.101.14l-.021.044a.592.592 0 01.02-.044zm-.2.983l.02.03a.523.523 0 01-.02-.03zm2.346-.897h-.001.001z" class="primary"/><path d="M279.527 101.538c-1.344.196-1.88 1.926-1.205 3 1.09 1.405 3.249 1.202 4.847 1.24-9.452-4.404 3.112-3.34-3.642-4.24zm.685 2.602c.03.013.058.028.088.042-.03-.013-.06-.028-.088-.042zM319.395 259.488c-3.877 2.104-7.513-3.09-10.992-4.384-2.84-1.61-5.929-2.86-9.136-3.49-8.838-1.303-18.269 9.443-14.655 15.922v.023c-.062-5.461 4.067-9.564 8.925-11.368 7.685-4.916 20.918 9.173 25.858 3.297zm-34.408 5.306a2.79 2.79 0 01-.012.046c.005-.015.008-.03.012-.046zM307.026 268.395c-10.31-4.377-14.547 1.38-22.687.42 3.21 2.48 7.478 1.324 11.196 1.149h-.158c16.89-1.107 23.988 16.482 32.743 15.003h.001c-3.378-.73-5.441-3.645-7.463-6.196-3.802-4.206-8.384-8.145-13.632-10.376zm20.789 16.493c-.003 0-.006-.002-.01 0 .003 0 .006.002.01 0zM321.577 264.032c1.504 3.358.874 7.319 2.751 10.567 2.315 3.48 3.853 3.85 2.272 8.37 3.462-3.417 2.646-5.76.3-9.5-1.698-3.175-2.15-7.298-5.323-9.437z" class="primary"/><path d="M336.377 244.253c-5.92.074-11.82-1.625-17.69.107-4.849 1.35-10.072 2.325-14.228 5.314-4.077 4.098 3.868 6.458 6.169 6.325l.008.004c-1.684-1.078-7.523-3.591-3.104-4.912 3.552-1.203 7.233-1.982 10.823-3.06l-.441.117c5.975-2.235 12.642-1.449 18.463-3.896zM335.708 251.791c-5.847-.109-9.779 4.042-13.444 7.983 4.96-1.504 9.163-5.14 13.444-7.983zM288.823 254.868c-7.293-.848-16.016 1.03-20.29 7.5-1.38 2.002-3.259 4.98-1.266 7.18 3.628 1.962 9.384-1.633 13.208-2.46-3.27-.287-8.255.645-10.697-.4 3.574-7.244 11.868-9.667 19.045-11.82zM302.964 274.36c.12.499.243.995.375 1.49l-.004-.013c.607 3.349 2.082 6.513 2.436 9.891-.271 4.961 4.144 7.461 8.454 8.206-9.59-6.492-1.622-9.329-11.26-19.573zm.351 1.392l.014.058-.014-.058zM295.427 272.251c-2.086-.851-4.38-1.005-6.6-.896 4.11 2.22 8.262 4.442 12.435 6.516.58.068 1.167-.142 1.69-.358-3.013-.647-4.363-4.471-7.525-5.262z" class="primary"/><path d="M308.696 276.553c5.356 13.053-2.445 16.366 13.35 19.028-2.313-1.81-5.077-3.086-7.268-5.01-.472-5.168-1.902-10.538-6.082-14.018zm.992 3.14l.033.133c-.012-.044-.022-.09-.033-.134z" class="primary"/><path d="M312.33 284.993c2.165 2.046 4.86 3.883 7.93 3.996-2.387-1.814-4.805-3.777-7.93-3.996zM321.238 282.844c2.358 6.818 7.817 11.327 14.119 14.444 8.483 5.1 18.522 6.302 28.201 5.014 1.114.07 2.273.22 3.25.794-1.297-1.557-3.397-2.129-5.343-2.356-6.63-1.238-13.58-1.598-19.807-4.33-7.413-3.612-14.926-7.263-20.42-13.566zM321.517 286.39c.41 6.76 4.554 13.463 11.162 15.599-4.565-4.521-7.174-10.598-11.162-15.598zM365.563 303.67c-.064 3.145 2.777 5.13 3.871 7.812.726 2.895 1.065 6.334 4.514 7.102-2.59-2.225-1.048-5.586-2.167-8.426-1.382-2.737-4.6-3.933-6.218-6.488zM378.536 304.103c3.07 5.888 5.267 12.152 7.87 18.246 2.249 4.97 7.314 12.121 1.155 16.302l.004-.003c6.666-1.29 4.982-10.232 2.64-15.26-2.448-7.166-5.687-14.385-11.67-19.285zM370.777 316.816c.48 5.998 3.853 10.978 8.313 14.809-1.973-5.274-4.688-10.462-8.313-14.809z" class="primary"/><path d="M390.46 338.886c-3.752-1.157 2.235 1.684 2.771 3.953a25.411 25.411 0 01.11.183l-.012-.018c2.36 4.95 6.118 9.655 6.553 15.264-.226 4.722-2.244 9.119-3.523 13.616-1.034 3.073-1.91 6.37-4.065 8.873-.953 1.566-2.64 2.243-4.338 2.702-2 .612-4.377 1.889-5.254-.875.055 1.557.902 3.309 2.731 3.022 12.396 2.154 13.34-12.094 16.538-20.585 2.135-5.667 1.017-11.775-2.187-16.805-2.313-3.65-4.816-8.245-9.325-9.33zm2.806 4.01l-.035-.057.035.058z" class="primary"/><path d="M389.919 370.57c-1.948 15.161-7.88 11.15-16.193 2.93 1.11 2.34 2.33 4.66 3.705 6.867 7.04 10.34 17.14-.55 12.488-9.797z" class="primary"/><path d="M358.892 331.336c5.002 3.89 4.841 10.583 6.227 16.204 3.942 10.583 5.094 24.28 11.713 32.867-1.74-3.884-1.992-8.248-2.867-12.375-1.47-6.535-3.503-12.937-5.177-19.426-1.62-6.43-2.431-15.045-9.896-17.27zM367.233 320.475c-2.174-.815-4.685-.836-6.733.34-1.084.62-2.112 1.356-3.18 1.989a21.31 21.31 0 002.189-.433c6.943-2.605 10.632 4.936 14.453 9.247 5.638 6.766 9.496 14.804 11.602 23.324 1.806 3.325 5.03 23.28 4.357 11.013-.085-11.802-4.52-22.976-10.783-32.816-3.485-4.515-6.473-10.293-11.905-12.664zm12.928 20.49l.076.127-.076-.128zM400.571 293.155c-3.202-.486-6.52-1.465-9.721-.502-2.95.875-12.44 4.966-4.372 3.15 13.867-2.925 25.896 6.332 34.412 16.334 5.955 6.463 10.131 14.415 11.646 23.104.738 5.066-1.611 9.818-3.496 14.37-1.975 4.62-5.34 8.667-6.509 13.621 4.538-5.885 10.295-10.998 12.263-18.488 6.968-17.644-17.664-47.397-34.223-51.589z" class="primary"/><path d="M416.976 338.368c2.128 2.298 3.859 5.206 6.873 6.456 6.388 2.046-.137-1.609-1.827-3.579l.067.051c-1.545-1.223-3.226-2.316-5.113-2.928zM417.69 318.53c.426 9.598-2.91 15.701-7.96 23.388 8.192-5.289 13.256-14.077 7.96-23.388zM410.855 341.335c-3.058 1.807-5.622 4.38-7.486 7.388 3.284-1.5 6.186-3.949 7.486-7.388zm-6.351 5.753l-.021.028.02-.028z" class="primary"/><path d="M392.699 336.926a23.165 23.165 0 0012.01 13.52c-1.754-2.329-3.61-4.608-5.323-6.978l.204.262c-1.896-2.628-4.369-4.805-6.891-6.804zM358.469 324.443c-1.008.924-1.845 2.526-.738 3.7-.156-1.286.648-2.438.738-3.7zM356.801 325.976c-10.333 8.579-17.37 20.213-24.573 31.386-4.515 7.283-13.239 16.359-13.352 23.9l-.005.011c3.545-7.351 9.88-12.744 14.284-19.536 7.621-12.092 17.05-23.06 23.646-35.761zM354.346 334.577c-3.239 4.85-5.278 10.33-7.768 15.57-3.153 5.664-6.5 11.274-10.345 16.498a47.102 47.102 0 01-6.804 7.073c-2.782 1.919-5.04 3.4-4.359 7.207.54-2.276 1.761-3.911 4.103-4.5 3.013-1.42 5.69-3.515 8.034-5.865 7.42-9.175 14.37-19.547 16.261-31.415l-.006.029c.31-1.526.616-3.07.884-4.597zm-.897 4.657l-.026.129.026-.129zM328.147 378.624c-1.992 5.219-2.225 11.457-5.603 15.975l.032-.035c-.086.095-.172.19-.257.287l.018-.021c4.909-.49 7.995-10.783 5.81-16.206z" class="primary"/><path d="M320.905 379.633c-12.376 4.122-18.47 24.646-21.34 36.286 4.516-6.303 7.848-13.356 10.832-20.486 2.54-5.914 5.237-11.812 10.508-15.8zM301.606 417.188c-5.419 1.115 3.077-.267 1.536 4.84 1.827-1.616.92-4.602-1.536-4.84z" class="primary"/><path d="M321.724 382.474c-.116 3.058-3.718 4.067-5.201 6.388-3.758 4.12-5.892 9.388-8.67 14.17l.042-.079c-2.974 5.287-5.025 11.315-4.96 17.42a143.554 143.554 0 015.498-12.063l-.011.022c3.183-5.21 5.822-10.718 8.536-16.17 1.293-3.291 5.642-5.909 4.766-9.688zM308.6 407.996l-.055.104.055-.104zM298.039 416.866c-3.297 1.052-5.976 3.797-7.332 6.9 2.791-1.863 5.506-3.988 7.332-6.9z" class="primary"/><path d="M292.468 423.21c-2.663-.812 3.061 2.557 1.967 4.734 1.598-1.8.127-4.245-1.967-4.734z" class="primary"/><path d="M299.251 417.428c.113 2.673-3.58 3.396-3.98 6.119-.56 1.043-1.187 5.688.046 3.103.916-2.537 5.87-7.005 3.934-9.222zM291.28 422.204c-2.742.708-6.496 2.838-8.054 4.546 3.272-.484 6.033-1.872 8.054-4.547zm-8.044 4.542c-.002.002-.004.001-.005.002.002-.002.003-.002.005-.002zM284.028 427.536c-2.177-1.326 2.64 3.518 2.103 5.707a.388.388 0 01-.004-.028c1.316-.26.584-5.356-2.099-5.679z" class="primary"/><path d="M294.14 422.011c-3.49 2.609-9.079 6.597-7.965 11.14l-.004.01c.818-1.98 2.567-3.37 3.766-5.114l-.103.137c1.698-1.88 3.348-3.793 4.306-6.173zM283.615 427.492c-1.632.003-4.065-.088-4.95 1.542.025 1.023.823 1.912.68 3.005 1.37-4.39.334-2.017 4.27-4.547zm-3.752 1.9l-.007.004.007-.005zm-.081.073zM284.681 430.406c-2.102.069-4.08 1.247-5.477 2.767-.309-1.127-.343-.631-.576.208-.16.38-.613.95-.1 1.25 2.09.016 3.56-2.504 5.241-3.59l-.058.045c.318-.23.65-.466.97-.68zM272.004 424.742c-4.066-1.523-5.536 2.749-7.482 5.224-2.348 1.404-1.476 1.295.671.779 6.121-4.575 3.468-4.368 11.194-2.212.671.046 2.338-.042.92-.411-1.89-.919-3.342-2.596-5.303-3.38zm5.285 3.372a.334.334 0 01-.021-.009l.021.01z" class="primary"/><path d="M270.871 426.41c-3.02.973-3.094 4.553-2.51 7.154.241.652-.692 2.298.27 1.195 1.633-2.454.269-5.98 2.24-8.349zM293.466 368.205c-3.694 4.107-10.62 3.795-13.22 9.266-2.358 4.35-3.884 9.15-6.621 13.321-3.612 4.117-6.413 8.948-10.251 12.841-4.566 3.587-1.758 2.092 1.579.555 4.107-2.754 7.489-6.533 10.731-10.234 3.753-4.951 5.156-11.21 8.298-16.49 2.444-3.807 8.223-4.547 9.484-9.259zM258.182 406.647c-2.428-.182-4.837.6-7.025 1.586l.27-.117c-2.2.983-4.445 2.048-6.848 2.38 4.47 1.561 9.093-.689 13.086-2.6 1.706-.718 3.578-.685.517-1.249zM237.207 401.34c-3.122-.872-6.4.176-9.381 1.112 9.512 1.35 8.03.283 13.954 7.292 2.69 1.704 3.487 2.126 1.178-.862-1.796-2.74-1.83-6.75-5.75-7.542z" class="primary"/><path d="M236.228 402.7c-2.006-.206-4.138.346-5.65 1.703 1.413-.057 9.534-1.135 5.65-1.703zM337.814 321.394c-9.072 3.17-15.19 10.7-21.553 17.456-5.09 4.802-10.028 9.793-14.317 15.335-3.02 4.093-5.04 8.82-8.061 12.912l.113-.162c-2.837 3.793-5.194 6.043.478 1.613 5.412-4.383 8.229-10.957 12.774-16.096 4.07-5.26 9.166-9.516 13.936-14.1 5.503-5.692 10.937-11.472 16.63-16.958z" class="primary"/><path d="M300.502 366.388c-3.452-.644-6.092 2.38-7.242 5.296 4.34-3.575 8.671-4.306 8.486 2.728-.129 1.672-.952 3.177-1.586 4.69 4.225-2.603 5.991-10.836.342-12.714z" class="primary"/><path d="M338.044 322.49c-6.112 9.477-13.46 18.072-21.219 26.222-7.076 7.747-15.07 13.81-14.173 25.504 2.674-8.61 8.681-15.022 14.996-21.156 8.108-9.19 17.618-18.153 20.396-30.57zM294.825 370.92c-1.873.97-2.742 3.401-4.887 3.795-7.17-.57-9.234 5.837-9.642 11.791 7.334-14.78 10.35-3.486 14.529-15.586zM351.319 315.447c-5.248-1.93-9.805 2.05-12.223 6.381 4.989-3 11.904-6.986 16.817-1.667-.003-.001-.004-.005-.007-.006-.08-1.484-2.412-4.321-4.587-4.708zm4.587 4.708l-.003-.001.003.001z" class="primary"/><path d="M346.59 321.277c-6.34-.527-2.54.154.168 2.114 1.797 1.781 3.486 3.706 4.838 5.851l-.028-.04c.071.105.143.21.216.314l-.007-.01.146.214v-.004c.168-2.695-1.89-7.563-5.332-8.44zm5.332 8.44c-.002 0-.002-.003-.003-.003l.003.004zm-.003-.003c-.001 0-.002-.001-.002-.004l.002.004zm-.127-.186l-.008-.012.008.012zM356.734 338.783c5.468 16.904 1.414 25.854 18.796 37.113-16.448-16.902-7.62-23.867-18.796-37.113zM387.103 408.786a12.818 12.818 0 014.074 10.222c2.859-3.81.822-9.635-4.074-10.222z" class="primary"/><path d="M444.742 348.85c-1.816 4.35-5.742 7.365-8.451 11.133-4.08 5.585-8.047 11.327-13.267 15.93-10.44 10.889-24.629 19.442-30.45 33.9-.866 2.209-1.012 4.618-1.083 6.956.59-1.283 1.136-2.59 1.776-3.85 13.557-23.874 44.147-36.65 51.475-64.069z" class="primary"/><path d="M442.995 343.758c-14.868 6.286-23.434 21.661-32.95 33.963-3.735 5.873-8.148 11.241-12.593 16.577-3.29 4.18-5.577 9.04-8.783 13.267 11.634-7.908 18.621-20.851 26.83-31.951 8.294-11.233 17.144-22.35 27.418-31.802-.001.003-.004.002-.005.003.027-.02.066-.034.083-.057zM426.657 379.781c-9.736 6.137-15.574 16.49-20.372 26.512-1.487 1.541-3.182 2.466.047 1.102 2.883-1.218 3.755-4.414 5.634-6.642 5.639-6.452 9.953-13.876 14.691-20.972z" class="primary"/><path d="M417.288 398.82c-5.312 4.873-10.716 14.547-18.972 9.33 3.037 4.886 8.942 5.266 13.037 1.408 2.948-2.934 4.191-7.07 5.935-10.737zM405.867 383.974c-7.36 2.605-13.149 9.455-12.637 17.514 3.312-6.012 7.283-11.63 11.902-16.71l-.045.05c.256-.283.534-.572.78-.854z" class="primary"/><path d="M400.024 371.346c1.922 5.761-1.331 8.977 3.26 14.952-1.111-4.923 1.422-11.565-3.26-14.952zM420.01 349.507c-3.506-.983-6.878 1.214-9.69 3.054 3.103.031 6.092-.858 9.149-1.21 5.465.756 5.68.695.54-1.844zM441.412 345.962c3.437 2.147 2.249 5.672 1.268 8.874 3.537-2.812 4.437-8.389-1.268-8.874zM444.36 358.392c2.013 3.2 4.844 6.184 5.722 9.931-.888 9.127-7.938 16.532-9.307 25.588-1.057 3.86.476 7.51 2.518 10.732-.285-2.268-1.044-4.558-.734-6.853 1.91-8.76 7.43-16.163 10.301-24.582 2.495-6.641-3.411-11.682-8.5-14.816zM436.05 403.48c-3.612-1.024-7.428-1.303-10.965-2.567-1.937-.898-3.33-2.754-5.477-3.215 2.179 2.672 3.722 6.286 7.594 6.82 2.085.74 14.771.113 8.847-1.038zm-15.405-4.562l.033.044-.033-.044zM417.977 402.367c.01.082.018.164.025.246-.002-.004-.001-.009-.002-.013-.167 3.158-4.954 4.123-4.537 8.217.363 10.455 7.298 19.513 18.35 19.321 2.093.1 4.234.077 6.283-.36-1.285-.21-2.574-.412-3.837-.734-10.921-2.226-15.768-8.134-18.126-18.794-.677-2.934 3.569-5.09 1.844-7.883zm18.877 27.207l-.018-.003.018.003zm-.018-.003l-.036-.005a.974.974 0 01.036.005z" class="primary"/><path d="M434.514 406.296c-6.663 6.303-3.965 19.373 4.494 22.775-4.316-6.242-7.375-15.32-4.53-22.689l-.001.005c.01-.031.035-.062.036-.091z" class="primary"/><path d="M442.601 418.266c-4.212.775-6.107 5.376-4.893 9.216 1.287-3.232 2.265-6.78 4.893-9.216zM449.376 425.674c-2.901 3.788-7.756 2.076-11.5 3.844 4.687 1.156 9.957 2.198 11.5-3.844z" class="primary"/><path d="M442.754 417.802c-1.114 3.097.876 6.618 4.192 7.005-2.094-1.826-3.274-4.442-4.192-7.005zM501.13 335.872c-2.78-.27-5.434 1.298-7.48 3.046l.325-.26c-.43.341-.86.683-1.288 1.026l.326-.261c-6.88 5.457-13.169 11.537-18.69 18.367-10.508 11.509-20.517 23.717-27.963 37.46-1.902 3.882-2.398 8.274-1.901 12.537.54-1.677 1.044-3.393 1.696-5.04 7.656-15.39 17.907-29.507 29.492-42.193 5.184-6.619 11.19-12.292 17.843-17.412 3.192-2.11 6.568-7.336 10.406-3.674.627.367 1.26.754 1.881 1.114-1.479-1.573-2.544-3.926-4.647-4.71zm-7.039 6.785l-.09.07.09-.07z" class="primary"/><path d="M463.685 374.57c.384 1.853 1.286 3.516 2.162 5.163.37-1.976-.605-3.974-2.162-5.162zM504.957 343.554c-10.587-.454-18.08 17.099-24.811 23.568 9.614-4.145 14.45-14.34 21.771-21.286 1.55-1.494 3.638-1.569 5.515-.667-.732-.641-1.53-1.312-2.475-1.615z" class="primary"/><path d="M511.45 347.662c-16.212 2.816-28.447 15.508-39.502 26.822-9.297 9.896-18.675 20.347-24.739 32.585-1.488 3.05-1.864 6.47-1.85 9.818 1.11-2.645 2.204-5.316 3.838-7.69 12.338-19.176 26.47-38.016 45.605-50.874 3.804-2.183 7.665-4.27 11.5-6.403 2.427-1.046 4.99-4.174 7.694-2.3 2.196 1.26-1.275-2.277-2.545-1.958zM512.037 359.64c-11.815 4.552-18.455 16.266-26.658 25.211-7.93 8.21-13.877 18.015-22.332 25.758-4.666 4.664-7.915 11.022-13.602 14.517-1.555.43-.936.541.378.456 3.402-.406 6.128-2.731 8.61-4.91 5.98-6.097 11.827-12.42 17.268-19.001 4.508-7.022 10.324-12.926 15.686-19.268 6.586-7.804 12.84-16.151 20.65-22.763zM512.972 359.25c.546 8.377-2.902 16.477-3.84 24.754-1.412 11.042-3.008 22.03-5.08 32.97-.995 10.163-5.092 20.068-5.127 30.261-.677 4.44-4.837 9.551-5.205 13.093-.001.004-.005.007-.007.01 3.412-5.057 10.263-9.117 9.049-16.005 1.259-10.165 3.756-20.12 4.947-30.296 2.03-9.283 3.232-18.688 4.65-28.073 1.388-8.67 4.926-18.382.613-26.713zM509.544 448.025c-1.717-.654-3.605-.522-5.374-.16 1.478.637 3.02 1.162 4.518 1.767a82.788 82.788 0 00-.227-.084c1.773.882 4.068.943 5.447 2.472-.33-2.1-2.574-3.26-4.364-3.995zm3.716 3.386l.015.01c-.006-.002-.01-.007-.015-.01zM517.124 354.76c.057.327.117.654.175.98l-.003-.016c1.085 5.155.327 10.432.656 15.648.838 6.59-.834 12.97-1.666 19.46-1.379 17.48-6.635 38.953-1.676 54.455l-.002.023c1.583-14.49 1.09-29.127 3.812-43.522.886-12.507 5.142-24.865 2.392-37.413l.065.379c-.458-3.579-1.688-7.033-3.753-9.994zm.172.964l-.006-.032.006.032zM511.118 451.046c-3.994 16.416-4.517 33.273-6.86 49.938-.268 2.742-.644 5.514-.318 8.267-.094 1.088 1.264 2.733-.313 2.986-1.036.403-5.763 1.912-3.058 1.546 4.234-.072 6.976.674 5.918-4.76.58-5.87 1.602-11.711 2.23-17.587.733-5.028.844-10.12 1.576-15.148 1.255-8.36 2.82-16.868.825-25.242zm-6.59 61.031z" class="primary"/><path d="M507.311 453.637c-3.061 11.782-4.65 23.833-5.526 35.959-1.039 7.1-3.145 14.165-1.972 21.395 2.023-9.948 5.515-19.511 5.944-29.754 1.203-9.02 3.442-17.972 1.6-27.09l.002.007c-.019-.17-.022-.355-.048-.517zM500.005 514.786c4.982 5.074 6.092 12.132 7.927 18.703 1.688-7.283.378-16.433-7.927-18.703z" class="primary"/><path d="M507.187 524.039c2.252 5.66 5.515 10.806 8.004 16.34.65-6.397-2.694-12.809-8.004-16.34z" class="primary"/><path d="M513.653 533.01c2.376 3.701 11.582 13.144 15.772 8.335-2.97 1.368-4.69-1.97-6.961-3.315-2.74-1.993-5.737-3.619-8.811-5.02z" class="primary"/><path d="M530.89 540.77c-1.765-.509-3.618-.278-5.419-.139.076.884 4.78 1.794 6.295 2.927-.018-.007-.037-.015-.054-.026 2.138.65 3.25 2.577 3.663 4.668 1.424-3.455-1.099-6.66-4.486-7.43zm-5.387-.141l-.017.001.017-.001zM545.9 525.722c-3.25-1.433-6.958-.695-10.214-2.032-2.747-1.123-3.901-1.762-1.187.974 3.844 4.507 10.842 1.7 15.239 4.685 1.029 2.225 1.355-2.105-3.838-3.627zM387.245 412.065c-2.403 5.949-7.378 10.185-11.6 14.824-6.846 7.633-15.4 14.876-20.918 23.15l-.002.003c6.866-4.853 13.531-10.07 19.236-16.325 5.75-6.16 13.32-12.516 13.284-21.652z" class="primary"/><path d="M355.387 449.627c-3.402 1.007-1.778.525.198 1.318.717 1.605 2.138 3.713 1.017 5.382 2.678-1.079 1.56-6.516-1.215-6.7zm.548 1.888l.013.026c-.005-.009-.01-.017-.013-.026z" class="primary"/><path d="M363.135 444.166c-3.1 3.17-5.761 7.197-5.624 11.787 2.235-3.747 5.089-7.317 5.624-11.787zM355.909 452.518c-.69.085-1.374.196-2.054.335l.14-.028c-3.448.508-6.533 2.2-9.3 4.252 4.088-.286 8.195-1.714 11.214-4.559z" class="primary"/><path d="M352.843 454.004c-4.416.457-7.745 4.592-7.233 8.995 1.73-3.467 4.474-6.336 7.233-8.995z" class="primary"/><path d="M349.519 455.936c-5.387.791-12.412 3.89-11.853 10.33 2.275-5.039 8.216-6.442 11.853-10.33z" class="primary"/><path d="M342.173 460.132c-2.671.147-5.279.826-7.912 1.266-1.888.285-3.899-.307-5.567.932 5.835 1.268 8.387 1.963 13.48-2.198z" class="primary"/><path d="M328.989 456.22c-1.688-.676-3.568-.169-5.228.329 2.806.504 5.404 1.37 7.11 3.811.867.805 2.79 2.363 1.47.312-.771-1.685-1.494-3.706-3.352-4.452zM378.498 382.606c-2.288 2.556-3.897 6.106-3.225 9.579 1.397-3.08 3.068-6.112 3.225-9.58zM374.87 386.568c-.38.625-.763 1.248-1.184 1.846 0-.002.001-.002.002-.003-2.604 2.925-4.39 6.434-6.88 9.432-3.66 4.402-8.002 8.183-11.647 12.59-6.393 8.937-13.112 17.59-21.368 24.91l.008-.007c10.102-3.496 17.67-13.219 23.899-22.287 8.14-9.087 14.485-13.488 17.17-26.481zM336.904 431.172c-5.073-1.346-10.876 1.54-12.968 6.32 1.42-1.204 3.189-1.87 4.847-2.68l-.06.03c2.664-1.364 5.375-2.64 8.181-3.67z" class="primary"/><path d="M327.582 433.627c-3.764-.137-15.231-.717-16.86 3.062.196-.135.409-.273.63-.38 2.193-.876 4.664.23 6.963.117 3.284.014 6.33-1.508 9.267-2.8z" class="primary"/><path d="M308.597 429.412c-2.61-.357-5.04 1.213-7.26 2.386 1.957-.009 3.93-.202 5.892-.232 3.129.769 6.019 2.463 9.216 3.05-2.206-2.215-4.731-4.473-7.848-5.204zM501.82 381.068a14.102 14.102 0 00-7.145-.762c-.933.09-4.564 1.19-2.253 1.094 5.473.347 10.47 3.159 15.984 3.495a22.916 22.916 0 00-6.585-3.827zM543.363 482.64c-8.996-1.512-22.437 1.089-29.095 2.863h-.003l.475.062-.004-.002c11.577 2.641 24.316-2.738 35.194 2.674 1.784.79 3.512 1.736 5.012 2.978-2.497-4.123-6.71-7.79-11.579-8.576zm-28.623 2.926l.045.006-.045-.006z" class="primary"/><path d="M553.401 447.322c1.709 3.962 2.356 8.274 3.003 12.513l-.013-.108c1.136 11.561 1.502 23.759-3.062 34.668l.01-.022c8.831-8.927 10.88-36.43.062-47.05z" class="primary"/><path d="M552.48 443.315c-9.996-2.74-26.557 9.334-37.085 12.237 15.379 1.21 30.685-13.325 39.926-9.45 4.853 2.983-.488-2.32-2.841-2.787z" class="primary"/><path d="M521.498 398.917c7.124 5.365 12.548 12.59 18.367 19.283 2.994 3.924 4.632 8.616 6.793 12.998 1.796 3.612 4.382 6.723 6.543 10.107 1.58 2.546 2.363 5.588 1.573.38-.864-4.482-3.251-8.484-5.093-12.613-2.393-5.217-4.943-10.443-8.784-14.768-5.595-6.056-11.338-12.713-19.399-15.387zM518.695 390.706c1.425 2.545 3.68 4.464 5.288 6.857.108-3.229-2.424-5.79-5.288-6.857z" class="primary"/><path d="M523.652 396.907c-2.888-.032-4.976 2.423-5.7 5.02 2.015-1.54 3.72-3.451 5.7-5.02zM483.165 440.473c-2.587 1.896-3.674 4.805-4.697 7.702 2.566-1.674 3.935-4.829 4.697-7.702zM449.897 423.192c1.96 2.83 3.957 5.673 6.365 8.144 3.135 3.193 7.523 4.758 10.694 7.93 3.154 3.011 5.419 6.946 9.252 9.222-2.278-3.272-3.556-7.145-5.843-10.414-2.692-3.907-6.99-5.95-11.064-8.069-3.258-2.09-6.24-4.6-9.404-6.813zm8.341 6.134l.11.077a19.273 19.273 0 01-.11-.077zM474.795 453.467c2.962 14.237 14.508 12.709 25.965 12.73-9.455-5.07-19.495-1.874-25.965-12.73zM476.07 449.46c-2.75 1.868-5.377 3.918-7.917 6.06-2.296 1.981-4.033 4.876-7.05 5.834 6.748.432 12.31-6.293 14.967-11.895z" class="primary"/><path d="M452.739 431.381c-4.202 7.049 3.445 28.949 8.74 31.13-2.852-4.4-2.728-9.896-4.392-14.752-1.456-5.451-4.323-10.638-4.348-16.378zM497.991 469.594c-11.007 2.915-12.674 12.061-26.216 12.327 8.825 3.32 15.465-.066 21.01-7.138l-.042.046c1.595-1.897 3.278-3.728 5.248-5.235z" class="primary"/><path d="M462.101 460.857c3.356 8.945 5.508 19.995 14.232 25.343-5.39-8.006-6.566-18.816-14.232-25.343zM477.115 483.36c.164.674.368 1.338.589 1.995l-.004-.012.034.102-.002-.006c3.798 8.565 8.721 18.627 18.227 21.797-4.525-4.338-7.363-10.1-11.287-14.959-2.318-3.142-5.247-5.777-7.557-8.916zM502.198 482.985c-3.647-1.5-7.184-3.375-11.082-4.143 2.528 2.764 5.93 4.978 9.807 4.804 1.01-.018 3.44-.215 1.275-.661zM522.861 487.325c-4.912-.397-9.491 1.594-13.652 3.996l.023-.011c-.14.071-.28.143-.418.217l.05-.025c-.193.098-.385.2-.578.298l.004-.001c4.18.617 10.453-1.915 14.572-4.474zM552.606 490.68c-2.327 8.401-8.222 18.653-12.804 24.06l-.01.005c3.715-1.641 7.157-3.938 9.151-7.58l-.12.183c3.325-4.764 4.999-10.927 3.783-16.668zm-12.827 24.072l.01-.005a.175.175 0 00-.01.005zm.01-.005s0-.003.003-.001h-.003zM506.755 499.045c3.06 9.596 14.13 10.58 22.36 13.15 3.212 1.06 11.693 7.007 5.133.857l.133.148c-6.921-8.79-20.779-5.376-27.626-14.155z" class="primary"/><path d="M518 508.673c-2.369-.044-4.754.09-7.082.544l.085-.018c-5.718 1.143-3.926 1.621.696 1.666 2.271-.035 4.429-.974 6.301-2.192zM534.246 515.97c-4.908 2.254-10.198 3.204-15.528 3.844-3.364-1.705-6.847-3.175-10.285-4.729 3.111 2.933 6.108 7.242 10.314 8.417 5.79-.816 11.802-2.735 15.499-7.532zM375.653 265.552c.208.707.583 1.347 1.014 1.94l-.023-.036c1.14 1.652 1.828 3.58 2.975 5.222.127-3.04-1.206-5.75-3.966-7.126zm1.316 2.392l.041.064-.04-.064zm.06.092l.025.04-.025-.04z" class="primary"/><path d="M369.542 262.462c-15.22-1.866-9.252 16.267 3.275 10.776 1.397-.402 2.801-1.203 4.28-.876-.746-.573-1.662-.746-2.586-.72-3.476.104-7.514.51-9.82-2.689-1.422-6.322 8.879-3.517 11.843-1.636-1.993-2.025-4.204-4.024-6.992-4.855zm5.516 10.032l-.096.032.096-.032z" class="primary"/><path d="M369.778 263.115c-9.528.177-6.885 11.205 3.059 9.492 1.866-.275 3.727-.495 5.45.461-1.594-2.425-4.6-2.33-7.145-2.9-7.465-1.543-2.648-6.883 2.517-4.707 3.041 1.43-2.06-3.036-3.881-2.346z" class="primary"/></g><path fill="#0c5207" d="M417.122 79.57c-.314-.832-1.392-1.987-2.421-2.594l-1.856-1.095 1.473-.62c1.642-.69 3.653-2.978 3.653-4.156 0-.422.515.208 1.145 1.399s1.855 2.546 2.721 3.01l1.576.846-1.741.938c-.958.516-2.118 1.575-2.578 2.354-1.052 1.78-1.272 1.771-1.972-.082zM181.034 211.843c-.314-.832-1.392-1.986-2.422-2.594l-1.855-1.095 1.472-.619c1.642-.69 3.653-2.979 3.653-4.157 0-.421.515.208 1.145 1.4.63 1.19 1.855 2.545 2.722 3.01l1.576.845-1.742.938c-.957.516-2.118 1.575-2.578 2.354-1.051 1.78-1.272 1.771-1.971-.082zM515.683 26.396c-.282-.748-1.252-1.788-2.18-2.334l-1.67-.986 1.326-.557c1.478-.621 3.288-2.681 3.288-3.742 0-.379.464.188 1.03 1.26.567 1.072 1.67 2.291 2.45 2.71l1.418.76-1.567.844c-.862.464-1.906 1.418-2.32 2.12-.947 1.601-1.145 1.593-1.775-.075zM43.604 76.594c-.314-.832-1.392-1.987-2.422-2.594l-1.856-1.095 1.473-.62c1.642-.69 3.653-2.978 3.653-4.156 0-.422.515.208 1.145 1.399s1.855 2.546 2.721 3.01l1.576.846-1.74.938c-.959.516-2.119 1.575-2.579 2.354-1.051 1.78-1.272 1.771-1.971-.082zM610.254 68.942c-.435-1.133.022-3.249.73-3.383.823-.156 1.337 1.426.957 2.942-.272 1.085-1.333 1.363-1.687.44zm-5.114-4.712c-.574-.334-.627-.543-.252-.994.669-.807 3.551-.752 3.868.073.464 1.207-2.03 1.843-3.616.92zm8.304-.6c-.44-1.147 2.07-1.874 3.45-1 1.081.684.165 1.644-1.568 1.644-1.128 0-1.712-.2-1.882-.644zm-3.19-2.739c-.435-1.133.022-3.248.73-3.383.823-.155 1.337 1.427.957 2.942-.272 1.086-1.333 1.363-1.687.441zM312.011 43.64c-.435-1.133.023-3.248.731-3.382.823-.156 1.337 1.426.956 2.941-.272 1.086-1.333 1.363-1.687.441zm-5.113-4.712c-.574-.334-.628-.543-.253-.994.67-.807 3.552-.752 3.868.073.464 1.208-2.03 1.843-3.615.921zm8.303-.6c-.44-1.146 2.07-1.874 3.451-1 1.08.684.165 1.645-1.568 1.645-1.128 0-1.712-.2-1.883-.645zm-3.19-2.738c-.435-1.133.023-3.249.731-3.383.823-.156 1.337 1.426.956 2.942-.272 1.085-1.333 1.362-1.687.44zM589.696 180.901c-.434-1.133.023-3.248.731-3.382.823-.156 1.337 1.426.956 2.942-.272 1.085-1.333 1.362-1.687.44zm-5.113-4.712c-.574-.334-.627-.543-.253-.994.67-.806 3.552-.752 3.868.073.464 1.208-2.03 1.843-3.615.921zm8.303-.6c-.44-1.146 2.07-1.874 3.451-1 1.08.684.165 1.645-1.568 1.645-1.128 0-1.712-.2-1.883-.644zm-3.19-2.738c-.434-1.133.023-3.249.731-3.383.823-.156 1.337 1.426.956 2.942-.272 1.085-1.333 1.363-1.687.44zM133.907 110.908l4.985 1.432a.494.494 0 01.318.673l-4.627 10.606 10.34-11.658-5.042-1.375a.494.494 0 01-.323-.678l4.616-10.424zm-1.029 15.875a.495.495 0 01-.454-.693l5.651-12.954-5.202-1.495a.495.495 0 01-.231-.807l12.877-14.33a.496.496 0 01.821.531l-5.644 12.747 5.255 1.433a.495.495 0 01.24.806l-12.943 14.595a.495.495 0 01-.37.167M610.851 278.08l4.985 1.433a.494.494 0 01.318.674l-4.627 10.605 10.34-11.658-5.042-1.375a.494.494 0 01-.323-.678l4.616-10.424zm-1.03 15.876a.495.495 0 01-.454-.693l5.652-12.954-5.202-1.495a.495.495 0 01-.231-.807l12.877-14.33a.496.496 0 01.821.531l-5.644 12.747 5.255 1.433a.495.495 0 01.24.807l-12.943 14.594a.495.495 0 01-.37.167M55.32 219.01H52.8a.887.887 0 110-1.775h2.52a.887.887 0 110 1.775M65.626 219.01h-5.982a.888.888 0 010-1.775h5.982a.887.887 0 110 1.775M199.9 33.859h-8.823a.888.888 0 010-1.775h8.823a.888.888 0 010 1.775M205.243 33.859h-2.004a.888.888 0 010-1.775h2.004a.888.888 0 010 1.775M201.717 28.773h-7.405a.888.888 0 010-1.774h7.405a.888.888 0 010 1.774M63.4 224.095h-5.455a.888.888 0 010-1.775h5.456a.888.888 0 010 1.775M54.72 224.095H52.8a.887.887 0 110-1.775h1.92a.888.888 0 010 1.775M49.452 224.095h-1.301a.888.888 0 010-1.775h1.301a.888.888 0 010 1.775M510.064 280.058c-.169-.169-.307-1.061-.307-1.983v-1.677h-1.968c-1.64 0-1.968-.138-1.968-.828 0-.942.815-1.358 2.66-1.358 1.194 0 1.276-.111 1.276-1.724 0-.948.206-1.85.457-2.006.797-.492 1.73.722 1.73 2.252 0 1.387.09 1.478 1.477 1.478 1.53 0 2.745.933 2.252 1.73-.155.25-1.046.456-1.98.456-1.685 0-1.7.015-1.833 1.855-.129 1.771-.977 2.624-1.796 1.805z" class="darkest"/></svg>