<?xml version="1.0" encoding="UTF-8" standalone="no"?>
<!-- Created with Inkscape (http://www.inkscape.org/) -->

<svg
   width="128.57143"
   height="20"
   viewBox="0 0 128.57142 20"
   version="1.1"
   id="svg385"
   sodipodi:docname="ant-footer.svg"
   inkscape:version="1.2.1 (9c6d41e4, 2022-07-14)"
   xmlns:inkscape="http://www.inkscape.org/namespaces/inkscape"
   xmlns:sodipodi="http://sodipodi.sourceforge.net/DTD/sodipodi-0.dtd"
   xmlns="http://www.w3.org/2000/svg"
   xmlns:svg="http://www.w3.org/2000/svg">
  <sodipodi:namedview
     id="namedview387"
     pagecolor="#ffffff"
     bordercolor="#666666"
     borderopacity="1.0"
     inkscape:showpageshadow="2"
     inkscape:pageopacity="0.0"
     inkscape:pagecheckerboard="true"
     inkscape:deskcolor="#d1d1d1"
     inkscape:document-units="mm"
     showgrid="false"
     inkscape:zoom="13.455443"
     inkscape:cx="46.486763"
     inkscape:cy="11.185064"
     inkscape:window-width="1888"
     inkscape:window-height="771"
     inkscape:window-x="874"
     inkscape:window-y="457"
     inkscape:window-maximized="0"
     inkscape:current-layer="layer1" />
  <defs
     id="defs382" />
  <g
     inkscape:label="Layer 1"
     inkscape:groupmode="layer"
     id="layer1">
    <g
       id="g782"
       style="fill:#303846;fill-opacity:1"
       transform="matrix(1.4869951,0,0,1.4869951,-1.1420713,-2.304927)">
      <path
         style="fill:#303846;fill-opacity:1;stroke-width:0.0534338"
         d="m 0.8972747,6.643168 c 0.141973,-0.289931 0.378364,-0.405508 0.64393,-0.475881 0.80701,-0.214002 1.617761,-0.195247 2.430755,-0.03452 0.452531,0.08945 0.903726,0.190385 1.35989,0.25536 0.268504,0.03821 0.545986,0.0081 0.818712,0.02255 0.7804528,0.04125 1.5533728,0.121829 2.2612098,0.496987 0.01106,0.0059 0.03372,-0.0101 0.07641,-0.02442 C 8.2040205,6.517437 7.8251225,6.338166 7.3981865,6.240276 6.4866595,6.031243 5.5802097,5.792768 4.6602937,5.630971 c -0.450019,-0.07914 -0.925419,-0.01373 -1.414017,-0.01373 0.12247,-0.06102 0.251512,-0.175744 0.385898,-0.182423 0.340641,-0.01688 0.688387,-0.01678 1.024806,0.03334 0.710776,0.105798 1.414713,0.256535 2.1241528,0.37254 0.661136,0.108096 1.190397,0.47011 1.715224,0.846978 0.06978,0.05012 0.137217,0.103609 0.151377,0.114295 0.418547,-0.190331 0.783393,-0.428432 1.181261,-0.515208 0.3396775,-0.07406 0.7297435,-0.02479 1.0750325,0.06081 0.464767,0.115203 0.715211,0.462362 0.733646,0.955609 0.0027,0.07315 0.01598,0.145874 0.03286,0.292924 0.131981,-0.112371 0.230887,-0.176866 0.304839,-0.262787 0.390975,-0.454348 0.849918,-0.58339 1.421338,-0.362068 0.530277,0.2054 1.016845,0.455737 1.383401,0.959083 0.02853,-0.267703 0.04291,-0.538025 0.09153,-0.802041 0.02458,-0.133638 0.111036,-0.255841 0.169546,-0.383227 0.05514,0.12947 0.142561,0.254986 0.158912,0.389158 0.03826,0.314137 0.04243,0.632389 0.06198,0.976182 0.125195,0.03211 0.25007,0.06412 0.401127,0.10286 0.04002,-0.207804 0.0739,-0.393647 0.112051,-0.578581 0.03046,-0.147424 0.07027,-0.275665 0.270428,-0.271069 0.205132,0.0046 0.334496,0.08603 0.367892,0.288275 0.04526,0.274435 0.07849,0.550848 0.118729,0.826139 0.0066,0.0451 0.02255,0.08886 0.05514,0.213414 0.05156,-0.12792 0.08191,-0.187285 0.09987,-0.25023 0.179217,-0.62806 0.346251,-1.259808 0.539521,-1.883433 0.06727,-0.217048 0.203422,-0.411921 0.298213,-0.621435 0.121669,-0.268878 0.31713,-0.273474 0.510827,-0.11734 0.311519,0.251192 0.600649,0.530116 0.92387,0.819407 0.293458,-0.161958 0.55181,-0.0179 0.752401,0.249749 0.229925,0.306817 0.433134,0.633511 0.65451,0.9469 0.05819,0.08239 0.128829,0.167728 0.213681,0.217902 1.303571,0.770034 2.036949,1.866656 1.989981,3.42254 -0.0032,0.106974 0.02805,0.230994 0.08459,0.32119 0.362334,0.578527 0.718523,1.162184 1.111101,1.71998 0.403746,0.573664 0.978479,0.841688 1.68637,0.810269 0.154049,-0.0068 0.308632,-10e-4 0.444888,0.02987 -0.213145,0.05739 -0.423462,0.140637 -0.640296,0.164041 -0.174407,0.01881 -0.374143,0.0053 -0.5322,-0.06364 -0.51259,-0.223621 -0.998677,-0.483362 -1.2877,-1.011288 -0.211811,-0.386967 -0.473103,-0.74695 -0.714409,-1.11762 -0.08197,-0.125943 -0.17024,-0.247719 -0.277909,-0.403639 -0.287153,0.628702 -0.788042,0.750584 -1.380088,0.720929 -1.201084,-0.06011 -2.255332,-0.475721 -3.124539,-1.304532 -0.237727,-0.226666 -0.431104,-0.19824 -0.673212,-0.08068 -0.05878,0.02853 -0.121135,0.04985 -0.202728,0.08293 0.08282,0.61716 0.163988,1.234854 0.249108,1.852068 0.05498,0.398829 0.08143,0.806315 0.186912,1.191786 0.06257,0.228643 0.25397,0.422074 0.375692,0.612832 -0.05568,-0.03382 -0.189209,-0.07411 -0.254558,-0.163935 -0.105371,-0.144859 -0.203048,-0.314618 -0.238902,-0.487369 -0.180126,-0.868566 -0.339625,-1.74146 -0.505003,-2.613125 -0.02127,-0.111997 -0.03457,-0.225544 -0.04419,-0.289183 -0.270428,-0.07817 -0.504521,-0.147798 -0.740111,-0.211919 -0.03933,-0.01069 -0.08918,-0.0076 -0.127493,0.0067 -0.628808,0.236551 -1.079949,0.0661 -1.254838,-0.575001 -0.144912,-0.531132 -0.57265,-0.880909 -0.75037,-1.377843 -0.0065,-0.01811 -0.04424,-0.02506 -0.12728,-0.0685 0.03398,0.113653 0.04793,0.178255 0.07224,0.238688 0.147156,0.365113 0.305107,0.726272 0.439012,1.096141 0.03035,0.08389 0.01362,0.234093 -0.04318,0.285496 -0.0498,0.0451 -0.212399,0.02992 -0.280153,-0.01988 C 13.63555,10.536697 13.252911,10.247193 12.890363,9.935193 12.60492,9.689558 12.388887,9.347101 11.944639,9.329147 c -0.05365,0.374571 -0.07946,0.739256 -0.162225,1.090583 -0.134333,0.569978 -0.305,1.13146 -0.463485,1.695667 -0.01523,0.05413 -0.04248,0.112372 -0.08154,0.151165 -0.487209,0.48411 -0.500728,1.141558 -0.656701,1.749635 -0.05814,0.226719 -0.151004,0.457713 -0.282558,0.649327 -0.192682,0.280741 -0.3859515,0.286191 -0.7042035,0.130111 -0.112211,-0.05504 -0.25536,-0.04702 -0.423195,-0.07406 -0.0041,-0.125409 0.09164,-0.197117 0.264657,-0.167355 0.102754,0.01763 0.202835,0.09714 0.299977,0.09025 0.149401,-0.01058 0.3696015,-0.02549 0.4281645,-0.120066 0.157256,-0.254024 0.292123,-0.541925 0.349511,-0.833353 0.09917,-0.503827 0.10863,-1.007173 0.376601,-1.490374 0.205399,-0.370457 0.205239,-0.852429 0.311144,-1.281182 0.124448,-0.503773 0.254986,-1.006585 0.403105,-1.503732 0.05653,-0.189797 0.17772,-0.359449 0.251993,-0.545292 0.03046,-0.0762 0.0148,-0.170828 0.02009,-0.25707 -0.105853,0.03067 -0.260437,0.0288 -0.307298,0.09885 -0.09335,0.139622 -0.109112,0.32851 -0.189423,0.479781 -0.249375,0.46979 -0.513979,0.931458 -0.772919,1.396171 -0.0045,0.0081 -0.01175,0.01838 -0.01966,0.02052 -0.480583,0.132676 -0.435218,0.564581 -0.539307,0.921518 -0.1309115,0.448897 -0.3365785,0.861139 -0.7385075,1.139742 -0.247291,0.171416 -0.493354,0.236712 -0.776285,0.05456 -0.0933,-0.06006 -0.238422,-0.03959 -0.366182,-0.0568 0.01202,-0.189957 0.09714,-0.244566 0.308046,-0.124714 0.166873,0.09479 0.313335,0.238475 0.523063,0.105799 0.265779,-0.16821 0.54791,-0.311466 0.646121,-0.654457 0.113333,-0.395784 0.160835,-0.852963 0.3960505,-1.162665 0.522475,-0.688067 0.575054,-1.583296 1.138353,-2.235669 -0.02052,-0.01961 -0.04104,-0.03922 -0.06156,-0.05878 -0.185629,0.09987 -0.369708,0.202674 -0.557154,0.298962 -0.547749,0.281329 -1.0930935,0.408608 -1.7422605,0.333106 -0.523491,-0.06092 -1.071347,0.182957 -1.412628,0.684005 -0.04916,0.07214 -0.128081,0.123913 -0.19327,0.185148 -0.05851,-0.07962 -0.162813,-0.157095 -0.16666,-0.239276 -0.01,-0.214643 -0.009,-0.440828 0.04969,-0.644571 0.05846,-0.203102 0.162546,-0.411173 0.302275,-0.5672 0.11734,-0.131019 0.314832,-0.190224 0.420844,-0.249803 0.04676,-0.194018 0.07224,-0.371418 0.13476,-0.534658 0.04339,-0.113333 0.133317,-0.210582 0.210102,-0.309114 C 8.4649735,7.105179 8.4679655,7.028501 7.9818785,6.888612 7.5539275,6.765447 7.0938635,6.690266 6.6499885,6.698548 5.5366967,6.719338 4.4497467,6.555612 3.3702777,6.324672 c -0.77527,-0.165859 -1.508381,-0.07069 -2.221989,0.25178 -0.05242,0.02372 -0.104143,0.04932 -0.15763,0.07032 -0.0155,0.006 -0.03612,-8.62e-4 -0.0934,-0.0036 z M 17.978605,6.062931 C 17.670132,6.632428 17.593989,7.232489 17.466604,7.842703 17.778068,7.736744 18.07655,7.688493 18.309253,7.538344 18.481363,7.427309 18.707388,7.139034 18.665444,7.007426 18.553447,6.655725 18.360497,6.307017 17.978605,6.062931 Z m 1.495504,0.890848 C 19.273786,7.169812 19.288213,7.199628 19.688753,7.430248 19.609083,7.253275 19.549025,7.120065 19.474109,6.953779 Z"
         id="path144" />
      <path
         style="fill:#303846;fill-opacity:1;stroke-width:0.0541719"
         d="m 32.13877,8.4853826 c 0.978456,-1.007147 2.296863,-0.977783 3.47798,-1.32139 0.204085,-0.05942 0.428449,-0.04575 0.637611,-0.09209 0.132758,-0.02945 0.253464,-0.110496 0.381794,-0.162913 0.345687,-0.141019 0.682537,-0.328816 1.042412,-0.401118 0.243935,-0.04897 0.520787,0.06608 0.79718,0.110032 -0.137392,0.15957 -0.226834,0.26027 -0.312765,0.363832 -0.307556,0.370663 -0.613894,0.712101 -1.145127,0.792899 -0.572692,0.08709 -1.107683,0.315278 -1.584834,0.659169 -0.320656,0.231073 -0.533276,0.533553 -0.608065,0.923134 -0.01778,0.09274 0.0021,0.192771 0.05163,0.313677 0.309271,-0.589855 0.650056,-1.125438 1.283493,-1.401211 0.594776,-0.258942 1.204015,-0.420076 1.929255,-0.37915 -0.09683,0.229635 -0.154076,0.469998 -0.28582,0.658237 -0.397744,0.568284 -0.524325,1.179602 -0.300871,1.7277744 0.168044,-0.102255 0.329627,-0.209359 0.499113,-0.3019634 0.366977,-0.200534 0.753355,-0.303078 1.175423,-0.369526 0.936791,-0.147567 1.847572,-0.421588 2.612525,-1.024343 0.141477,-0.111468 0.25101,-0.280751 0.335181,-0.444006 0.152302,-0.295303 0.514356,-0.430126 0.802103,-0.259926 0.129278,0.0765 0.238253,0.187074 0.366748,0.265235 0.118391,0.07202 0.250563,0.121378 0.331415,0.159365 0.08063,0.256877 0.153266,0.488273 0.234141,0.745924 -0.175302,0.02794 -0.382762,0.06053 -0.590101,0.09422 -0.448445,0.07285 -0.791599,0.254497 -0.931229,0.740852 -0.233991,0.8150254 -0.490767,1.6240334 -0.758996,2.4285704 -0.25761,0.772702 -0.521447,1.544746 -0.826556,2.299257 -0.74144,0.592114 -0.133491,0.534895 0.419211,-0.342348 0.120227,-0.368187 0.192528,-0.753579 0.331564,-1.113759 0.186336,-0.482622 0.448201,-0.93717 0.619828,-1.424145 0.215165,-0.610734 0.371722,-1.242134 0.562203,-1.8940624 0.0388,-1.37e-4 0.157106,-5.41e-4 0.304066,-0.0011 -0.120292,0.4906214 0.194482,0.8165704 0.402428,1.1594184 0.34544,0.569611 0.752258,1.101958 1.132854,1.650257 0.01596,0.02309 0.03826,0.04733 0.04136,0.07298 0.06028,0.493952 0.402077,0.818236 0.693535,1.177339 0.380808,1.76701 0.659634,0.651696 0.120828,-0.170168 -0.214,-0.297568 -0.41705,-0.605103 -0.597821,-0.923606 -0.07776,-0.137011 -0.136459,-0.331276 0.128097,-0.373324 -0.265967,-0.373579 -0.523639,-0.750044 -0.796833,-1.114994 -0.275971,-0.368733 -0.567306,-0.726002 -0.866386,-1.106673 0.12024,-0.190703 0.29483,-0.2608924 0.538749,-0.18745 0.475959,0.143403 0.953866,0.159524 1.413053,-0.05547 0.264699,-0.123907 0.530751,-0.263578 0.578343,-0.605046 0.0047,-0.03448 0.0291,-0.07244 0.0554,-0.09682 0.234099,-0.217415 0.165038,-0.435795 -0.05237,-0.695559 0.185594,0.06001 0.306468,0.09906 0.405756,0.131204 0.06849,0.327062 0.148556,0.636975 0.189224,0.951933 0.01099,0.0853 -0.07657,0.212596 -0.155269,0.273919 -0.147465,0.114819 -0.320142,0.197979 -0.484863,0.289655 -0.14017,0.07801 -0.295267,0.133788 -0.424352,0.226489 -0.680694,0.488982 -0.702719,0.55466 -0.450782,1.350584 0.108358,0.342312 0.200101,0.696823 0.362417,1.01351 0.230762,0.450264 0.49165,0.891241 0.790789,1.298693 0.260787,1.149582 0.618271,0.58668 0.187616,0.07334 -0.18901,-0.285598 -0.292798,-0.630536 -0.417017,-0.955548 -0.23183,-0.606692 -0.450496,-1.218481 -0.702981,-1.905276 0.120596,-0.04359 0.288201,-0.137304 0.465476,-0.162403 0.661226,-0.09355 1.188558,-0.51815 1.165853,-1.115765 -0.01705,-0.450119 0.341343,-0.722108 0.360907,-1.126093 9.66e-4,-0.02005 0.05705,-0.03749 0.117389,-0.07444 0.0501,0.137462 0.09036,0.25865 0.1382,0.376777 0.114024,0.281314 0.280897,0.488976 0.625855,0.47949 0.08714,-0.0024 0.178412,0.04853 0.26352,0.08507 0.269392,0.115697 0.437653,0.0371 0.507122,-0.248775 0.02222,-0.09146 0.02677,-0.187139 0.04049,-0.280703 0.01363,-0.09297 0.02869,-0.185699 0.05121,-0.33068 0.185174,0.232863 0.331915,0.446391 0.508277,0.631827 0.219711,0.231105 0.465232,0.437531 0.69663,0.657757 0.08048,0.0766 0.163298,0.154847 0.22559,0.24567 0.176266,0.25712 0.320196,0.539834 0.519416,0.776748 0.170522,0.202826 0.410064,0.345889 0.600408,0.534263 0.198882,0.196764 0.390022,0.405041 0.559083,0.627631 0.484192,0.637398 0.94398,1.293644 1.438463,1.922761 0.159739,0.203201 0.384896,0.363387 0.602102,0.510906 0.270017,0.183349 0.505945,0.148126 0.702442,-0.05993 -0.630677,-0.0497 -1.062658,-0.460534 -1.41323,-0.903227 -0.619496,-0.782295 -1.165581,-1.622837 -1.740201,-2.440512 -0.106209,-0.151133 -0.202262,-0.309371 -0.316301,-0.484733 0.424064,0.164746 0.813134,0.328895 1.211155,0.467294 0.501031,0.174256 1.018711,0.187033 1.540779,0.109235 0.09232,-0.01376 0.188004,-0.02239 0.280377,-0.01409 0.19691,0.01774 0.278984,-0.04203 0.307162,-0.259766 0.02543,-0.196655 0.148855,-0.380637 0.237043,-0.589155 0.06797,0.02318 0.135963,0.04715 0.204462,0.06947 0.06264,0.02048 0.138848,0.07207 0.186572,0.05317 0.228956,-0.09072 0.452554,-0.196329 0.671619,-0.309157 0.02952,-0.0152 0.04886,-0.122705 0.0269,-0.149083 -0.03634,-0.04361 -0.127131,-0.09245 -0.165203,-0.07481 -0.132821,0.06145 -0.284702,0.125479 -0.370426,0.23477 -0.131782,0.168038 -0.258579,0.142314 -0.422736,0.08602 -0.190299,-0.06523 -0.109529,-0.192107 -0.11064,-0.320815 -0.0026,-0.308445 0.01994,-0.633255 -0.06637,-0.921963 C 54.434134,8.325436 53.873429,7.488063 52.986093,6.948819 52.439745,6.616807 52.09911,6.156746 51.775789,5.643498 51.575161,5.32504 51.341511,5.024386 51.098091,4.736563 50.65855,4.216814 50.327017,4.240311 49.970758,4.823903 c -0.221107,0.362266 -0.394999,0.753033 -0.601944,1.124423 -0.07562,0.1357 -0.171167,0.267042 -0.282371,0.374739 -0.263743,0.255561 -0.421198,0.550551 -0.433409,0.923156 -0.0024,0.07423 -0.05711,0.146754 -0.08767,0.220111 -0.05908,-0.06049 -0.118895,-0.120294 -0.177148,-0.181612 -0.09681,-0.101847 -0.192609,-0.204638 -0.288794,-0.307023 -0.08225,0.106956 -0.166844,0.212259 -0.246055,0.321494 -0.06118,0.08439 -0.115604,0.173635 -0.17299,0.26069 C 47.612767,7.476351 47.524425,7.402388 47.480601,7.307812 46.841021,5.92685 45.234892,5.362156 43.931144,5.64177 43.608205,5.71109 43.288522,5.802361 42.974828,5.906201 42.570794,6.039508 42.287584,6.322403 42.070662,6.684437 42.005492,6.793163 41.892613,6.873302 41.784804,6.983676 41.401028,6.127335 40.801194,5.822268 39.945257,6.059376 39.551342,6.168483 39.184646,6.373892 38.80104,6.52398 38.72717,6.55273 38.627356,6.5446 38.547629,6.523222 38.301982,6.457302 38.06435,6.34112 37.815786,6.312396 c -0.226058,-0.02613 -0.497968,-0.02992 -0.688083,0.07165 -0.83441,0.445881 -1.761724,0.549289 -2.650723,0.79648 -0.60647,0.168323 -1.197753,0.40366 -1.777175,0.652549 -0.342591,0.146901 -0.480954,0.35656 -0.561045,0.652194 z m 19.417144,-2.290232 c -0.01552,0.02889 -0.03097,0.05776 -0.0465,0.08665 -0.453066,-0.08513 -0.906131,-0.17025 -1.431432,-0.268981 0.168115,-0.408996 0.303187,-0.757201 0.457231,-1.096882 0.03311,-0.07302 0.139457,-0.164029 0.203321,-0.157732 0.06484,0.0064 0.133778,0.114886 0.174937,0.19247 0.136417,0.257139 0.258957,0.521641 0.391046,0.781103 0.07974,0.156545 0.167299,0.309048 0.251398,0.463374 z"
         id="path136"
         sodipodi:nodetypes="ccccccsccccscccccsccscccsscccccccccccscccccccccccscscccccccsccscssccscccccccssccscccccscccccsscccscccccccccccccccscccccsccssscss" />
      <g
         id="g148"
         transform="matrix(0.05916602,0.00452467,-0.00452467,0.05916602,-23.765608,-18.642834)"
         style="fill:#303846;fill-opacity:1">
	<path
   style="fill:#303846;fill-opacity:1"
   d="m 1477.38,336.389 c 1.515,-0.515 3.022,-1.057 4.547,-1.541 7.325,-2.326 14.764,-4.341 21.961,-7.012 16.889,-6.268 33.142,-14.015 49.052,-22.42 10.179,-5.378 20.035,-11.372 29.992,-17.164 2.882,-1.677 3.59,-1.531 6.013,0.821 4.198,4.074 8.579,7.96 13.051,12.079 3.386,-3.905 7.327,-8.476 11.31,-13.01 0.52,-0.591 1.304,-1.421 1.881,-1.358 0.575,0.063 1.223,1.03 1.531,1.736 3.244,7.413 6.425,14.854 9.629,22.285 0.109,0.254 0.266,0.487 0.18,0.332 1.005,-1.932 1.891,-4.085 3.196,-5.944 0.599,-0.854 2.029,-1.112 3.062,-1.678 0.628,-0.343 1.317,-0.659 1.806,-1.157 1.688,-1.721 3.336,-3.485 4.921,-5.301 0.536,-0.615 1,-1.387 1.224,-2.165 2.356,-8.157 4.635,-16.336 6.992,-24.492 0.407,-1.41 0.839,-2.93 1.706,-4.053 0.649,-0.841 2.118,-1.716 3.049,-1.558 4.415,0.748 9.056,1.19 13.09,2.95 9.266,4.044 18.299,8.647 27.271,13.322 3.481,1.814 6.542,4.434 9.796,6.687 3.625,-9.715 9.991,-17.974 15.378,-26.79 1.027,-1.68 2.412,-3.183 3.846,-4.541 0.347,-0.329 1.945,-0.036 2.289,0.451 1.606,2.272 3.495,4.544 4.329,7.125 2.294,7.1 4.06,14.368 6.133,21.541 1.205,4.17 2.599,8.285 4.013,12.757 4.541,-3.674 9.246,-5.88 14.721,-6.029 6.072,-0.165 9.819,3.197 12.668,8.353 0.268,-1.641 0.551,-3.279 0.802,-4.923 0.554,-3.633 2.448,-4.947 6.037,-4.074 1.262,0.307 2.48,0.797 3.868,1.252 -0.193,-6.592 2.348,-12.112 5.604,-17.443 0.868,-1.422 1.265,-3.159 1.734,-4.793 5.333,-18.599 11.837,-36.787 19.061,-54.727 0.96,-2.385 1.671,-4.894 2.854,-7.159 1.091,-2.088 2.662,-3.926 4.021,-5.874 h 0.469 c 1.657,0.942 3.451,1.71 4.933,2.875 1.433,1.127 2.831,2.492 3.754,4.045 7.484,12.58 15.082,25.103 22.135,37.924 2.579,4.687 5.768,7.214 10.869,8.846 18.016,5.766 31.406,17.497 40.718,33.838 1.778,3.12 2.838,6.715 3.811,10.208 0.932,3.346 -0.475,6.261 -2.771,8.746 -3.658,3.962 -8.484,5.995 -13.311,8.005 -2.361,0.983 -4.779,1.831 -7.59,2.9 0.783,1.376 1.358,2.694 2.204,3.806 1.698,2.23 3.381,4.514 5.373,6.466 2.153,2.109 4.739,3.77 6.98,5.798 3.292,2.98 6.513,6.047 9.623,9.217 1.069,1.089 2.264,2.47 0.846,4.714 -0.747,-1.354 -1.203,-2.579 -1.995,-3.519 -1.04,-1.235 -2.35,-2.242 -3.533,-3.358 -0.326,-0.308 -0.58,-0.696 -0.923,-0.98 -1.686,-1.394 -3.402,-2.752 -5.084,-4.15 -1.074,-0.893 -1.972,-2.32 -3.185,-2.655 -2.814,-0.779 -3.569,-3.214 -5.013,-5.148 -2.368,-3.171 -4.824,-6.276 -7.016,-9.115 -8.551,1.639 -16.985,3.256 -25.59,4.906 0.365,0.783 0.816,1.826 1.329,2.837 3.172,6.25 6.352,12.496 9.55,18.732 0.353,0.689 0.699,1.495 1.284,1.933 3.897,2.924 3.286,7.086 3.13,11.102 -0.411,10.589 -0.953,21.173 -1.273,31.765 -0.124,4.112 0.181,8.24 0.368,12.357 0.029,0.638 0.356,1.342 0.744,1.87 19.1464,24.61186 10.4573,16.91621 5.63,11.501 -0.332,-0.241 -0.578,-0.638 -0.785,-1.007 -2.076,-3.705 -3.605,-7.776 -7.185,-10.47 -0.331,-0.249 -0.37,-1.01 -0.384,-1.538 -0.117,-4.44 -0.347,-8.884 -0.256,-13.321 0.222,-10.84 0.638,-21.675 0.845,-32.515 0.019,-1.019 -0.801,-2.105 -1.374,-3.076 -2.284,-3.875 -4.675,-7.687 -6.931,-11.578 -3.043,-5.247 -6.119,-10.483 -8.934,-15.852 -1.202,-2.292 -2.553,-3.185 -5.22,-3.063 -13.792,0.632 -26.195,-3.765 -37.78,-10.899 -1.053,-0.648 -2.119,-1.275 -3.049,-1.834 -3.924,5.29 -7.855,10.415 -11.594,15.678 -3.758,5.288 -5.932,6.265 -12.701,3.25 -2.648,-1.18 -4.939,-3.16 -7.56,-4.887 -1.176,1.17 -1.886,2.61 -1.401,4.835 2.172,9.963 4.055,19.989 6.257,29.945 0.639,2.887 0.635,5.255 -0.461,8.216 -1.362,3.681 -1.136,7.962 -1.508,11.993 -0.737,7.989 -1.423,15.983 -2.094,23.978 -0.048,0.567 0.069,1.22 0.321,1.729 1.828,3.701 3.816,7.327 5.54,11.075 1.31,2.849 3.127,5.153 5.651,7.002 1.309,0.959 2.545,2.099 3.542,3.37 0.6,0.765 0.68,1.938 0.617,3.121 -3.29,-2.92 -7.055,-4.885 -9.438,-8.879 -3.135,-5.254 -5.843,-10.61 -7.722,-16.379 -0.584,-1.792 -0.693,-3.854 -0.535,-5.752 0.816,-9.78 1.717,-19.555 2.766,-29.313 0.233,-2.171 -0.202,-3.968 -0.906,-5.98 -0.831,-2.374 -0.888,-5.017 -1.293,-7.542 -1.289,-8.043 -2.583,-16.085 -3.967,-24.693 -1.885,1.393 -3.102,2.412 -4.433,3.252 -3.661,2.309 -6.22,2.165 -9.136,-1.083 -2.105,-2.345 -3.722,-5.139 -5.46,-7.797 -0.715,-1.094 -1.177,-2.354 -1.714,-3.457 -2.603,-0.292 -3.781,0.745 -4.115,3.239 -0.167,1.249 -1.129,2.391 -1.731,3.581 -1.261,-0.707 -2.563,-1.353 -3.767,-2.147 -0.627,-0.414 -1.081,-1.089 -1.746,-1.786 -6.796,3.773 -13.836,6.234 -22.047,3.95 -0.853,3.401 -1.615,6.694 -2.509,9.951 -1.973,7.187 -3.821,14.419 -6.149,21.492 -0.634,1.927 -2.826,3.325 -4.231,5.025 -0.451,0.545 -0.829,1.245 -0.975,1.931 -2.171,10.199 -3.918,20.507 -6.575,30.576 -1.616,6.121 -3.938,11.999 -4.456,18.431 -0.25,3.103 -1.397,6.227 -2.644,9.124 -0.855,1.986 -2.584,3.596 -4.211,5.759 -0.19,-0.874 -0.526,-1.547 -0.419,-2.14 0.148,-0.816 0.458,-1.726 0.997,-2.329 3.341,-3.746 4.488,-8.313 4.909,-13.099 0.818,-9.307 4.429,-17.924 6.479,-26.923 1.47,-6.453 3.532,-12.857 4.155,-19.395 0.933,-9.791 4.278,-18.763 7.476,-27.867 1.337,-3.805 2.206,-7.774 3.323,-11.793 -3.628,-2.162 -7.196,-4.288 -11.008,-6.56 -0.159,1.839 -0.178,3.445 -0.454,5.006 -1.26,7.139 -5.469,12.484 -10.794,17.014 -9.038,7.69 -19.5,12.824 -30.755,16.332 -2.308,0.719 -4.919,0.424 -7.37,0.754 -0.828,0.111 -1.894,0.492 -2.337,1.115 -4.278,6.018 -9.788,10.414 -16.681,13.061 -0.777,0.298 -1.607,0.456 -3.091,0.867 2.988,-3.064 5.736,-5.601 5.269,-9.659 -0.06,-0.524 -0.967,-0.951 -1.56,-1.495 0.99,-2.153 4.678,-3.716 2.871,-7.689 2.29,-2.533 2.27,-3.019 0.233,-6.179 -1.085,-1.683 -1.904,-3.537 -3.053,-5.711 -0.406,1.215 -0.806,2.104 -0.993,3.037 -0.37,1.843 -0.055,3.698 -2.092,5.168 -0.991,0.715 -0.808,3.15 -1.02,4.824 -0.193,1.525 0.028,2.905 -0.858,4.541 -0.961,1.776 -0.416,4.375 -0.489,6.617 -0.014,0.437 0.148,0.88 0.307,1.747 -5.724,-12.08 -5.425,-24.365 1.6,-34.308 2.375,-3.361 2.547,-3.24 2.482,-5.641 -8.929,9.84 -17.649,19.686 -32.659,20.683 0.724,-0.929 1.047,-1.594 1.578,-1.955 0.552,-0.375 1.306,-0.642 1.969,-0.637 7.553,0.054 12.484,-5.556 18.612,-8.568 0.321,-0.158 0.542,-0.545 0.774,-0.851 2.715,-3.581 5.383,-7.199 8.143,-10.746 4.293,-5.516 4.023,-3.879 -0.151,-8.241 -5.125,-5.356 -10.359,-10.608 -15.552,-15.9 -0.536,-0.546 -1.11,-1.054 -1.19,-1.129 -3.646,3.362 -7.226,6.596 -10.733,9.909 -14.679,13.866 -29.068,28.056 -45.249,40.234 -4.423,3.329 -8.801,6.719 -13.246,10.018 -0.986,0.732 -2.129,1.304 -3.28,1.74 -0.505,0.191 -1.208,-0.143 -1.822,-0.238 0.126,-0.634 0.093,-1.372 0.421,-1.875 0.362,-0.555 0.997,-1.019 1.614,-1.306 9.178,-4.267 16.559,-11.049 24.276,-17.348 16.099,-13.141 30.846,-27.733 45.384,-42.544 0.162,-0.165 0.296,-0.358 0.63,-0.767 -5.011,-4.834 -10.027,-9.672 -14.577,-14.062 -10.289,5.852 -20.174,11.935 -30.463,17.231 -23.133,11.906 -46.81,22.624 -71.642,30.57 -1.724,0.552 -3.732,0.215 -5.608,0.292 v -1.411 z m 316.448,-72.765 c 14.288,-8.259 28.948,-12.814 45.461,-10.38 -9.054,-14.69 -17.769,-28.831 -26.898,-43.644 -6.378,18.26 -14.779,35.028 -18.563,54.024 z m -103.048,26.681 c -12.307,-9.543 -24.734,-17.504 -39.614,-21.872 -1.844,8.511 -3.541,16.338 -5.281,24.371 11.966,-3.892 17.3,-1.371 23.053,6.504 1.301,1.781 2.975,3.291 4.67,5.136 3.574,-7.225 9.638,-10.97 17.172,-14.139 z m 15.829,-2.065 c 4.406,0.942 8.728,1.626 12.901,2.825 4.105,1.18 8.06,2.882 12.008,4.328 -3.317,-10.187 -6.676,-20.501 -10.066,-30.913 -7.408,6.726 -9.642,16.195 -14.843,23.76 z m -92.341,2.03 c -3.96,4.624 -7.6,8.874 -10.94,12.775 6.509,6.568 12.959,13.075 19.436,19.61 0.917,-1.92 1.918,-3.922 2.814,-5.969 0.184,-0.42 0.128,-1.077 -0.068,-1.513 -3.687,-8.227 -7.411,-16.437 -11.242,-24.903 z m 172.485,16.543 c -0.894,-0.764 -2.029,-1.733 -3.269,-2.793 -1.196,3.307 -3.757,4.004 -6.573,4.36 -2.983,0.377 -5.956,0.835 -8.818,1.241 -0.747,3.137 0.158,5.486 1.843,7.939 2.164,3.15 4.3,6.195 7.209,8.165 3.214,-6.327 6.366,-12.531 9.608,-18.912 z m -125.911,-7.172 0.618,-0.852 c -0.892,-1.223 -1.546,-3.082 -2.729,-3.522 -1.89,-0.703 -4.136,-0.566 -6.218,-0.48 -0.231,0.01 -0.616,2.925 -0.533,2.946 2.924,0.752 5.896,1.317 8.862,1.908 z m 83.042,1.309 c 1.453,-0.816 2.766,-1.407 3.881,-2.259 0.386,-0.295 0.502,-1.311 0.322,-1.86 -0.132,-0.404 -1.016,-0.902 -1.443,-0.807 -1.24,0.275 -2.493,0.697 -3.593,1.322 -0.621,0.353 -1.46,1.429 -1.303,1.806 0.286,0.688 1.239,1.098 2.136,1.798 z m 27.991,-5.952 c 0.01,-2.282 -1.132,-2.573 -2.319,-2.098 -0.454,0.182 -0.506,1.369 -0.74,2.098 z"
   id="path146"
   sodipodi:nodetypes="ccscccccscccccccccsccsccccsscsccscccccccccccsscscccccccccsccccccccsscccscccccscccccccccscccsscscccccccsccccccccscccssccccsscccccccccccccsccsscsccccscsscssccssccscssccccccccccccccsccccccccccsccccscsccccsccccsccscccccc" />

</g>
    </g>
  </g>
</svg>
