<?xml version="1.0" encoding="UTF-8" standalone="no"?><!--Created with Inkscape (http://www.inkscape.org/)--><svg xmlns="http://www.w3.org/2000/svg" width="128.571" height="20" viewBox="0 0 128.571 20"><path fill="303846" d="M.192 7.573c.211-.43.563-.603.958-.707 1.2-.318 2.405-.29 3.614-.052.673.133 1.344.284 2.022.38.4.057.812.012 1.218.034 1.16.061 2.31.18 3.362.739.017.009.05-.015.114-.037-.423-.544-.986-.81-1.621-.956-1.355-.31-2.703-.665-4.071-.906-.67-.117-1.376-.02-2.103-.02.182-.09.374-.261.574-.271a7.785 7.785 0 011.524.05c1.057.157 2.104.38 3.158.553.984.16 1.77.7 2.551 1.26.104.074.204.154.225.17.622-.283 1.165-.638 1.757-.767.505-.11 1.085-.036 1.598.09.691.172 1.064.688 1.091 1.422.004.109.024.217.049.435.196-.167.343-.263.453-.39.582-.676 1.264-.868 2.114-.539.788.306 1.512.678 2.057 1.426.042-.398.064-.8.136-1.192.037-.199.165-.38.252-.57.082.192.212.38.236.579.057.467.063.94.093 1.451l.596.153c.06-.309.11-.585.167-.86.045-.22.104-.41.402-.403.305.007.497.128.547.428.067.408.117.82.176 1.229.01.067.034.132.082.317.077-.19.122-.278.149-.372.266-.934.515-1.873.802-2.8.1-.323.303-.613.444-.925.18-.4.471-.406.76-.174.462.373.892.788 1.373 1.218.436-.24.82-.026 1.119.372.342.456.644.942.973 1.408.087.122.192.25.318.324 1.938 1.145 3.029 2.775 2.959 5.09a.898.898 0 00.126.477c.538.86 1.068 1.728 1.652 2.557.6.853 1.455 1.252 2.507 1.205.23-.01.46-.001.662.045-.317.085-.63.209-.952.244-.26.027-.556.007-.791-.095-.763-.333-1.485-.719-1.915-1.504-.315-.575-.704-1.11-1.063-1.662-.121-.187-.253-.368-.413-.6-.427.935-1.172 1.116-2.052 1.072-1.786-.09-3.354-.707-4.646-1.94-.354-.337-.641-.295-1.001-.12-.088.043-.18.074-.302.124.123.917.244 1.836.37 2.754.082.593.122 1.199.279 1.772.093.34.377.627.558.911-.083-.05-.281-.11-.378-.244-.157-.215-.302-.468-.355-.724-.268-1.292-.505-2.59-.751-3.886-.032-.167-.052-.336-.066-.43-.402-.116-.75-.22-1.1-.315a.33.33 0 00-.19.01c-.935.351-1.606.098-1.866-.855-.216-.79-.852-1.31-1.116-2.05-.01-.026-.066-.036-.19-.101.051.169.072.265.108.355.219.543.454 1.08.653 1.63.045.125.02.348-.064.424-.074.067-.316.045-.417-.03a27.973 27.973 0 01-1.681-1.315c-.425-.366-.746-.875-1.406-.901-.08.556-.119 1.099-.242 1.621-.2.848-.453 1.683-.689 2.522a.525.525 0 01-.121.224c-.725.72-.745 1.698-.977 2.602-.086.337-.224.68-.42.966-.286.417-.574.425-1.047.193-.167-.082-.38-.07-.63-.11-.005-.186.137-.293.394-.249.153.026.302.145.446.134.223-.015.55-.038.637-.178.234-.378.434-.806.52-1.24.147-.749.161-1.497.56-2.216.305-.55.305-1.267.462-1.905.185-.749.38-1.496.6-2.236.084-.282.264-.534.375-.81.045-.114.022-.255.03-.383-.158.046-.388.043-.458.147-.138.208-.162.489-.281.714-.371.698-.764 1.385-1.15 2.076-.006.012-.017.027-.029.03-.714.198-.647.84-.802 1.37-.194.668-.5 1.281-1.098 1.695-.368.255-.733.352-1.154.081-.139-.089-.355-.058-.545-.084.018-.282.145-.364.458-.185.249.14.466.354.778.157.395-.25.815-.463.96-.973.17-.589.24-1.269.59-1.73.777-1.022.855-2.354 1.693-3.324l-.092-.087c-.276.148-.55.301-.828.445-.815.418-1.626.607-2.591.495-.779-.09-1.593.272-2.1 1.017-.074.107-.191.184-.288.275-.087-.118-.242-.233-.248-.356-.015-.319-.013-.655.074-.958.087-.302.242-.611.45-.843.174-.195.468-.283.625-.372.07-.288.108-.552.2-.795.065-.168.199-.313.313-.46.45-.578.455-.692-.268-.9a6.814 6.814 0 00-1.98-.282c-1.656.03-3.272-.213-4.877-.556-1.153-.247-2.243-.105-3.305.374-.078.035-.154.074-.234.105-.023.009-.054-.001-.139-.006zm25.4-.862c-.459.846-.572 1.739-.761 2.646.463-.157.907-.23 1.253-.452.256-.166.592-.594.53-.79-.167-.523-.454-1.041-1.022-1.404zm2.224 1.324c-.298.322-.277.366.319.709l-.32-.709zM93.275 10.313c1.455-1.498 3.416-1.454 5.172-1.965.304-.088.637-.068.948-.137.198-.044.377-.164.568-.242.514-.21 1.015-.49 1.55-.597.363-.073.774.099 1.185.164-.204.237-.337.387-.465.54-.457.552-.913 1.06-1.702 1.18a5.41 5.41 0 00-2.357.98c-.477.344-.793.793-.904 1.373-.027.138.003.286.076.466.46-.877.967-1.673 1.909-2.083.884-.385 1.79-.625 2.869-.564-.144.341-.23.699-.425.979-.592.845-.78 1.754-.448 2.569.25-.152.49-.311.743-.45.545-.297 1.12-.45 1.747-.549 1.393-.22 2.748-.627 3.885-1.523.21-.166.373-.417.499-.66.226-.44.764-.64 1.192-.387.193.114.355.279.546.395.176.107.372.18.493.237l.348 1.109-.878.14c-.667.108-1.177.378-1.385 1.102A89.629 89.629 0 01107.313 16c-.383 1.149-.776 2.297-1.23 3.419-1.102.88-.198.795.624-.51.179-.547.286-1.12.493-1.655.277-.718.667-1.394.922-2.118.32-.908.553-1.847.836-2.816l.452-.002c-.179.73.29 1.214.598 1.724.514.847 1.119 1.639 1.685 2.454.024.034.057.07.061.108.09.735.598 1.217 1.032 1.751.566 2.628.98.97.18-.253-.319-.442-.62-.9-.89-1.373-.115-.204-.202-.493.19-.555-.395-.556-.778-1.116-1.184-1.658-.41-.549-.844-1.08-1.288-1.646.179-.284.438-.388.8-.279.709.213 1.42.237 2.102-.082.394-.184.79-.392.86-.9a.266.266 0 01.082-.144c.349-.323.246-.648-.077-1.034l.603.195c.102.486.22.947.281 1.415.017.127-.114.317-.23.408-.22.17-.477.294-.722.43-.208.116-.439.2-.63.337-1.013.727-1.046.825-.67 2.009.16.509.297 1.036.538 1.507.343.67.731 1.325 1.176 1.93.388 1.71.92.873.279.11-.281-.425-.436-.938-.62-1.421-.345-.902-.67-1.812-1.046-2.833.18-.065.429-.204.693-.242.983-.139 1.767-.77 1.733-1.659-.025-.67.508-1.074.537-1.674 0-.03.085-.056.174-.111.075.204.135.385.206.56.17.419.418.727.93.713.13-.003.266.072.392.127.401.172.651.055.755-.37.033-.136.04-.278.06-.418.02-.138.042-.276.076-.491.275.346.493.664.756.94.326.343.691.65 1.036.977.12.114.242.23.335.366.262.382.476.802.772 1.155.254.301.61.514.893.794.296.293.58.602.832.933.72.948 1.403 1.924 2.138 2.86.238.302.573.54.896.76.401.272.752.22 1.044-.09-.937-.074-1.58-.685-2.101-1.343-.921-1.163-1.733-2.413-2.588-3.629-.158-.225-.3-.46-.47-.72.63.244 1.209.488 1.8.694.746.26 1.516.278 2.292.163.137-.021.28-.034.417-.021.293.026.415-.063.457-.387.037-.292.221-.566.352-.876l.304.104c.093.03.207.107.278.079.34-.135.673-.292.998-.46.044-.023.073-.183.04-.222-.054-.065-.189-.137-.245-.111-.198.091-.424.187-.551.349-.196.25-.385.212-.629.128-.283-.097-.163-.286-.164-.477-.004-.459.03-.942-.099-1.371-.44-1.474-1.274-2.72-2.594-3.521-.812-.494-1.319-1.178-1.8-1.941a12.09 12.09 0 00-1.007-1.349c-.654-.773-1.147-.738-1.677.13-.328.539-.587 1.12-.895 1.672a2.423 2.423 0 01-.42.557c-.392.38-.626.82-.644 1.373-.004.11-.085.218-.13.327-.088-.09-.177-.178-.264-.27-.144-.151-.286-.304-.43-.456-.122.159-.247.316-.365.478-.091.125-.172.258-.257.388-.101-.125-.232-.235-.298-.375-.95-2.054-3.339-2.893-5.278-2.478-.48.103-.955.24-1.422.394-.6.198-1.022.618-1.344 1.157-.097.161-.265.28-.425.445-.57-1.274-1.463-1.727-2.736-1.375-.585.163-1.13.468-1.701.691a.65.65 0 01-.377 0c-.365-.099-.718-.272-1.088-.314-.336-.04-.74-.045-1.023.106-1.241.663-2.62.817-3.942 1.185-.902.25-1.78.6-2.642.97-.51.218-.716.53-.835.97zm28.874-3.406l-.07.13c-.673-.128-1.347-.254-2.128-.4.25-.61.45-1.127.68-1.632.049-.109.207-.244.302-.234.097.009.2.17.26.286.203.382.385.775.582 1.161.118.233.249.46.374.69z" class="antcolor"/><g fill="303846" class="antcolor"><path d="M45.718 9.509c.137-.035.273-.073.41-.105.66-.156 1.329-.283 1.98-.47 1.528-.437 3.01-1.01 4.466-1.642.932-.405 1.84-.866 2.754-1.308.265-.128.326-.11.524.112.342.387.701.759 1.067 1.151.324-.32.701-.696 1.082-1.069.05-.048.125-.116.175-.106.05.01.1.098.123.163.236.674.465 1.35.697 2.025.008.023.02.045.014.03.101-.163.194-.346.321-.5.058-.072.186-.085.28-.128.058-.026.121-.05.167-.09.16-.14.317-.284.469-.433a.523.523 0 00.122-.182c.262-.702.518-1.406.78-2.108.045-.121.094-.252.178-.345.062-.07.197-.137.278-.117.384.096.789.166 1.132.348.788.418 1.552.884 2.31 1.356.294.183.545.434.817.654.384-.83 1-1.514 1.533-2.254.101-.14.233-.263.369-.373.032-.027.171.01.198.055.126.21.277.423.333.656.154.64.26 1.291.395 1.936.078.375.173.747.267 1.15.424-.293.853-.456 1.336-.432.535.027.842.348 1.058.82l.104-.427c.073-.316.248-.42.558-.318.11.035.213.087.332.136.027-.581.288-1.05.61-1.497.086-.12.133-.27.185-.41A49.359 49.359 0 0175.187 1.1c.1-.203.18-.419.3-.61.11-.177.26-.328.393-.49l.041.003c.14.094.292.174.415.286.118.11.232.239.303.381.574 1.158 1.158 2.31 1.692 3.486.196.43.46.673.897.851 1.546.629 2.645 1.751 3.355 3.251.135.287.204.61.266.924.06.3-.084.548-.302.75-.349.325-.787.471-1.225.616-.215.07-.433.129-.688.204.06.126.102.246.169.35.134.207.267.42.429.604.175.2.391.364.575.557.27.285.532.576.785.876.086.103.182.233.042.42-.056-.124-.088-.234-.152-.323-.083-.115-.191-.213-.288-.319-.026-.029-.046-.065-.074-.092-.14-.134-.281-.265-.42-.4-.088-.085-.158-.217-.262-.254-.242-.088-.293-.307-.407-.487-.187-.295-.382-.585-.555-.85l-2.285.26c.027.072.06.166.098.259.237.57.475 1.142.714 1.712.027.063.052.136.1.179.323.283.241.645.2.998-.107.928-.226 1.856-.325 2.786-.039.36-.04.726-.05 1.09a.324.324 0 00.052.169c1.519 2.294.806 1.558.418 1.05a.273.273 0 01-.062-.094c-.158-.34-.265-.709-.562-.97-.027-.024-.026-.091-.023-.138.02-.391.029-.784.067-1.173.092-.953.202-1.903.293-2.855.008-.09-.056-.191-.1-.28-.175-.357-.36-.708-.532-1.066-.233-.482-.468-.963-.68-1.454-.09-.21-.203-.298-.438-.305-1.218-.037-2.28-.507-3.25-1.213l-.257-.182c-.38.44-.76.864-1.125 1.301-.366.44-.564.512-1.14.201-.224-.122-.413-.311-.632-.48a.424.424 0 00-.155.415c.124.891.222 1.786.349 2.677.036.258.02.466-.096.72-.145.314-.154.692-.214 1.044-.118.698-.232 1.397-.345 2.096a.303.303 0 00.016.154c.136.338.287.67.413 1.012.096.26.24.474.45.654.109.093.21.202.29.32.047.072.046.175.033.279-.27-.279-.588-.477-.771-.845a7.136 7.136 0 01-.57-1.493 1.323 1.323 0 01-.008-.51c.138-.854.283-1.708.441-2.56.035-.19.009-.35-.04-.532-.057-.214-.044-.447-.063-.672l-.182-2.2c-.176.11-.29.192-.412.257-.338.179-.562.149-.797-.157-.17-.22-.293-.477-.428-.722-.055-.102-.087-.215-.127-.316-.227-.043-.338.04-.384.257-.023.109-.115.203-.176.304-.107-.071-.217-.137-.317-.215-.053-.04-.088-.103-.142-.169-.623.287-1.26.456-1.966.2-.098.293-.187.578-.288.858-.222.62-.433 1.243-.686 1.85-.068.165-.27.273-.406.413a.415.415 0 00-.098.164c-.26.882-.483 1.778-.785 2.646-.183.527-.427 1.029-.516 1.591-.042.271-.164.539-.294.785-.088.169-.251.299-.409.478-.01-.078-.036-.14-.022-.19a.433.433 0 01.103-.199c.32-.307.45-.701.52-1.12.135-.813.51-1.547.751-2.324.173-.558.398-1.108.496-1.679.148-.855.503-1.622.846-2.401.143-.326.246-.67.371-1.015l-.924-.652c-.026.161-.039.302-.074.438-.159.62-.565 1.061-1.064 1.424-.847.616-1.802.997-2.816 1.23-.207.048-.435.004-.653.017-.074.004-.17.03-.213.082-.417.5-.931.85-1.556 1.037-.07.02-.144.03-.277.055.283-.25.542-.454.528-.814-.002-.046-.078-.09-.127-.142.102-.183.437-.295.304-.657.219-.208.22-.25.062-.542-.084-.156-.143-.324-.23-.523-.044.104-.085.18-.108.26-.045.16-.03.325-.218.44-.092.057-.093.273-.123.418-.027.133-.017.256-.106.394-.096.15-.066.382-.087.58-.004.037.007.078.015.155-.422-1.101-.313-2.18.372-3.008.231-.28.246-.268.256-.48-.852.806-1.685 1.614-3.013 1.6.07-.076.103-.133.152-.16a.325.325 0 01.178-.044c.664.056 1.136-.404 1.695-.628.03-.012.051-.044.074-.07.263-.297.522-.597.789-.89.414-.457.38-.315.042-.727-.415-.505-.84-1.003-1.261-1.503-.044-.052-.091-.1-.098-.107-.343.27-.68.531-1.01.8-1.385 1.12-2.747 2.272-4.252 3.235-.412.263-.82.531-1.233.792-.092.058-.196.1-.3.13-.046.014-.106-.02-.159-.032.015-.055.017-.12.05-.163a.35.35 0 01.15-.104c.837-.313 1.532-.86 2.253-1.363 1.505-1.047 2.9-2.232 4.28-3.437l.06-.063-1.188-1.336c-.945.446-1.855.915-2.796 1.311-2.116.892-4.27 1.676-6.509 2.208-.155.037-.33-.006-.495-.012l.01-.124zm28.33-4.273c1.313-.63 2.634-.933 4.07-.607L76.045.608C75.361 2.17 74.51 3.59 74.05 5.236zM64.804 6.89c-1.019-.922-2.058-1.706-3.338-2.19l-.629 2.108c1.08-.262 1.532-.004 1.985.727.102.166.24.31.376.483.363-.611.922-.9 1.606-1.128zm1.406-.075c.382.112.757.202 1.116.335.354.132.69.308 1.028.462l-.678-2.788c-.697.542-.957 1.36-1.466 1.99zm-8.137-.443l-1.049 1.05 1.578 1.857c.094-.163.195-.333.288-.507a.184.184 0 00.004-.133c-.269-.749-.541-1.496-.821-2.267zm15.064 2.616l-.27-.268c-.127.283-.357.327-.607.34-.265.013-.53.033-.784.05-.087.27-.023.483.109.71.169.292.336.574.579.767l.973-1.599zM62.106 7.51l.06-.07c-.07-.114-.115-.282-.216-.33-.162-.074-.36-.077-.544-.083-.02 0-.074.253-.067.255.253.086.51.156.767.228zm7.297.674c.134-.062.253-.105.357-.173.036-.023.053-.112.04-.161-.008-.037-.082-.086-.12-.081a1.15 1.15 0 00-.326.092c-.057.027-.138.116-.126.15.02.063.101.105.175.173zm2.503-.335c.016-.201-.082-.234-.19-.2-.041.012-.054.116-.08.179z" class="antcolor"/></g></svg>