<?xml version="1.0" encoding="UTF-8" standalone="no"?>
<!-- Created with Inkscape (http://www.inkscape.org/) -->

<svg
   width="128.57143"
   height="20"
   viewBox="0 0 128.57142 20"
   version="1.1"
   id="svg385"
   sodipodi:docname="ant-footer.svg"
   inkscape:version="1.2.1 (9c6d41e4, 2022-07-14)"
   xmlns:inkscape="http://www.inkscape.org/namespaces/inkscape"
   xmlns:sodipodi="http://sodipodi.sourceforge.net/DTD/sodipodi-0.dtd"
   xmlns="http://www.w3.org/2000/svg"
   xmlns:svg="http://www.w3.org/2000/svg">
  <style>
   .antcolor {fill:303846;}
  </style>
  <sodipodi:namedview
     id="namedview387"
     pagecolor="#ffffff"
     bordercolor="#666666"
     borderopacity="1.0"
     inkscape:showpageshadow="2"
     inkscape:pageopacity="0.0"
     inkscape:pagecheckerboard="true"
     inkscape:deskcolor="#d1d1d1"
     inkscape:document-units="mm"
     showgrid="false"
     inkscape:zoom="13.455443"
     inkscape:cx="63.022823"
     inkscape:cy="14.009201"
     inkscape:window-width="2351"
     inkscape:window-height="771"
     inkscape:window-x="874"
     inkscape:window-y="429"
     inkscape:window-maximized="0"
     inkscape:current-layer="layer1" />
  <defs
     id="defs382" />
  <g
     inkscape:label="Layer 1"
     inkscape:groupmode="layer"
     id="layer1">
    <path
       class="antcolor" style="fill-opacity:1;stroke-width:0.0794558"
       d="M 0.19217178,7.5734313 C 0.40328494,7.1423053 0.7547972,6.9704429 1.1496925,6.8657985 c 1.20002,-0.3182199 2.4056027,-0.2903313 3.6145208,-0.051331 0.6729114,0.1330117 1.3438361,0.2831015 2.0221498,0.379719 0.3992641,0.056818 0.8118785,0.012045 1.2174207,0.033532 1.1605295,0.061338 2.3098582,0.1811591 3.3624082,0.7390172 0.01645,0.00877 0.05014,-0.015019 0.113621,-0.036312 C 11.057267,7.3864699 10.493848,7.1198948 9.8589958,6.9743328 8.5035596,6.6635018 7.1556732,6.3088906 5.7877626,6.0682993 5.1185865,5.9506185 4.4116691,6.0478828 3.6851262,6.0478828 3.8672385,5.9571464 4.0591234,5.7865524 4.2589547,5.7766207 c 0.5065315,-0.0251 1.0236281,-0.024952 1.5238815,0.049577 1.0569204,0.1573211 2.1036713,0.3814662 3.1586048,0.5539651 0.983106,0.1607382 1.770114,0.6990513 2.55053,1.2594521 0.103762,0.074528 0.204041,0.1540661 0.225097,0.1699561 0.622377,-0.2830212 1.164901,-0.6370762 1.756529,-0.7661117 0.505099,-0.1101269 1.085125,-0.036863 1.598568,0.090424 0.691106,0.1713063 1.063515,0.6875301 1.090928,1.4209859 0.004,0.1087737 0.02376,0.216914 0.04886,0.4355766 0.196255,-0.1670951 0.343327,-0.2629989 0.453294,-0.390763 0.581378,-0.6756132 1.263824,-0.8674981 2.113522,-0.5383933 0.78852,0.3054288 1.512044,0.6776787 2.057111,1.4261517 0.04242,-0.398073 0.06381,-0.8000405 0.136104,-1.192631 0.03655,-0.1987191 0.16511,-0.3804344 0.252115,-0.5698567 0.08199,0.1925212 0.211987,0.3791629 0.236301,0.578676 0.05689,0.4671202 0.06309,0.9403594 0.09216,1.4515779 0.186164,0.047747 0.371853,0.095346 0.596474,0.1529523 0.05951,-0.3090035 0.109889,-0.5853512 0.166619,-0.8603471 0.04529,-0.2192188 0.104491,-0.4099125 0.402125,-0.4030783 0.30503,0.00684 0.497394,0.1279262 0.547054,0.4286635 0.0673,0.4080835 0.116714,0.8191083 0.176549,1.2284642 0.0098,0.06706 0.03353,0.132134 0.08199,0.317346 0.07667,-0.190217 0.1218,-0.278492 0.148506,-0.372091 0.266495,-0.9339219 0.514874,-1.8733281 0.802265,-2.8006554 0.100031,-0.3227493 0.302488,-0.6125245 0.443442,-0.9240708 0.180921,-0.3998203 0.47157,-0.4066545 0.759597,-0.174484 0.463227,0.3735213 0.893162,0.7882799 1.37379,1.2184542 0.436371,-0.2408307 0.820539,-0.026617 1.118817,0.3713755 0.341897,0.4562354 0.644068,0.9420278 0.973253,1.4080357 0.08653,0.1225135 0.191568,0.2494107 0.317742,0.3240192 1.938404,1.1450366 3.028934,2.7757076 2.959092,5.0892996 -0.0048,0.15907 0.04171,0.343487 0.125785,0.477608 0.538789,0.860267 1.068441,1.728162 1.652202,2.557602 0.600368,0.853036 1.454994,1.251586 2.507624,1.204866 0.22907,-0.01011 0.458934,-0.0015 0.661546,0.04442 -0.316945,0.08534 -0.629686,0.209126 -0.952117,0.243928 -0.259342,0.02797 -0.556349,0.0079 -0.791379,-0.09463 -0.762218,-0.332523 -1.485027,-0.718757 -1.914803,-1.50378 -0.314962,-0.575418 -0.703502,-1.110711 -1.062323,-1.661895 -0.121889,-0.187277 -0.253146,-0.368357 -0.413249,-0.60021 -0.426995,0.934877 -1.171815,1.116115 -2.052184,1.072018 -1.786006,-0.08938 -3.353668,-0.707395 -4.646174,-1.939832 -0.353499,-0.337052 -0.64105,-0.294782 -1.001063,-0.119971 -0.08741,0.04242 -0.180127,0.07413 -0.301456,0.123316 0.123153,0.917714 0.243849,1.836222 0.370423,2.754016 0.08175,0.593057 0.121086,1.198987 0.277937,1.77218 0.09304,0.339991 0.377652,0.627622 0.558652,0.911278 -0.0828,-0.05029 -0.281353,-0.110201 -0.378527,-0.24377 -0.156686,-0.215405 -0.301931,-0.467835 -0.355246,-0.724715 -0.267846,-1.291554 -0.50502,-2.589543 -0.750937,-3.885704 -0.03163,-0.166539 -0.0514,-0.335383 -0.06571,-0.430014 -0.402125,-0.116239 -0.75022,-0.219775 -1.100541,-0.315123 -0.05848,-0.0159 -0.132611,-0.0113 -0.189582,0.01 -0.935034,0.35175 -1.605879,0.09829 -1.865938,-0.855023 -0.215483,-0.789791 -0.851528,-1.309908 -1.115796,-2.048846 -0.0097,-0.02693 -0.06578,-0.03726 -0.189265,-0.101859 0.05053,0.169001 0.07127,0.265064 0.10742,0.354927 0.218821,0.542922 0.453693,1.079963 0.652809,1.629957 0.04513,0.124744 0.02025,0.348095 -0.06421,0.424531 -0.07405,0.06706 -0.315837,0.04449 -0.416586,-0.02956 -0.573274,-0.421671 -1.142257,-0.852162 -1.681364,-1.316105 -0.424452,-0.365258 -0.745692,-0.87449 -1.406287,-0.901187 -0.07978,0.556985 -0.118156,1.09927 -0.241227,1.621691 -0.199753,0.847555 -0.453534,1.682476 -0.6892,2.521449 -0.02265,0.08049 -0.06317,0.167097 -0.12125,0.224782 -0.724477,0.719869 -0.74458,1.697491 -0.976511,2.601698 -0.08645,0.33713 -0.224542,0.680617 -0.420162,0.965546 -0.286518,0.417461 -0.573908,0.425565 -1.047148,0.193475 -0.166857,-0.08184 -0.379719,-0.06992 -0.629288,-0.110127 -0.0061,-0.186483 0.136268,-0.293112 0.393543,-0.248856 0.152795,0.02622 0.301615,0.144447 0.446064,0.134201 0.222159,-0.01573 0.549596,-0.0379 0.636679,-0.178537 0.233839,-0.377733 0.434385,-0.80584 0.519721,-1.239192 0.147465,-0.749189 0.161532,-1.497662 0.560004,-2.216179 0.305427,-0.550868 0.305189,-1.267558 0.46267,-1.905111 0.185053,-0.749108 0.379163,-1.496787 0.599415,-2.236043 0.08406,-0.282227 0.264269,-0.534498 0.374712,-0.810846 0.04529,-0.113309 0.02201,-0.25402 0.02987,-0.382262 -0.157403,0.04561 -0.387269,0.04283 -0.456951,0.14699 -0.138811,0.207617 -0.162249,0.488492 -0.281671,0.713432 -0.370819,0.698575 -0.764284,1.385073 -1.149327,2.076099 -0.0067,0.01205 -0.01747,0.02733 -0.02923,0.03051 -0.714625,0.197289 -0.647167,0.839529 -0.801947,1.370293 -0.194665,0.667508 -0.50049,1.280509 -1.098157,1.694791 -0.36772,0.254894 -0.733615,0.351989 -1.154332,0.08113 -0.138736,-0.08931 -0.354532,-0.05887 -0.544511,-0.08446 0.01787,-0.282465 0.144447,-0.363669 0.458063,-0.185449 0.24814,0.140952 0.465928,0.354611 0.777792,0.157322 0.395212,-0.250127 0.81474,-0.463148 0.960779,-0.973174 0.168526,-0.588529 0.239161,-1.268352 0.588925,-1.728877 0.776918,-1.023153 0.855103,-2.354354 1.692726,-3.324429 -0.03051,-0.02916 -0.06103,-0.05832 -0.09154,-0.08741 -0.276029,0.148507 -0.549754,0.301376 -0.828485,0.444555 -0.8145,0.418335 -1.625425,0.607598 -2.590733,0.495327 -0.778428,-0.09059 -1.593088,0.272057 -2.1005708,1.017112 -0.073101,0.107272 -0.1904559,0.184258 -0.2873916,0.275315 -0.087004,-0.118395 -0.2421021,-0.2336 -0.2478226,-0.355803 -0.01487,-0.319173 -0.013383,-0.655509 0.073889,-0.958474 0.08693,-0.302011 0.2417051,-0.611412 0.4494814,-0.843423 0.1744836,-0.194825 0.4681536,-0.282862 0.6257926,-0.371456 0.06953,-0.2885034 0.107421,-0.5522964 0.200388,-0.7950334 0.06452,-0.1685257 0.198241,-0.3131344 0.31242,-0.459651 C 11.445303,8.2604394 11.449752,8.1464195 10.726943,7.9384053 10.090582,7.7552595 9.406469,7.6434658 8.746429,7.6557811 7.0909696,7.6866957 5.4746802,7.4432359 3.8695151,7.0998293 2.7166924,6.8531978 1.62656,6.9947136 0.56542837,7.4742249 c -0.0779483,0.035271 -0.15486013,0.073339 -0.23439504,0.1045655 -0.0230484,0.00892 -0.0537103,-0.00128 -0.13888534,-0.00535 z M 25.592026,6.7106217 C 25.133328,7.5574609 25.020104,8.4497487 24.830683,9.3571339 25.293829,9.1995734 25.73767,9.1278244 26.083698,8.9045536 26.339625,8.7394451 26.675723,8.3107816 26.613352,8.1150811 26.446813,7.5921035 26.159898,7.0735764 25.592026,6.7106217 Z m 2.223807,1.3246866 c -0.297879,0.32124 -0.276426,0.3655763 0.319175,0.7085071 -0.118469,-0.263158 -0.207775,-0.4612406 -0.319175,-0.7085071 z"
       id="path144" />
    <path
       class="antcolor" style="fill-opacity:1;stroke-width:0.0805534"
       d="m 93.275346,10.312796 c 1.454959,-1.4976225 3.415424,-1.4539585 5.171739,-1.9649005 0.303474,-0.08836 0.637102,-0.06803 0.948125,-0.136937 0.19741,-0.04379 0.3769,-0.164307 0.567726,-0.242251 0.514034,-0.209695 1.014934,-0.488948 1.550064,-0.596461 0.36273,-0.07282 0.77441,0.09826 1.1854,0.163617 -0.2043,0.23728 -0.3373,0.387021 -0.46508,0.541017 -0.45733,0.551174 -0.91286,1.05889 -1.7028,1.179037 -0.851589,0.129502 -1.647117,0.468817 -2.356639,0.9801815 -0.476814,0.343604 -0.792978,0.79339 -0.904189,1.372695 -0.02644,0.137904 0.0031,0.28665 0.07677,0.466437 0.459885,-0.877112 0.96663,-1.673521 1.908548,-2.0835945 0.88443,-0.385046 1.79036,-0.624651 2.86879,-0.563794 -0.14398,0.341466 -0.22911,0.6988845 -0.42501,0.9787955 -0.59144,0.845035 -0.77967,1.754062 -0.44739,2.569192 0.24988,-0.152053 0.49015,-0.311316 0.74218,-0.449018 0.54569,-0.298193 1.12023,-0.450676 1.74784,-0.549484 1.39301,-0.219431 2.74733,-0.626899 3.88482,-1.523193 0.21037,-0.165752 0.37325,-0.417475 0.49841,-0.6602345 0.22647,-0.439114 0.76484,-0.639596 1.19272,-0.386509 0.19224,0.113755 0.35428,0.278178 0.54535,0.394403 0.17605,0.107093 0.37259,0.180489 0.49282,0.2369755 0.11989,0.381975 0.2279,0.726059 0.34816,1.109185 -0.26067,0.04155 -0.56916,0.09001 -0.87747,0.140105 -0.66684,0.108328 -1.17711,0.378436 -1.38474,1.101643 -0.34794,1.211939 -0.72977,2.41493 -1.12862,3.611273 -0.38307,1.149004 -0.77539,2.297029 -1.22909,3.418983 -1.10251,0.880471 -0.1985,0.795387 0.62337,-0.509069 0.17878,-0.547493 0.28629,-1.120569 0.49303,-1.656155 0.27708,-0.717656 0.66648,-1.393567 0.92168,-2.117696 0.31995,-0.908159 0.55275,-1.847047 0.836,-2.816462 0.0577,-2.03e-4 0.23361,-8.04e-4 0.45214,-0.0016 -0.17887,0.729551 0.2892,1.214236 0.59841,1.724049 0.51367,0.847009 1.1186,1.638606 1.68455,2.453924 0.0237,0.03433 0.0569,0.07038 0.0615,0.108521 0.0896,0.734504 0.59789,1.216713 1.03128,1.750697 0.56626,2.627536 0.98087,0.969069 0.17967,-0.253039 -0.31821,-0.442482 -0.62015,-0.899785 -0.88895,-1.373397 -0.11563,-0.203735 -0.20292,-0.492606 0.19048,-0.555131 -0.3955,-0.55551 -0.77865,-1.115312 -1.18489,-1.657991 -0.41037,-0.548304 -0.84358,-1.079561 -1.28831,-1.645617 0.17879,-0.283575 0.43841,-0.387946 0.80111,-0.278737 0.70775,0.213239 1.4184,0.237211 2.10121,-0.08248 0.3936,-0.184249 0.78922,-0.391939 0.85999,-0.8997 0.007,-0.05127 0.0433,-0.107718 0.0824,-0.143971 0.3481,-0.323295 0.24541,-0.648025 -0.0779,-1.034293 0.27598,0.08923 0.45572,0.147302 0.60336,0.1951 0.10184,0.486339 0.2209,0.947178 0.28137,1.415519 0.0163,0.126841 -0.11386,0.31613 -0.23088,0.407317 -0.21928,0.170735 -0.47605,0.294393 -0.72099,0.430715 -0.20843,0.116001 -0.43906,0.198942 -0.63101,0.336788 -1.01219,0.727114 -1.04494,0.824777 -0.67031,2.008312 0.16113,0.509016 0.29755,1.036172 0.53891,1.507084 0.34314,0.669541 0.73108,1.325271 1.1759,1.93115 0.38779,1.709423 0.91937,0.872391 0.27899,0.109057 -0.28106,-0.424683 -0.43539,-0.937604 -0.62011,-1.420896 -0.34473,-0.902148 -0.66988,-1.811875 -1.04533,-2.833136 0.17933,-0.06482 0.42856,-0.20417 0.69216,-0.241492 0.98324,-0.139108 1.76738,-0.770487 1.73362,-1.659137 -0.0254,-0.669325 0.50758,-1.073771 0.53667,-1.674495 0.001,-0.02981 0.0848,-0.05575 0.17456,-0.110692 0.0745,0.204405 0.13436,0.384611 0.2055,0.560266 0.16955,0.418312 0.41769,0.727105 0.93064,0.712999 0.12958,-0.0036 0.2653,0.07216 0.39186,0.126499 0.40058,0.172041 0.65078,0.05517 0.75408,-0.369928 0.033,-0.136 0.0398,-0.278274 0.0602,-0.417404 0.0203,-0.138245 0.0427,-0.276133 0.0761,-0.491719 0.27536,0.346266 0.49356,0.663781 0.75581,0.939524 0.32671,0.343652 0.6918,0.650606 1.03588,0.978081 0.11968,0.113904 0.24283,0.230257 0.33546,0.36531 0.2621,0.382336 0.47613,0.802731 0.77236,1.155021 0.25357,0.301601 0.60977,0.514335 0.89281,0.794446 0.29573,0.292587 0.57996,0.602294 0.83135,0.933284 0.71999,0.947808 1.4037,1.923643 2.13899,2.859136 0.23753,0.302159 0.57234,0.540355 0.89532,0.759715 0.40152,0.272639 0.75234,0.220263 1.04453,-0.08911 -0.93781,-0.0739 -1.58017,-0.684812 -2.10147,-1.343095 -0.92118,-1.163268 -1.73321,-2.41315 -2.58767,-3.629029 -0.15793,-0.224734 -0.30076,-0.460033 -0.47033,-0.720796 0.63058,0.244977 1.20912,0.489066 1.80098,0.694864 0.74503,0.259118 1.51482,0.278117 2.29113,0.162432 0.13728,-0.02046 0.27956,-0.03329 0.41692,-0.02095 0.2928,0.02638 0.41484,-0.0625 0.45675,-0.38627 0.0378,-0.292425 0.22134,-0.566006 0.35248,-0.876071 0.10107,0.03447 0.20217,0.07011 0.30403,0.103302 0.0931,0.03045 0.20647,0.107167 0.27743,0.07906 0.34046,-0.1349 0.67295,-0.29194 0.9987,-0.459715 0.0439,-0.0226 0.0727,-0.182461 0.04,-0.221685 -0.054,-0.06485 -0.18905,-0.137473 -0.24566,-0.111243 -0.1975,0.09138 -0.42335,0.186587 -0.55082,0.349102 -0.19596,0.249872 -0.38451,0.211621 -0.62861,0.127912 -0.28297,-0.097 -0.16287,-0.285663 -0.16452,-0.477051 -0.004,-0.458656 0.0297,-0.941647 -0.0987,-1.370954 -0.44063,-1.473982 -1.27439,-2.7191525 -2.59386,-3.5210055 -0.81241,-0.4937 -1.31894,-1.177809 -1.79971,-1.941006 -0.29834,-0.473545 -0.64577,-0.920616 -1.00774,-1.348608 -0.65359,-0.772864 -1.14658,-0.737924 -1.67633,0.129874 -0.32879,0.538688 -0.58737,1.119757 -0.89509,1.672012 -0.11245,0.201785 -0.25453,0.39709 -0.41989,0.557235 -0.39218,0.380018 -0.62632,0.818666 -0.64447,1.372728 -0.004,0.11038 -0.0849,0.218223 -0.13037,0.327304 -0.0879,-0.08995 -0.17679,-0.178876 -0.26342,-0.270056 -0.14395,-0.151446 -0.28641,-0.304296 -0.42943,-0.456542 -0.12231,0.159043 -0.2481,0.315628 -0.36588,0.47806 -0.091,0.125488 -0.17191,0.258195 -0.25724,0.387645 -0.10054,-0.124209 -0.2319,-0.234191 -0.29707,-0.374825 -0.95105,-2.053484 -3.33935,-2.893181 -5.27802,-2.477397 -0.48021,0.103079 -0.95558,0.238799 -1.42204,0.393208 -0.60079,0.198227 -1.02193,0.61889 -1.34449,1.157233 -0.0969,0.161675 -0.26476,0.280842 -0.42507,0.444967 -0.57067,-1.273375 -1.46262,-1.727008 -2.7354,-1.374429 -0.58575,0.162241 -1.13102,0.467683 -1.70144,0.690863 -0.10984,0.04275 -0.25827,0.03066 -0.37682,-0.0011 -0.36528,-0.09802 -0.71863,-0.270784 -1.08825,-0.313497 -0.33615,-0.03885 -0.74047,-0.04449 -1.02317,0.106543 -1.240768,0.663023 -2.61968,0.81679 -3.941617,1.184362 -0.901818,0.250296 -1.781053,0.600241 -2.64265,0.970337 -0.509432,0.218441 -0.715177,0.530203 -0.834272,0.9698095 z M 122.14854,6.9072325 c -0.0231,0.04296 -0.046,0.08589 -0.0691,0.128848 -0.6737,-0.126588 -1.34741,-0.253161 -2.12853,-0.399974 0.24999,-0.608175 0.45084,-1.125954 0.6799,-1.631058 0.0492,-0.10858 0.20737,-0.24391 0.30234,-0.234546 0.0964,0.0095 0.19893,0.170834 0.26013,0.286202 0.20285,0.382364 0.38507,0.775677 0.58148,1.161496 0.11858,0.232781 0.24878,0.459553 0.37383,0.689035 z"
       id="path136"
       sodipodi:nodetypes="ccccccsccccscccccsccscccsscccccccccccscccccccccccscscccccccsccscssccscccccccssccscccccscccccsscccscccccccccccccccscccccsccssscss" />
    <g
       id="g148"
       transform="matrix(0.08797958,0.00672816,-0.00672816,0.08797958,-81.997969,-30.02673)"
       class="antcolor" style="fill-opacity:1">
      <path
         class="antcolor" style="fill-opacity:1"
         d="m 1477.38,336.389 c 1.515,-0.515 3.022,-1.057 4.547,-1.541 7.325,-2.326 14.764,-4.341 21.961,-7.012 16.889,-6.268 33.142,-14.015 49.052,-22.42 10.179,-5.378 20.035,-11.372 29.992,-17.164 2.882,-1.677 3.59,-1.531 6.013,0.821 4.198,4.074 8.579,7.96 13.051,12.079 3.386,-3.905 7.327,-8.476 11.31,-13.01 0.52,-0.591 1.304,-1.421 1.881,-1.358 0.575,0.063 1.223,1.03 1.531,1.736 3.244,7.413 6.425,14.854 9.629,22.285 0.109,0.254 0.266,0.487 0.18,0.332 1.005,-1.932 1.891,-4.085 3.196,-5.944 0.599,-0.854 2.029,-1.112 3.062,-1.678 0.628,-0.343 1.317,-0.659 1.806,-1.157 1.688,-1.721 3.336,-3.485 4.921,-5.301 0.536,-0.615 1,-1.387 1.224,-2.165 2.356,-8.157 4.635,-16.336 6.992,-24.492 0.407,-1.41 0.839,-2.93 1.706,-4.053 0.649,-0.841 2.118,-1.716 3.049,-1.558 4.415,0.748 9.056,1.19 13.09,2.95 9.266,4.044 18.299,8.647 27.271,13.322 3.481,1.814 6.542,4.434 9.796,6.687 3.625,-9.715 9.991,-17.974 15.378,-26.79 1.027,-1.68 2.412,-3.183 3.846,-4.541 0.347,-0.329 1.945,-0.036 2.289,0.451 1.606,2.272 3.495,4.544 4.329,7.125 2.294,7.1 4.06,14.368 6.133,21.541 1.205,4.17 2.599,8.285 4.013,12.757 4.541,-3.674 9.246,-5.88 14.721,-6.029 6.072,-0.165 9.819,3.197 12.668,8.353 0.268,-1.641 0.551,-3.279 0.802,-4.923 0.554,-3.633 2.448,-4.947 6.037,-4.074 1.262,0.307 2.48,0.797 3.868,1.252 -0.193,-6.592 2.348,-12.112 5.604,-17.443 0.868,-1.422 1.265,-3.159 1.734,-4.793 5.333,-18.599 11.837,-36.787 19.061,-54.727 0.96,-2.385 1.671,-4.894 2.854,-7.159 1.091,-2.088 2.662,-3.926 4.021,-5.874 h 0.469 c 1.657,0.942 3.451,1.71 4.933,2.875 1.433,1.127 2.831,2.492 3.754,4.045 7.484,12.58 15.082,25.103 22.135,37.924 2.579,4.687 5.768,7.214 10.869,8.846 18.016,5.766 31.406,17.497 40.718,33.838 1.778,3.12 2.838,6.715 3.811,10.208 0.932,3.346 -0.475,6.261 -2.771,8.746 -3.658,3.962 -8.484,5.995 -13.311,8.005 -2.361,0.983 -4.779,1.831 -7.59,2.9 0.783,1.376 1.358,2.694 2.204,3.806 1.698,2.23 3.381,4.514 5.373,6.466 2.153,2.109 4.739,3.77 6.98,5.798 3.292,2.98 6.513,6.047 9.623,9.217 1.069,1.089 2.264,2.47 0.846,4.714 -0.747,-1.354 -1.203,-2.579 -1.995,-3.519 -1.04,-1.235 -2.35,-2.242 -3.533,-3.358 -0.326,-0.308 -0.58,-0.696 -0.923,-0.98 -1.686,-1.394 -3.402,-2.752 -5.084,-4.15 -1.074,-0.893 -1.972,-2.32 -3.185,-2.655 -2.814,-0.779 -3.569,-3.214 -5.013,-5.148 -2.368,-3.171 -4.824,-6.276 -7.016,-9.115 -8.551,1.639 -16.985,3.256 -25.59,4.906 0.365,0.783 0.816,1.826 1.329,2.837 3.172,6.25 6.352,12.496 9.55,18.732 0.353,0.689 0.699,1.495 1.284,1.933 3.897,2.924 3.286,7.086 3.13,11.102 -0.411,10.589 -0.953,21.173 -1.273,31.765 -0.124,4.112 0.181,8.24 0.368,12.357 0.029,0.638 0.356,1.342 0.744,1.87 19.1464,24.61186 10.4573,16.91621 5.63,11.501 -0.332,-0.241 -0.578,-0.638 -0.785,-1.007 -2.076,-3.705 -3.605,-7.776 -7.185,-10.47 -0.331,-0.249 -0.37,-1.01 -0.384,-1.538 -0.117,-4.44 -0.347,-8.884 -0.256,-13.321 0.222,-10.84 0.638,-21.675 0.845,-32.515 0.019,-1.019 -0.801,-2.105 -1.374,-3.076 -2.284,-3.875 -4.675,-7.687 -6.931,-11.578 -3.043,-5.247 -6.119,-10.483 -8.934,-15.852 -1.202,-2.292 -2.553,-3.185 -5.22,-3.063 -13.792,0.632 -26.195,-3.765 -37.78,-10.899 -1.053,-0.648 -2.119,-1.275 -3.049,-1.834 -3.924,5.29 -7.855,10.415 -11.594,15.678 -3.758,5.288 -5.932,6.265 -12.701,3.25 -2.648,-1.18 -4.939,-3.16 -7.56,-4.887 -1.176,1.17 -1.886,2.61 -1.401,4.835 2.172,9.963 4.055,19.989 6.257,29.945 0.639,2.887 0.635,5.255 -0.461,8.216 -1.362,3.681 -1.136,7.962 -1.508,11.993 -0.737,7.989 -1.423,15.983 -2.094,23.978 -0.048,0.567 0.069,1.22 0.321,1.729 1.828,3.701 3.816,7.327 5.54,11.075 1.31,2.849 3.127,5.153 5.651,7.002 1.309,0.959 2.545,2.099 3.542,3.37 0.6,0.765 0.68,1.938 0.617,3.121 -3.29,-2.92 -7.055,-4.885 -9.438,-8.879 -3.135,-5.254 -5.843,-10.61 -7.722,-16.379 -0.584,-1.792 -0.693,-3.854 -0.535,-5.752 0.816,-9.78 1.717,-19.555 2.766,-29.313 0.233,-2.171 -0.202,-3.968 -0.906,-5.98 -0.831,-2.374 -0.888,-5.017 -1.293,-7.542 -1.289,-8.043 -2.583,-16.085 -3.967,-24.693 -1.885,1.393 -3.102,2.412 -4.433,3.252 -3.661,2.309 -6.22,2.165 -9.136,-1.083 -2.105,-2.345 -3.722,-5.139 -5.46,-7.797 -0.715,-1.094 -1.177,-2.354 -1.714,-3.457 -2.603,-0.292 -3.781,0.745 -4.115,3.239 -0.167,1.249 -1.129,2.391 -1.731,3.581 -1.261,-0.707 -2.563,-1.353 -3.767,-2.147 -0.627,-0.414 -1.081,-1.089 -1.746,-1.786 -6.796,3.773 -13.836,6.234 -22.047,3.95 -0.853,3.401 -1.615,6.694 -2.509,9.951 -1.973,7.187 -3.821,14.419 -6.149,21.492 -0.634,1.927 -2.826,3.325 -4.231,5.025 -0.451,0.545 -0.829,1.245 -0.975,1.931 -2.171,10.199 -3.918,20.507 -6.575,30.576 -1.616,6.121 -3.938,11.999 -4.456,18.431 -0.25,3.103 -1.397,6.227 -2.644,9.124 -0.855,1.986 -2.584,3.596 -4.211,5.759 -0.19,-0.874 -0.526,-1.547 -0.419,-2.14 0.148,-0.816 0.458,-1.726 0.997,-2.329 3.341,-3.746 4.488,-8.313 4.909,-13.099 0.818,-9.307 4.429,-17.924 6.479,-26.923 1.47,-6.453 3.532,-12.857 4.155,-19.395 0.933,-9.791 4.278,-18.763 7.476,-27.867 1.337,-3.805 2.206,-7.774 3.323,-11.793 -3.628,-2.162 -7.196,-4.288 -11.008,-6.56 -0.159,1.839 -0.178,3.445 -0.454,5.006 -1.26,7.139 -5.469,12.484 -10.794,17.014 -9.038,7.69 -19.5,12.824 -30.755,16.332 -2.308,0.719 -4.919,0.424 -7.37,0.754 -0.828,0.111 -1.894,0.492 -2.337,1.115 -4.278,6.018 -9.788,10.414 -16.681,13.061 -0.777,0.298 -1.607,0.456 -3.091,0.867 2.988,-3.064 5.736,-5.601 5.269,-9.659 -0.06,-0.524 -0.967,-0.951 -1.56,-1.495 0.99,-2.153 4.678,-3.716 2.871,-7.689 2.29,-2.533 2.27,-3.019 0.233,-6.179 -1.085,-1.683 -1.904,-3.537 -3.053,-5.711 -0.406,1.215 -0.806,2.104 -0.993,3.037 -0.37,1.843 -0.055,3.698 -2.092,5.168 -0.991,0.715 -0.808,3.15 -1.02,4.824 -0.193,1.525 0.028,2.905 -0.858,4.541 -0.961,1.776 -0.416,4.375 -0.489,6.617 -0.014,0.437 0.148,0.88 0.307,1.747 -5.724,-12.08 -5.425,-24.365 1.6,-34.308 2.375,-3.361 2.547,-3.24 2.482,-5.641 -8.929,9.84 -17.649,19.686 -32.659,20.683 0.724,-0.929 1.047,-1.594 1.578,-1.955 0.552,-0.375 1.306,-0.642 1.969,-0.637 7.553,0.054 12.484,-5.556 18.612,-8.568 0.321,-0.158 0.542,-0.545 0.774,-0.851 2.715,-3.581 5.383,-7.199 8.143,-10.746 4.293,-5.516 4.023,-3.879 -0.151,-8.241 -5.125,-5.356 -10.359,-10.608 -15.552,-15.9 -0.536,-0.546 -1.11,-1.054 -1.19,-1.129 -3.646,3.362 -7.226,6.596 -10.733,9.909 -14.679,13.866 -29.068,28.056 -45.249,40.234 -4.423,3.329 -8.801,6.719 -13.246,10.018 -0.986,0.732 -2.129,1.304 -3.28,1.74 -0.505,0.191 -1.208,-0.143 -1.822,-0.238 0.126,-0.634 0.093,-1.372 0.421,-1.875 0.362,-0.555 0.997,-1.019 1.614,-1.306 9.178,-4.267 16.559,-11.049 24.276,-17.348 16.099,-13.141 30.846,-27.733 45.384,-42.544 0.162,-0.165 0.296,-0.358 0.63,-0.767 -5.011,-4.834 -10.027,-9.672 -14.577,-14.062 -10.289,5.852 -20.174,11.935 -30.463,17.231 -23.133,11.906 -46.81,22.624 -71.642,30.57 -1.724,0.552 -3.732,0.215 -5.608,0.292 v -1.411 z m 316.448,-72.765 c 14.288,-8.259 28.948,-12.814 45.461,-10.38 -9.054,-14.69 -17.769,-28.831 -26.898,-43.644 -6.378,18.26 -14.779,35.028 -18.563,54.024 z m -103.048,26.681 c -12.307,-9.543 -24.734,-17.504 -39.614,-21.872 -1.844,8.511 -3.541,16.338 -5.281,24.371 11.966,-3.892 17.3,-1.371 23.053,6.504 1.301,1.781 2.975,3.291 4.67,5.136 3.574,-7.225 9.638,-10.97 17.172,-14.139 z m 15.829,-2.065 c 4.406,0.942 8.728,1.626 12.901,2.825 4.105,1.18 8.06,2.882 12.008,4.328 -3.317,-10.187 -6.676,-20.501 -10.066,-30.913 -7.408,6.726 -9.642,16.195 -14.843,23.76 z m -92.341,2.03 c -3.96,4.624 -7.6,8.874 -10.94,12.775 6.509,6.568 12.959,13.075 19.436,19.61 0.917,-1.92 1.918,-3.922 2.814,-5.969 0.184,-0.42 0.128,-1.077 -0.068,-1.513 -3.687,-8.227 -7.411,-16.437 -11.242,-24.903 z m 172.485,16.543 c -0.894,-0.764 -2.029,-1.733 -3.269,-2.793 -1.196,3.307 -3.757,4.004 -6.573,4.36 -2.983,0.377 -5.956,0.835 -8.818,1.241 -0.747,3.137 0.158,5.486 1.843,7.939 2.164,3.15 4.3,6.195 7.209,8.165 3.214,-6.327 6.366,-12.531 9.608,-18.912 z m -125.911,-7.172 0.618,-0.852 c -0.892,-1.223 -1.546,-3.082 -2.729,-3.522 -1.89,-0.703 -4.136,-0.566 -6.218,-0.48 -0.231,0.01 -0.616,2.925 -0.533,2.946 2.924,0.752 5.896,1.317 8.862,1.908 z m 83.042,1.309 c 1.453,-0.816 2.766,-1.407 3.881,-2.259 0.386,-0.295 0.502,-1.311 0.322,-1.86 -0.132,-0.404 -1.016,-0.902 -1.443,-0.807 -1.24,0.275 -2.493,0.697 -3.593,1.322 -0.621,0.353 -1.46,1.429 -1.303,1.806 0.286,0.688 1.239,1.098 2.136,1.798 z m 27.991,-5.952 c 0.01,-2.282 -1.132,-2.573 -2.319,-2.098 -0.454,0.182 -0.506,1.369 -0.74,2.098 z"
         id="path146"
         sodipodi:nodetypes="ccscccccscccccccccsccsccccsscsccscccccccccccsscscccccccccsccccccccsscccscccccscccccccccscccsscscccccccsccccccccscccssccccsscccccccccccccsccsscsccccscsscssccssccscssccccccccccccccsccccccccccsccccscsccccsccccsccscccccc" />
    </g>
  </g>
</svg>
