<?xml version="1.0" encoding="UTF-8" standalone="no"?>
<!-- Created with Inkscape (http://www.inkscape.org/) -->

<svg
   width="58"
   height="58"
   viewBox="0 0 58 58"
   version="1.1"
   id="svg3915"
   inkscape:version="1.2.1 (9c6d41e4, 2022-07-14)"
   sodipodi:docname="cron-jobs.svg"
   xmlns:inkscape="http://www.inkscape.org/namespaces/inkscape"
   xmlns:sodipodi="http://sodipodi.sourceforge.net/DTD/sodipodi-0.dtd"
   xmlns="http://www.w3.org/2000/svg"
   xmlns:svg="http://www.w3.org/2000/svg">
  <sodipodi:namedview
     id="namedview3917"
     pagecolor="#ffffff"
     bordercolor="#666666"
     borderopacity="1.0"
     inkscape:showpageshadow="2"
     inkscape:pageopacity="0.0"
     inkscape:pagecheckerboard="0"
     inkscape:deskcolor="#d1d1d1"
     inkscape:document-units="mm"
     showgrid="false"
     inkscape:zoom="2.3786088"
     inkscape:cx="103.63201"
     inkscape:cy="102.16056"
     inkscape:window-width="1196"
     inkscape:window-height="794"
     inkscape:window-x="1319"
     inkscape:window-y="177"
     inkscape:window-maximized="0"
     inkscape:current-layer="layer1" />
  <defs
     id="defs3912" />
  <g
     inkscape:label="Layer 1"
     inkscape:groupmode="layer"
     id="layer1">
    <g
       id="g49403"
       transform="matrix(0.31859469,0,0,0.31859469,-4.4524437,-18.311312)">
      <path
         d="m 147.45571,165.35924 h -15.99142 c -1.7533,0 -3.175,-1.42169 -3.175,-3.175 v -27.71421 c 0,-1.75331 1.4217,-3.175 3.175,-3.175 1.75331,0 3.175,1.42169 3.175,3.175 v 24.53921 h 12.81642 c 1.75331,0 3.175,1.4217 3.175,3.175 0,1.75331 -1.42169,3.175 -3.175,3.175"
         style="fill:#329ef1;fill-opacity:1;fill-rule:nonzero;stroke:none;stroke-width:0.0352778"
         id="path3164" />
      <path
         d="m 131.46429,129.40061 c -18.07986,0 -32.787162,14.70731 -32.787162,32.78363 0,18.07986 14.707302,32.78717 32.787162,32.78717 18.07634,0 32.78364,-14.70731 32.78364,-32.78717 0,-18.07632 -14.7073,-32.78363 -32.78364,-32.78363 z m 0,71.9208 c -21.57941,0 -39.137162,-17.55775 -39.137162,-39.13717 0,-21.57941 17.557752,-39.13363 39.137162,-39.13363 21.57942,0 39.13364,17.55422 39.13364,39.13363 0,21.57942 -17.55422,39.13717 -39.13364,39.13717"
         style="fill:#329ef1;fill-opacity:1;fill-rule:nonzero;stroke:none;stroke-width:0.0352778"
         id="path3166" />
      <path
         d="m 82.167128,165.35924 c -0.783167,0 -1.552222,-0.28927 -2.144889,-0.83254 L 60.601823,146.75022 c -1.294695,-1.18533 -1.382889,-3.19264 -0.197556,-4.48733 1.181806,-1.2947 3.189111,-1.38289 4.483806,-0.19756 l 15.966722,14.61559 3.58775,-9.47562 c 0.620888,-1.64041 2.455333,-2.46944 4.095749,-1.84502 1.636889,0.61736 2.465917,2.4518 1.845028,4.09222 l -5.245805,13.85711 c -0.373945,0.98424 -1.210028,1.72156 -2.233084,1.96497 -0.246944,0.0564 -0.493888,0.0847 -0.737305,0.0847"
         style="fill:#329ef1;fill-opacity:1;fill-rule:nonzero;stroke:none;stroke-width:0.0352778"
         id="path3168" />
      <path
         d="m 82.167128,201.32141 c -21.579416,0 -39.137166,-17.55775 -39.137166,-39.13717 0,-21.57941 17.55775,-39.13363 39.137166,-39.13363 5.012972,0 9.895416,0.93486 14.513277,2.77989 1.629834,0.64911 2.423584,2.49767 1.770945,4.1275 -0.649111,1.6263 -2.497667,2.42006 -4.1275,1.76742 -3.862917,-1.54164 -7.955139,-2.32481 -12.156722,-2.32481 -18.076333,0 -32.787166,14.70731 -32.787166,32.78363 0,18.07986 14.710833,32.78717 32.787166,32.78717 4.427361,0 8.720666,-0.86783 12.759972,-2.57527 1.615722,-0.6844 3.478389,0.0706 4.162778,1.68628 0.680861,1.61572 -0.07408,3.47839 -1.689806,4.16278 -4.826,2.03905 -9.951861,3.07622 -15.232944,3.07622"
         style="fill:#329ef1;fill-opacity:1;fill-rule:nonzero;stroke:none;stroke-width:0.0352778"
         id="path3170" />
      <path
         d="m 179.26215,163.0168 c -0.73025,0 -1.46402,-0.25399 -2.06375,-0.76552 -1.32997,-1.13948 -1.48519,-3.14326 -0.34572,-4.47676 5.2317,-6.10658 8.11389,-13.91002 8.11389,-21.96394 0,-18.62666 -15.15533,-33.782 -33.782,-33.782 H 62.446851 c -18.626667,0 -33.782001,15.15534 -33.782001,33.782 0,6.92503 2.07786,13.57842 6.01133,19.24402 1.00189,1.44287 0.64559,3.41842 -0.79727,4.42031 -1.43934,0.99836 -3.41842,0.64207 -4.41678,-0.79728 -4.67783,-6.73452 -7.14728,-14.64027 -7.14728,-22.86705 0,-22.12975 18.00225,-40.131996 40.132001,-40.131996 h 88.737719 c 22.12975,0 40.132,18.002246 40.132,40.131996 0,9.56734 -3.42194,18.83834 -9.64142,26.09497 -0.62794,0.73379 -1.51694,1.11125 -2.413,1.11125"
         style="fill:#329ef1;fill-opacity:1;fill-rule:nonzero;stroke:none;stroke-width:0.0352778"
         id="path3172" />
      <path
         d="m 33.3568,160.74844 c -0.17992,0 -0.36337,-0.0176 -0.54328,-0.0494 l -11.49703,-1.98967 c -1.72508,-0.29986 -2.88572,-1.9438 -2.58586,-3.67241 0.29986,-1.72509 1.94733,-2.8822 3.67242,-2.58586 l 8.36788,1.44991 1.44992,-8.36788 c 0.29986,-1.72861 1.94381,-2.88572 3.66889,-2.58586 1.72861,0.29986 2.88572,1.9438 2.58586,3.67241 l -1.98967,11.4935 c -0.14463,0.82903 -0.61383,1.56986 -1.30175,2.05316 -0.53622,0.381 -1.17827,0.58209 -1.82738,0.58209"
         style="fill:#329ef1;fill-opacity:1;fill-rule:nonzero;stroke:none;stroke-width:0.0352778"
         id="path3174" />
    </g>
  </g>
</svg>
