<?xml version="1.0" encoding="UTF-8" standalone="no"?>
<!-- Created with Inkscape (http://www.inkscape.org/) -->

<svg
   width="58"
   height="58"
   viewBox="0 0 58 58"
   version="1.1"
   id="svg3915"
   inkscape:version="1.2.1 (9c6d41e4, 2022-07-14)"
   sodipodi:docname="cron-jobs.svg"
   xmlns:inkscape="http://www.inkscape.org/namespaces/inkscape"
   xmlns:sodipodi="http://sodipodi.sourceforge.net/DTD/sodipodi-0.dtd"
   xmlns="http://www.w3.org/2000/svg"
   xmlns:svg="http://www.w3.org/2000/svg">
  <sodipodi:namedview
     id="namedview3917"
     pagecolor="#ffffff"
     bordercolor="#666666"
     borderopacity="1.0"
     inkscape:showpageshadow="2"
     inkscape:pageopacity="0.0"
     inkscape:pagecheckerboard="0"
     inkscape:deskcolor="#d1d1d1"
     inkscape:document-units="mm"
     showgrid="false"
     inkscape:zoom="4.7572176"
     inkscape:cx="18.603311"
     inkscape:cy="31.95145"
     inkscape:window-width="1196"
     inkscape:window-height="794"
     inkscape:window-x="283"
     inkscape:window-y="205"
     inkscape:window-maximized="0"
     inkscape:current-layer="layer1" />
  <defs
     id="defs3912" />
  <g
     inkscape:label="Layer 1"
     inkscape:groupmode="layer"
     id="layer1">
    <path
       d="m 29.187101,38.857159 h -5.094782 c -0.558592,0 -1.011538,-0.452943 -1.011538,-1.011538 v -8.8296 c 0,-0.558596 0.452946,-1.011539 1.011538,-1.011539 0.558595,0 1.011538,0.452943 1.011538,1.011539 v 7.818061 h 4.083244 c 0.558595,0 1.011539,0.452946 1.011539,1.011539 0,0.558594 -0.452943,1.011538 -1.011539,1.011538"
       style="fill:#1dcb11;fill-opacity:1;fill-rule:nonzero;stroke:none;stroke-width:0.0112393"
       id="path3164" />
    <path
       d="m 35.084965,37.431381 c 0,-5.760147 -4.685671,-10.445816 -10.444691,-10.445816 -5.760147,0 -10.445818,4.685669 -10.445818,10.445816 0,5.759026 4.685671,10.444694 10.445818,10.444694 5.75902,0 10.444691,-4.685668 10.444691,-10.444694 z m -22.913585,0 c 0,-6.875085 5.593806,-12.468892 12.468894,-12.468892 6.875086,0 12.467767,5.593807 12.467767,12.468892 0,6.875089 -5.592681,12.46777 -12.467767,12.46777 -6.875088,0 -12.468894,-5.592681 -12.468894,-12.46777"
       style="fill:#1dcb11;fill-opacity:1;fill-rule:nonzero;stroke:none;stroke-width:0.0112393"
       id="path3166" />
    <path
       d="m 24.897713,23.311121 c -0.249513,0 -0.49453,-0.09216 -0.68335,-0.265243 l -6.187242,-5.663492 c -0.412483,-0.37764 -0.440581,-1.017158 -0.06294,-1.42964 0.376517,-0.412484 1.016034,-0.440581 1.428517,-0.06294 l 5.086913,4.656449 1.143038,-3.018882 c 0.197811,-0.522626 0.782256,-0.786751 1.304884,-0.587814 0.521504,0.196688 0.785628,0.781131 0.587816,1.30376 l -1.671286,4.414802 c -0.119137,0.313573 -0.385508,0.548479 -0.711448,0.626029 -0.07868,0.01797 -0.157351,0.02698 -0.234902,0.02698"
       style="fill:#1dcb11;fill-opacity:1;fill-rule:nonzero;stroke:none;stroke-width:0.0112393"
       id="path3168" />
    <path
       d="m 12.17138,21.725567 c 0,-6.875087 5.593806,-12.4688932 12.468894,-12.4688932 6.875086,0 12.467767,5.5938062 12.467767,12.4688932 0,1.597106 -0.297841,3.152627 -0.885658,4.623853 -0.206803,0.519257 -0.795745,0.772141 -1.315,0.564214 -0.51813,-0.206804 -0.771018,-0.795744 -0.56309,-1.315 0.491158,-1.230705 0.740672,-2.534465 0.740672,-3.873067 0,-5.759024 -4.685671,-10.445817 -10.444691,-10.445817 -5.760147,0 -10.445818,4.686793 -10.445818,10.445817 0,1.410534 0.276486,2.778358 0.820467,4.065259 0.218047,0.514761 -0.02249,1.108197 -0.537239,1.326239 -0.51476,0.216919 -1.108197,-0.0236 -1.32624,-0.538363 -0.649631,-1.537538 -0.980067,-3.17061 -0.980067,-4.853135"
       style="fill:#1dcb11;fill-opacity:1;fill-rule:nonzero;stroke:none;stroke-width:0.0112393"
       id="path3170" />
    <path
       d="m 24.375025,52.659526 c 0,-0.232654 0.08092,-0.466429 0.243891,-0.6575 0.363032,-0.423722 1.001426,-0.473174 1.426272,-0.110145 1.945524,1.666792 4.431658,2.585042 6.997594,2.585042 5.934355,0 10.762766,-4.828407 10.762766,-10.762765 V 15.442792 c 0,-5.9343577 -4.828411,-10.7627666 -10.762766,-10.7627666 -2.206277,0 -4.326012,0.6619952 -6.131042,1.9151778 -0.459691,0.3191969 -1.089091,0.2056816 -1.408288,-0.254006 -0.318072,-0.4585661 -0.20456,-1.0890904 0.25401,-1.4071626 2.145582,-1.4903318 4.664312,-2.2770855 7.28532,-2.2770855 7.050421,0 12.785841,5.7354213 12.785841,12.7858429 v 28.271366 c 0,7.05042 -5.73542,12.785842 -12.785841,12.785842 -3.048103,0 -6.001795,-1.090212 -8.313719,-3.071706 -0.233781,-0.200058 -0.354038,-0.483289 -0.354038,-0.768768"
       style="fill:#1dcb11;fill-opacity:1;fill-rule:nonzero;stroke:none;stroke-width:0.0112393"
       id="path3172" />
    <path
       d="m 25.097713,6.1748558 c 0,-0.057322 0.0056,-0.1157678 0.01574,-0.1730862 l 0.633898,-3.6628927 c 0.09553,-0.5496013 0.619285,-0.919375 1.170011,-0.8238412 0.549604,0.095534 0.918253,0.620409 0.823841,1.1700135 l -0.461934,2.6659621 2.665963,0.4619368 c 0.550726,0.095534 0.919375,0.6192876 0.823841,1.1688889 -0.09553,0.550726 -0.619285,0.9193751 -1.17001,0.8238413 L 25.937292,7.17178 C 25.673168,7.1257016 25.437143,6.976217 25.283167,6.7570493 25.161782,6.5862125 25.097716,6.3816588 25.097716,6.1748558"
       style="fill:#1dcb11;fill-opacity:1;fill-rule:nonzero;stroke:none;stroke-width:0.0112393"
       id="path3174" />
  </g>
</svg>
