<?xml version="1.0" encoding="UTF-8" standalone="no"?><!--Created with Inkscape (http://www.inkscape.org/)--><svg xmlns="http://www.w3.org/2000/svg" width="58" height="58" viewBox="0 0 58 58"><g fill="#1dcb11"><path d="M29.187 38.857h-5.095a1.012 1.012 0 01-1.011-1.011v-8.83a1.012 1.012 0 012.023 0v7.818h4.083a1.012 1.012 0 010 2.023"/><path d="M35.085 37.431c0-5.76-4.686-10.445-10.445-10.445-5.76 0-10.446 4.685-10.446 10.445 0 5.76 4.686 10.445 10.446 10.445s10.445-4.686 10.445-10.445zm-22.914 0c0-6.875 5.594-12.469 12.47-12.469 6.874 0 12.467 5.594 12.467 12.47 0 6.874-5.593 12.467-12.468 12.467s-12.469-5.593-12.469-12.468M24.898 23.311c-.25 0-.495-.092-.684-.265l-6.187-5.664a1.011 1.011 0 111.366-1.492l5.087 4.656 1.143-3.019a1.011 1.011 0 111.892.716l-1.67 4.415a1.013 1.013 0 01-.947.653"/><path d="M12.171 21.726c0-6.876 5.594-12.47 12.47-12.47 6.874 0 12.467 5.594 12.467 12.47 0 1.597-.298 3.152-.886 4.623a1.01 1.01 0 11-1.878-.75c.491-1.231.741-2.535.741-3.873 0-5.76-4.686-10.446-10.445-10.446-5.76 0-10.446 4.687-10.446 10.446 0 1.41.277 2.778.82 4.065a1.012 1.012 0 11-1.863.788c-.65-1.538-.98-3.17-.98-4.853"/><path d="M24.375 52.66a1.011 1.011 0 011.67-.768 10.763 10.763 0 006.998 2.585c5.934 0 10.763-4.828 10.763-10.763V15.443c0-5.935-4.829-10.763-10.763-10.763-2.206 0-4.326.662-6.131 1.915a1.01 1.01 0 11-1.155-1.661 12.708 12.708 0 017.286-2.277c7.05 0 12.786 5.735 12.786 12.786v28.271c0 7.05-5.736 12.786-12.786 12.786-3.048 0-6.002-1.09-8.314-3.072a1.009 1.009 0 01-.354-.768"/><path d="M25.098 6.175c0-.057.005-.116.015-.173l.634-3.663a1.013 1.013 0 011.994.346l-.462 2.666 2.666.462a1.011 1.011 0 11-.346 1.993l-3.662-.634a1.013 1.013 0 01-.84-.997"/></g></svg>