<?xml version="1.0" encoding="UTF-8" standalone="no"?>
<!-- Created with Inkscape (http://www.inkscape.org/) -->

<svg
   width="58"
   height="58"
   viewBox="0 0 58 58"
   version="1.1"
   id="svg3915"
   inkscape:version="1.2.1 (9c6d41e4, 2022-07-14)"
   sodipodi:docname="job-control.svg"
   xmlns:inkscape="http://www.inkscape.org/namespaces/inkscape"
   xmlns:sodipodi="http://sodipodi.sourceforge.net/DTD/sodipodi-0.dtd"
   xmlns="http://www.w3.org/2000/svg"
   xmlns:svg="http://www.w3.org/2000/svg">
  <sodipodi:namedview
     id="namedview3917"
     pagecolor="#ffffff"
     bordercolor="#666666"
     borderopacity="1.0"
     inkscape:showpageshadow="2"
     inkscape:pageopacity="0.0"
     inkscape:pagecheckerboard="0"
     inkscape:deskcolor="#d1d1d1"
     inkscape:document-units="mm"
     showgrid="false"
     inkscape:zoom="4.7572176"
     inkscape:cx="39.203589"
     inkscape:cy="52.972141"
     inkscape:window-width="1196"
     inkscape:window-height="794"
     inkscape:window-x="693"
     inkscape:window-y="905"
     inkscape:window-maximized="0"
     inkscape:current-layer="layer1" />
  <defs
     id="defs3912" />
  <g
     inkscape:label="Layer 1"
     inkscape:groupmode="layer"
     id="layer1">
    <g
       id="g5426"
       transform="matrix(0.31493518,0,0,0.31493518,8.3904166,-1.1216839)"
       style="fill:#329ef1;fill-opacity:1">
      <path
         d="m 64.93448,163.33507 c -1.753306,0 -3.175,-1.42169 -3.175,-3.175 0,-1.7533 1.421694,-3.175 3.175,-3.175 34.057166,0 61.76433,-27.70716 61.76433,-61.760803 0,-34.057166 -27.707164,-61.764332 -61.76433,-61.764332 -1.753306,0 -3.175,-1.421694 -3.175,-3.175 0,-1.753305 1.421694,-3.174999 3.175,-3.174999 37.56025,0 68.11433,30.554082 68.11433,68.114331 0,37.556723 -30.55408,68.110803 -68.11433,68.110803"
         style="fill:#329ef1;fill-opacity:1;fill-rule:nonzero;stroke:none;stroke-width:0.0352778"
         id="path3188" />
      <path
         d="m 75.69773,43.637574 c -0.663222,0 -1.3335,-0.208139 -1.905,-0.635 L 60.306036,32.867269 c -0.804334,-0.60325 -1.277056,-1.55575 -1.27,-2.561167 0.0071,-1.005417 0.490361,-1.947333 1.305277,-2.54 l 13.486695,-9.846027 c 1.418166,-1.033639 3.404305,-0.723195 4.437944,0.694972 1.033639,1.414639 0.723194,3.400778 -0.694972,4.434416 l -10.022417,7.316611 10.061222,7.560028 c 1.400528,1.051278 1.68275,3.040944 0.627945,4.445 -0.620889,0.829028 -1.573389,1.266472 -2.54,1.266472"
         style="fill:#329ef1;fill-opacity:1;fill-rule:nonzero;stroke:none;stroke-width:0.0352778"
         id="path3190" />
      <path
         d="m 21.909703,14.674519 c -9.775472,0 -17.7270828,7.951611 -17.7270828,17.727083 0,9.775472 7.9516108,17.727083 17.7270828,17.727083 9.771944,0 17.723555,-7.951611 17.723555,-17.727083 0,-9.775472 -7.951611,-17.727083 -17.723555,-17.727083 z m 0,41.804166 c -13.2750274,0 -24.0770827,-10.802055 -24.0770827,-24.077083 0,-13.275027 10.8020553,-24.0770827 24.0770827,-24.0770827 13.275028,0 24.073555,10.8020557 24.073555,24.0770827 0,13.275028 -10.798527,24.077083 -24.073555,24.077083"
         style="fill:#329ef1;fill-opacity:1;fill-rule:nonzero;stroke:none;stroke-width:0.0352778"
         id="path3192" />
      <path
         d="m 21.909703,77.920518 c -9.775472,0 -17.7270828,7.951611 -17.7270828,17.723555 0,9.775467 7.9516108,17.727087 17.7270828,17.727087 9.771944,0 17.723555,-7.95162 17.723555,-17.727087 0,-9.771944 -7.951611,-17.723555 -17.723555,-17.723555 z m 0,41.800642 c -13.2750274,0 -24.0770827,-10.80206 -24.0770827,-24.077087 0,-13.275028 10.8020553,-24.073555 24.0770827,-24.073555 13.275028,0 24.073555,10.798527 24.073555,24.073555 0,13.275027 -10.798527,24.077087 -24.073555,24.077087"
         style="fill:#329ef1;fill-opacity:1;fill-rule:nonzero;stroke:none;stroke-width:0.0352778"
         id="path3194" />
      <path
         d="m 21.909703,141.16299 c -9.775472,0 -17.7270828,7.95161 -17.7270828,17.72355 0,9.77548 7.9516108,17.72709 17.7270828,17.72709 9.771944,0 17.723555,-7.95161 17.723555,-17.72709 0,-9.77194 -7.951611,-17.72355 -17.723555,-17.72355 z m 0,41.80064 c -13.2750274,0 -24.0770827,-10.79853 -24.0770827,-24.07709 0,-13.27502 10.8020553,-24.07355 24.0770827,-24.07355 13.275028,0 24.073555,10.79853 24.073555,24.07355 0,13.27856 -10.798527,24.07709 -24.073555,24.07709"
         style="fill:#329ef1;fill-opacity:1;fill-rule:nonzero;stroke:none;stroke-width:0.0352778"
         id="path3196" />
      <path
         d="m 21.909703,153.94765 c -2.723444,0 -4.938889,2.21545 -4.938889,4.93889 0,2.72698 2.215445,4.94242 4.938889,4.94242 2.723445,0 4.938889,-2.21544 4.938889,-4.94242 0,-2.72344 -2.215444,-4.93889 -4.938889,-4.93889 z m 0,16.23131 c -6.226528,0 -11.288889,-5.06589 -11.288889,-11.29242 0,-6.223 5.062361,-11.28888 11.288889,-11.28888 6.226528,0 11.288889,5.06588 11.288889,11.28888 0,6.22653 -5.062361,11.29242 -11.288889,11.29242"
         style="fill:#329ef1;fill-opacity:1;fill-rule:nonzero;stroke:none;stroke-width:0.0352778"
         id="path3198" />
    </g>
  </g>
</svg>
