<?xml version="1.0" encoding="UTF-8" standalone="no"?><!--Created with Inkscape (http://www.inkscape.org/)--><svg xmlns="http://www.w3.org/2000/svg" width="58" height="58" viewBox="0 0 58 58"><g fill="#f18532"><path d="M23.69 50.356c-11.84 0-21.474-9.634-21.474-21.475 0-11.842 9.634-21.475 21.475-21.475 3.003 0 5.909.608 8.636 1.808a21.407 21.407 0 016.964 4.908.895.895 0 01-1.3 1.231c-3.757-3.971-8.836-6.157-14.3-6.157-10.854 0-19.685 8.83-19.685 19.685 0 10.854 8.83 19.685 19.685 19.685 2.524 0 4.982-.471 7.305-1.4a.895.895 0 01.664 1.662 21.36 21.36 0 01-7.97 1.528"/><path d="M23.69 29.776a.889.889 0 01-.602-.234l-9.827-8.966a.896.896 0 011.207-1.322l9.825 8.965a.895.895 0 01-.602 1.557M23.722 12.16h-.001a.597.597 0 01-.595-.598l.006-3.262c0-.33.267-.595.596-.595h.001c.33 0 .595.267.595.596l-.006 3.263a.597.597 0 01-.596.595M23.654 50.058h-.001a.597.597 0 01-.595-.598l.006-3.263a.597.597 0 01.596-.595h.001c.33 0 .597.268.595.597l-.005 3.262c0 .33-.268.597-.597.597M6.373 29.447L3.11 29.44a.597.597 0 01.001-1.193h.001l3.262.006a.596.596 0 01-.001 1.193M9.113 44.003a.596.596 0 01-.421-1.019l2.31-2.303a.597.597 0 01.843.846l-2.31 2.303a.597.597 0 01-.422.173M11.467 17.21a.595.595 0 01-.422-.176l-2.303-2.31a.597.597 0 01.845-.843l2.302 2.31a.596.596 0 01-.422 1.018M16.514 12.702a.597.597 0 01-.55-.362l-.918-2.145a.596.596 0 111.098-.47l.917 2.146a.595.595 0 01-.547.831M4.77 37.574a.597.597 0 01-.235-1.146l2.147-.918a.597.597 0 01.469 1.097l-2.146.918a.59.59 0 01-.235.049M16.036 48.58a.597.597 0 01-.554-.818l.87-2.166a.596.596 0 111.106.443l-.868 2.167a.597.597 0 01-.554.375M30.477 12.54a.597.597 0 01-.554-.818l.869-2.167a.596.596 0 111.107.444l-.869 2.166a.597.597 0 01-.553.375M6.753 22.69a.582.582 0 01-.222-.043l-2.165-.867a.597.597 0 01.443-1.107l2.166.867a.596.596 0 01-.222 1.15M33.246 27.82l9.005 2.587a.893.893 0 01.573 1.217l-8.359 19.16 18.68-21.062-9.11-2.484a.893.893 0 01-.583-1.225l8.34-18.832zm-1.86 28.68a.894.894 0 01-.82-1.253l10.21-23.402-9.398-2.701a.893.893 0 01-.42-1.458l23.265-25.89a.895.895 0 011.484.961L45.51 25.785l9.495 2.59a.894.894 0 01.434 1.457L32.055 56.198a.893.893 0 01-.669.302"/></g></svg>