<?xml version="1.0" encoding="UTF-8" standalone="no"?>
<!-- Created with Inkscape (http://www.inkscape.org/) -->

<svg
   width="58"
   height="58"
   viewBox="0 0 58 58"
   version="1.1"
   id="svg3915"
   inkscape:version="1.2.1 (9c6d41e4, 2022-07-14)"
   sodipodi:docname="migration.svg"
   xmlns:inkscape="http://www.inkscape.org/namespaces/inkscape"
   xmlns:sodipodi="http://sodipodi.sourceforge.net/DTD/sodipodi-0.dtd"
   xmlns="http://www.w3.org/2000/svg"
   xmlns:svg="http://www.w3.org/2000/svg">
  <sodipodi:namedview
     id="namedview3917"
     pagecolor="#ffffff"
     bordercolor="#666666"
     borderopacity="1.0"
     inkscape:showpageshadow="2"
     inkscape:pageopacity="0.0"
     inkscape:pagecheckerboard="0"
     inkscape:deskcolor="#d1d1d1"
     inkscape:document-units="mm"
     showgrid="false"
     inkscape:zoom="2.3786088"
     inkscape:cx="89.75835"
     inkscape:cy="72.731591"
     inkscape:window-width="1196"
     inkscape:window-height="794"
     inkscape:window-x="1309"
     inkscape:window-y="905"
     inkscape:window-maximized="0"
     inkscape:current-layer="layer1" />
  <defs
     id="defs3912" />
  <g
     inkscape:label="Layer 1"
     inkscape:groupmode="layer"
     id="layer1">
    <g
       id="g8244"
       transform="matrix(0.32750518,0,0,0.32750518,47.753142,-0.26315165)"
       style="fill:#f18532;fill-opacity:1">
      <path
         d="m -98.236917,173.31986 c -0.300919,0 -0.606777,-0.0494 -0.90558,-0.15875 -1.373013,-0.50095 -2.080683,-2.01789 -1.580443,-3.39372 L -63.671751,68.065083 c 0.499886,-1.372305 2.017889,-2.077861 3.391606,-1.580444 1.372658,0.500944 2.08033,2.021416 1.580091,3.393722 L -95.750892,171.58066 c -0.39123,1.07245 -1.405819,1.7392 -2.486025,1.7392"
         style="fill:#f18532;fill-opacity:1;fill-rule:nonzero;stroke:none;stroke-width:0.0352778"
         id="path7114" />
      <path
         d="m -15.908816,173.31986 c -1.080205,0 -2.094794,-0.66675 -2.486025,-1.7392 L -55.446031,69.878361 c -0.500239,-1.372306 0.207433,-2.892778 1.580091,-3.393722 1.373011,-0.497417 2.89172,0.208139 3.391958,1.580444 l 37.051191,101.702307 c 0.499886,1.37583 -0.207433,2.89277 -1.580444,3.39372 -0.299156,0.10936 -0.604661,0.15875 -0.905581,0.15875"
         style="fill:#f18532;fill-opacity:1;fill-rule:nonzero;stroke:none;stroke-width:0.0352778"
         id="path7116" />
      <path
         d="m -43.231807,98.322833 h -27.682471 c -1.461206,0 -2.645834,-1.185334 -2.645834,-2.645834 0,-1.464027 1.184628,-2.645833 2.645834,-2.645833 h 27.682471 c 1.461559,0 2.645834,1.181806 2.645834,2.645833 0,1.4605 -1.184275,2.645834 -2.645834,2.645834"
         style="fill:#f18532;fill-opacity:1;fill-rule:nonzero;stroke:none;stroke-width:0.0352778"
         id="path7118" />
      <path
         d="m -36.049251,118.03605 h -42.047583 c -1.461205,0 -2.645833,-1.1818 -2.645833,-2.64583 0,-1.4605 1.184628,-2.64583 2.645833,-2.64583 h 42.047583 c 1.461205,0 2.645833,1.18533 2.645833,2.64583 0,1.46403 -1.184628,2.64583 -2.645833,2.64583"
         style="fill:#f18532;fill-opacity:1;fill-rule:nonzero;stroke:none;stroke-width:0.0352778"
         id="path7120" />
      <path
         d="m -28.866696,137.7528 h -56.41234 c -1.461206,0 -2.645834,-1.18533 -2.645834,-2.64583 0,-1.4605 1.184628,-2.64583 2.645834,-2.64583 h 56.41234 c 1.461206,0 2.645833,1.18533 2.645833,2.64583 0,1.4605 -1.184627,2.64583 -2.645833,2.64583"
         style="fill:#f18532;fill-opacity:1;fill-rule:nonzero;stroke:none;stroke-width:0.0352778"
         id="path7122" />
      <path
         d="m -22.500468,157.46603 h -69.144796 c -1.461205,0 -2.645833,-1.18181 -2.645833,-2.64584 0,-1.4605 1.184628,-2.64583 2.645833,-2.64583 h 69.144796 c 1.461205,0 2.645833,1.18533 2.645833,2.64583 0,1.46403 -1.184628,2.64584 -2.645833,2.64584"
         style="fill:#f18532;fill-opacity:1;fill-rule:nonzero;stroke:none;stroke-width:0.0352778"
         id="path7124" />
      <path
         d="m -6.1792047,86.843444 c -1.4612056,0 -2.6458333,-1.185333 -2.6458333,-2.645833 0,-1.4605 1.1846277,-2.645834 2.6458333,-2.645834 8.8952914,0 16.1321746,-7.235472 16.1321746,-16.132527 0,-8.893528 -7.2368832,-16.132527 -16.1321746,-16.132527 -1.647825,0 -3.2737777,0.246944 -4.8327023,0.737305 -0.778228,0.243417 -1.625953,0.116417 -2.296584,-0.34925 -0.670983,-0.465667 -1.090436,-1.210028 -1.136297,-2.024944 -0.482953,-8.526639 -7.556147,-15.204722 -16.1036,-15.204722 -1.095375,0 -2.189691,0.109361 -3.252258,0.328083 -1.2954,0.264583 -2.58833,-0.469194 -3.02648,-1.718028 -4.2799,-12.188472 -15.836547,-20.379971 -28.757386,-20.379971 -16.797866,0 -30.46483,13.659555 -30.476471,30.455305 0,0.01058 0,0.01764 0,0.02822 0,0.705555 -0.282928,1.382889 -0.785989,1.880305 -0.502708,0.497417 -1.176161,0.769056 -1.890536,0.765528 -0.06103,0 -0.121709,-0.0035 -0.182386,-0.0035 l -0.05821,-0.0035 c -10.405176,0 -18.873506,8.470195 -18.873506,18.877139 0,10.410472 8.46833,18.877138 18.877034,18.877138 1.461206,0 2.645833,1.185334 2.645833,2.645834 0,1.4605 -1.184627,2.645833 -2.645833,2.645833 -13.326564,0 -24.168694,-10.840861 -24.168694,-24.168805 0,-12.555361 9.62243,-22.905861 21.87952,-24.059444 1.306688,-18.545527 16.80986,-33.2316659 35.679237,-33.2316659 14.427553,0 27.406247,8.7030279 32.958616,21.8686939 0.689681,-0.06703 1.383595,-0.09878 2.077508,-0.09878 10.296878,0 18.983325,7.298972 20.98675,17.109722 1.114425,-0.179917 2.2450777,-0.268111 3.3824333,-0.268111 11.8131164,0 21.4238407,9.613194 21.4238407,21.424194 0,11.814528 -9.6107243,21.424194 -21.4238407,21.424194"
         style="fill:#f18532;fill-opacity:1;fill-rule:nonzero;stroke:none;stroke-width:0.0352778"
         id="path7126" />
      <path
         d="m -45.302965,38.812751 c -0.600781,0 -1.204383,-0.204612 -1.700389,-0.620889 -1.119011,-0.941917 -1.264003,-2.610556 -0.324203,-3.728861 5.18407,-6.170084 12.452703,-6.88975 12.759972,-6.917972 1.455209,-0.130528 2.741084,0.941916 2.871964,2.398888 0.130528,1.449917 -0.936272,2.734028 -2.385483,2.871611 -0.105833,0.01058 -5.470172,0.617362 -9.1948,5.051778 -0.522817,0.624417 -1.272469,0.945445 -2.027061,0.945445"
         style="fill:#f18532;fill-opacity:1;fill-rule:nonzero;stroke:none;stroke-width:0.0352778"
         id="path7128" />
      <path
         d="m -14.376702,61.1965 c -0.434975,0 -0.875594,-0.109361 -1.282347,-0.335139 -1.275997,-0.709083 -1.736725,-2.314222 -1.030817,-3.591277 0.02822,-0.05292 2.682523,-4.942417 2.252486,-9.525 -0.136877,-1.453445 0.932039,-2.744611 2.386895,-2.882195 1.456972,-0.137583 2.7449637,0.934861 2.8814887,2.388306 0.5856111,6.237111 -2.7502557,12.326055 -2.8924247,12.583583 -0.483659,0.871361 -1.385359,1.361722 -2.315281,1.361722"
         style="fill:#f18532;fill-opacity:1;fill-rule:nonzero;stroke:none;stroke-width:0.0352778"
         id="path7130" />
      <path
         d="m -81.134956,50.034611 c -0.693208,0 -1.385005,-0.268111 -1.903941,-0.807861 -0.25647,-0.261055 -6.196895,-6.226527 -15.717308,-5.439833 -1.454505,0.119945 -2.734385,-0.959555 -2.855035,-2.416528 -0.12065,-1.456972 0.96203,-2.734027 2.418296,-2.853972 12.114388,-1.001889 19.653249,6.713361 19.96828,7.044972 1.010708,1.054806 0.974725,2.726972 -0.08079,3.739445 -0.512586,0.490361 -1.171928,0.733777 -1.829506,0.733777"
         style="fill:#f18532;fill-opacity:1;fill-rule:nonzero;stroke:none;stroke-width:0.0352778"
         id="path7132" />
      <path
         d="m -141.93945,121.8778 c -0.71161,0 -1.42103,-0.28222 -1.94234,-0.84666 -0.9926,-1.07245 -0.92811,-2.74814 0.14414,-3.73945 l 14.54438,-13.46552 c 0.99025,-0.9137 2.51241,-0.93839 3.53148,-0.0529 l 11.89715,10.32228 c 1.1037,0.95955 1.22177,2.63172 0.26391,3.73591 -0.95761,1.10067 -2.62904,1.22061 -3.73242,0.26106 l -10.10599,-8.77006 -12.80375,11.85334 c -0.50906,0.46919 -1.15355,0.70202 -1.79656,0.70202"
         style="fill:#f18532;fill-opacity:1;fill-rule:nonzero;stroke:none;stroke-width:0.0352778"
         id="path7134" />
      <path
         d="m -127.12056,131.4663 c -0.63722,0 -1.27593,-0.22577 -1.78347,-0.69144 -1.07915,-0.98425 -1.15506,-2.65994 -0.16965,-3.73592 l 28.25796,-30.945663 c 0.918278,-1.005417 2.450392,-1.150055 3.540828,-0.335139 l 13.58265,10.181162 c 1.169106,0.87842 1.406878,2.53648 0.530225,3.70417 -0.876653,1.17122 -2.535061,1.40758 -3.703814,0.5327 l -11.661422,-8.74184 -26.638847,29.1712 c -0.52187,0.5715 -1.23705,0.86077 -1.95446,0.86077"
         style="fill:#f18532;fill-opacity:1;fill-rule:nonzero;stroke:none;stroke-width:0.0352778"
         id="path7136" />
      <path
         d="m -111.7615,160.77861 c -0.3423,0 -0.69,-0.067 -1.02528,-0.20814 -1.3469,-0.56797 -1.97901,-2.12019 -1.41206,-3.46781 l 8.64214,-20.52813 -6.00858,-4.75545 c -0.67674,-0.53622 -1.0498,-1.36878 -0.99921,-2.23308 0.0506,-0.86078 0.51826,-1.64395 1.25303,-2.0955 l 9.80394,-6.04308 V 97.874805 c 0,-1.4605 1.18428,-2.645833 2.645834,-2.645833 1.461206,0 2.645833,1.185333 2.645833,2.645833 v 25.050745 c 0,0.91723 -0.47625,1.77095 -1.257652,2.25073 l -7.845425,4.83658 4.62315,3.65831 c 0.931688,0.74083 1.257302,2.0073 0.796575,3.10444 l -9.422345,22.38022 c -0.4258,1.01247 -1.40726,1.62278 -2.43995,1.62278"
         style="fill:#f18532;fill-opacity:1;fill-rule:nonzero;stroke:none;stroke-width:0.0352778"
         id="path7138" />
      <path
         d="m 27.418292,121.8778 c -0.643114,0 -1.287639,-0.23283 -1.796697,-0.70202 L 12.818231,109.32244 2.7122062,118.0925 c -1.1041944,0.95955 -2.77494995,0.83961 -3.7323888,-0.26106 -0.9581444,-1.10419 -0.8399639,-2.77636 0.26387775,-3.73591 L 11.140773,103.77325 c 1.019175,-0.88547 2.541058,-0.86078 3.531658,0.0529 L 29.2164,117.29169 c 1.072444,0.99131 1.13665,2.667 0.144286,3.73945 -0.521405,0.56444 -1.230841,0.84666 -1.942394,0.84666"
         style="fill:#f18532;fill-opacity:1;fill-rule:nonzero;stroke:none;stroke-width:0.0352778"
         id="path7140" />
      <path
         d="m 12.599509,131.4663 c -0.71755,0 -1.432631,-0.28927 -1.954389,-0.86077 l -26.638955,-29.1712 -11.661422,8.74184 c -1.169106,0.87488 -2.827514,0.63852 -3.703814,-0.5327 -0.876653,-1.16769 -0.63888,-2.82575 0.530225,-3.70417 l 13.583003,-10.181162 c 1.090083,-0.814916 2.621844,-0.670278 3.540477,0.335139 l 28.257852,30.945663 c 0.985309,1.07598 0.909462,2.75167 -0.169686,3.73592 -0.507647,0.46567 -1.146527,0.69144 -1.783291,0.69144"
         style="fill:#f18532;fill-opacity:1;fill-rule:nonzero;stroke:none;stroke-width:0.0352778"
         id="path7142" />
      <path
         d="m -1.5821576,160.77508 c -0.9771944,0.004 -1.9166416,-0.53975 -2.3766638,-1.47814 L -14.953493,136.91319 c -0.53587,-1.09008 -0.259645,-2.40594 0.669219,-3.18911 l 4.4312416,-3.73591 -7.2763946,-4.86481 c -0.734483,-0.49036 -1.175455,-1.31586 -1.175455,-2.19781 V 97.874805 c 0,-1.4605 1.184628,-2.645833 2.645833,-2.645833 1.461206,0 2.645833,1.185333 2.645833,2.645833 v 23.636115 l 9.025114,6.0325 c 0.6914444,0.46213 1.1250083,1.22061 1.1712222,2.05316 0.046567,0.82903 -0.3002139,1.63336 -0.9359194,2.16959 l -5.5396694,4.67077 10.08344705,20.52814 c 0.64417225,1.31233 0.10301111,2.89631 -1.20861664,3.54189 -0.37500277,0.18344 -0.77293611,0.26811 -1.16451941,0.26811"
         style="fill:#f18532;fill-opacity:1;fill-rule:nonzero;stroke:none;stroke-width:0.0352778"
         id="path7144" />
      <path
         d="M -50.584401,80.990861 H -64.00442 c -1.461206,0 -2.645833,-1.185334 -2.645833,-2.645834 0,-1.464027 1.184627,-2.645833 2.645833,-2.645833 h 13.420019 c 1.461206,0 2.645833,1.181806 2.645833,2.645833 0,1.4605 -1.184627,2.645834 -2.645833,2.645834"
         style="fill:#f18532;fill-opacity:1;fill-rule:nonzero;stroke:none;stroke-width:0.0352778"
         id="path7146" />
    </g>
  </g>
</svg>
