<?xml version="1.0" encoding="UTF-8" standalone="no"?><!--Created with Inkscape (http://www.inkscape.org/)--><svg xmlns="http://www.w3.org/2000/svg" width="58" height="58" viewBox="0 0 58 58"><g fill="#f18532"><path d="M15.58 56.5a.867.867 0 01-.814-1.163L26.9 22.029a.867.867 0 011.629.593L16.394 55.93a.867.867 0 01-.814.57M42.543 56.5a.867.867 0 01-.814-.57L29.594 22.622a.867.867 0 011.629-.593l12.134 33.308a.867.867 0 01-.814 1.163"/><path d="M33.595 31.938h-9.067a.867.867 0 010-1.733h9.067a.866.866 0 110 1.733M35.947 38.394H22.176a.866.866 0 110-1.733h13.77a.867.867 0 010 1.733M38.3 44.852H19.823a.867.867 0 010-1.733h18.475a.867.867 0 010 1.733M40.384 51.308H17.74a.866.866 0 110-1.733h22.645a.867.867 0 010 1.733M45.73 28.179a.867.867 0 010-1.734 5.29 5.29 0 005.283-5.283 5.29 5.29 0 00-6.866-5.042.865.865 0 01-1.125-.778 5.283 5.283 0 00-6.339-4.872.867.867 0 01-.99-.562 9.995 9.995 0 00-9.42-6.675c-5.5 0-9.977 4.474-9.98 9.974v.01a.866.866 0 01-.877.866l-.06-.001-.019-.001a6.19 6.19 0 00-6.18 6.182 6.189 6.189 0 006.181 6.182.867.867 0 010 1.734c-4.364 0-7.915-3.55-7.915-7.916 0-4.112 3.151-7.502 7.166-7.88C15.017 6.31 20.094 1.5 26.274 1.5c4.725 0 8.976 2.85 10.794 7.162a7.02 7.02 0 017.554 5.571 6.949 6.949 0 011.107-.088c3.87 0 7.017 3.149 7.017 7.017a7.024 7.024 0 01-7.017 7.017"/><path d="M32.916 12.448a.867.867 0 01-.663-1.425c1.698-2.02 4.078-2.256 4.18-2.265a.866.866 0 01.158 1.726c-.034.004-1.791.202-3.01 1.655a.863.863 0 01-.665.31M43.045 19.779a.866.866 0 01-.758-1.286c.01-.017.879-1.619.738-3.12a.867.867 0 011.725-.161c.192 2.043-.9 4.037-.947 4.121a.866.866 0 01-.758.446M21.181 16.123a.861.861 0 01-.624-.264c-.084-.086-2.029-2.04-5.147-1.782a.866.866 0 11-.143-1.726c3.967-.328 6.436 2.199 6.54 2.307a.866.866 0 01-.626 1.465M1.267 39.652a.867.867 0 01-.589-1.502l4.764-4.41a.867.867 0 011.156-.017l3.897 3.38a.867.867 0 11-1.136 1.309l-3.31-2.871-4.193 3.882a.866.866 0 01-.589.23"/><path d="M6.12 42.793a.866.866 0 01-.64-1.45l9.255-10.135a.868.868 0 011.16-.11l4.448 3.335a.867.867 0 01-1.039 1.387l-3.819-2.863-8.724 9.554a.864.864 0 01-.64.282"/><path d="M11.15 52.393a.868.868 0 01-.798-1.204l2.83-6.723-1.967-1.558a.868.868 0 01.083-1.417l3.21-1.98v-7.72a.867.867 0 011.734 0v8.205c0 .3-.156.58-.412.737l-2.57 1.584 1.515 1.198a.868.868 0 01.26 1.017l-3.085 7.33a.867.867 0 01-.8.53M56.733 39.652a.866.866 0 01-.589-.23l-4.193-3.881-3.31 2.872a.867.867 0 11-1.136-1.31l3.897-3.38a.867.867 0 011.156.017l4.764 4.41a.867.867 0 01-.59 1.502"/><path d="M51.88 42.793a.864.864 0 01-.64-.282l-8.725-9.554-3.82 2.863a.866.866 0 01-1.038-1.387l4.448-3.335a.867.867 0 011.16.11l9.254 10.135a.866.866 0 01-.64 1.45"/><path d="M47.235 52.392a.862.862 0 01-.778-.485l-3.601-7.33a.866.866 0 01.219-1.045l1.451-1.223-2.383-1.594a.866.866 0 01-.385-.72v-8.204a.867.867 0 011.733 0v7.741l2.956 1.976a.866.866 0 01.077 1.383l-1.814 1.53 3.302 6.723a.867.867 0 01-.777 1.248M31.186 26.262h-4.395a.867.867 0 010-1.733h4.395a.866.866 0 110 1.733"/></g></svg>