<?xml version="1.0" encoding="UTF-8" standalone="no"?>
<!-- Created with Inkscape (http://www.inkscape.org/) -->

<svg
   width="58"
   height="58"
   viewBox="0 0 58 58"
   version="1.1"
   id="svg3915"
   inkscape:version="1.2.1 (9c6d41e4, 2022-07-14)"
   sodipodi:docname="performance.svg"
   xmlns:inkscape="http://www.inkscape.org/namespaces/inkscape"
   xmlns:sodipodi="http://sodipodi.sourceforge.net/DTD/sodipodi-0.dtd"
   xmlns="http://www.w3.org/2000/svg"
   xmlns:svg="http://www.w3.org/2000/svg">
  <sodipodi:namedview
     id="namedview3917"
     pagecolor="#ffffff"
     bordercolor="#666666"
     borderopacity="1.0"
     inkscape:showpageshadow="2"
     inkscape:pageopacity="0.0"
     inkscape:pagecheckerboard="0"
     inkscape:deskcolor="#d1d1d1"
     inkscape:document-units="mm"
     showgrid="false"
     inkscape:zoom="4.7572176"
     inkscape:cx="25.119725"
     inkscape:cy="2.9428967"
     inkscape:window-width="1196"
     inkscape:window-height="794"
     inkscape:window-x="1965"
     inkscape:window-y="647"
     inkscape:window-maximized="0"
     inkscape:current-layer="layer1" />
  <defs
     id="defs3912" />
  <g
     inkscape:label="Layer 1"
     inkscape:groupmode="layer"
     id="layer1">
    <g
       id="g47181"
       transform="matrix(0.31232801,0,0,0.31232801,-3.7944407,-14.933166)"
       style="fill:#f18532;fill-opacity:1">
      <path
         d="m 31.256254,228.71015 c -0.51188,0 -1.029053,-0.14816 -1.484489,-0.45861 -1.208616,-0.81844 -1.522589,-2.46592 -0.701322,-3.67242 L 101.69927,117.69804 c 0.49036,-0.71966 1.29822,-1.15358 2.16606,-1.16064 0.87136,-0.0141 1.68627,0.41275 2.18722,1.12537 l 75.20516,106.88108 c 0.83961,1.19239 0.55386,2.84339 -0.64205,3.68652 -1.19592,0.83962 -2.84339,0.55387 -3.68653,-0.64205 L 103.9253,123.83638 33.447004,227.55304 c -0.511528,0.75142 -1.34373,1.15711 -2.19075,1.15711"
         style="fill:#f18532;fill-opacity:1;fill-rule:nonzero;stroke:none;stroke-width:0.0352778"
         id="path3040" />
      <path
         d="m 146.0258,181.3321 c -0.63148,0 -1.26295,-0.22578 -1.76742,-0.67734 -1.09008,-0.97719 -1.17828,-2.64936 -0.20108,-3.73944 l 21.80872,-24.28169 c 0.49742,-0.55387 1.20297,-0.87137 1.94733,-0.87842 0.73025,-0.0176 1.45345,0.29986 1.96145,0.84314 l 21.26544,22.86705 c 0.99483,1.06892 0.93486,2.74461 -0.13758,3.73945 -1.06892,0.99483 -2.74461,0.93486 -3.73945,-0.13759 L 167.8698,158.3204 147.9943,180.45368 c -0.52211,0.58208 -1.24531,0.87842 -1.9685,0.87842"
         style="fill:#f18532;fill-opacity:1;fill-rule:nonzero;stroke:none;stroke-width:0.0352778"
         id="path3042" />
      <path
         d="m 20.896582,181.3321 c -0.629708,0 -1.261533,-0.22578 -1.767064,-0.67734 -1.087261,-0.97719 -1.176866,-2.64936 -0.20073,-3.73944 l 21.810838,-24.28169 c 0.496711,-0.55387 1.20262,-0.87137 1.94557,-0.87842 0.739775,-0.0176 1.454855,0.29986 1.960738,0.84314 l 21.265448,22.86705 c 0.99518,1.06892 0.9345,2.74461 -0.13547,3.73945 -1.069975,0.99483 -2.743906,0.93486 -3.739445,-0.13759 L 42.742346,158.3204 22.865788,180.45368 c -0.522464,0.58208 -1.2446,0.87842 -1.969206,0.87842"
         style="fill:#f18532;fill-opacity:1;fill-rule:nonzero;stroke:none;stroke-width:0.0352778"
         id="path3044" />
      <path
         d="m 100.30192,228.71015 c -1.063978,0 -2.067278,-0.64558 -2.470858,-1.69686 l -10.9795,-28.62439 c -0.47519,-1.23825 0.0409,-2.63877 1.2065,-3.27025 l 32.070318,-17.4378 -18.75613,-57.67917 c -0.45191,-1.38994 0.30938,-2.88219 1.69933,-3.33375 1.38994,-0.45155 2.88219,0.30692 3.33375,1.69686 l 19.43452,59.77114 c 0.39511,1.21356 -0.13052,2.53295 -1.25236,3.14325 l -31.964838,17.37783 10.149058,26.45834 c 0.52212,1.36525 -0.15875,2.8963 -1.52294,3.41841 -0.3115,0.11995 -0.63182,0.17639 -0.94685,0.17639"
         style="fill:#f18532;fill-opacity:1;fill-rule:nonzero;stroke:none;stroke-width:0.0352778"
         id="path3048" />
      <path
         d="m 63.972864,228.71015 c -0.623358,0 -1.249538,-0.21872 -1.752952,-0.66322 -1.093964,-0.97014 -1.195564,-2.64231 -0.226836,-3.73592 l 25.348136,-28.62438 c 0.96873,-1.09362 2.64055,-1.19592 3.73486,-0.22578 1.09397,0.97014 1.19557,2.6423 0.22649,3.73591 l -25.34779,28.62086 c -0.52282,0.59267 -1.250599,0.89253 -1.981908,0.89253"
         style="fill:#f18532;fill-opacity:1;fill-rule:nonzero;stroke:none;stroke-width:0.0352778"
         id="path3050" />
      <path
         d="m 144.58294,228.71015 c -1.00895,0 -1.97203,-0.57855 -2.413,-1.55928 l -9.49678,-21.09258 c -0.59972,-1.3335 -0.007,-2.89983 1.32644,-3.49955 1.32997,-0.59973 2.89631,-0.007 3.49603,1.32644 l 9.49678,21.09258 c 0.59972,1.3335 0.007,2.89984 -1.32645,3.49956 -0.35277,0.15875 -0.71966,0.23283 -1.08302,0.23283"
         style="fill:#f18532;fill-opacity:1;fill-rule:nonzero;stroke:none;stroke-width:0.0352778"
         id="path3052" />
      <path
         d="m 131.11741,198.80518 c -1.00895,0 -1.97203,-0.58208 -2.413,-1.55928 l -0.90311,-2.00377 c -0.59973,-1.3335 -0.004,-2.89984 1.32644,-3.49956 1.3335,-0.59972 2.89983,-0.007 3.49956,1.32644 l 0.90311,2.00378 c 0.59972,1.32997 0.004,2.89631 -1.32645,3.49603 -0.35277,0.15875 -0.72319,0.23636 -1.08655,0.23636"
         style="fill:#f18532;fill-opacity:1;fill-rule:nonzero;stroke:none;stroke-width:0.0352778"
         id="path3054" />
      <path
         d="m 103.26532,62.336839 0.68439,16.114888 23.11718,-5.217583 -1.37584,-14.866055 z m 0.36022,59.976051 c -1.4097,0 -2.58127,-1.11125 -2.6416,-2.53295 L 97.88017,60.248394 c -0.05644,-1.322916 0.876653,-2.487083 2.18193,-2.716389 l 27.53748,-4.875388 c 0.72672,-0.130528 1.47814,0.04939 2.06375,0.500944 0.58914,0.448028 0.96308,1.121833 1.03011,1.859139 l 1.85914,20.041305 c 0.11994,1.322917 -0.75847,2.532944 -2.05317,2.82575 l -26.3211,5.940778 2.09236,35.729637 c 0.0621,1.4605 -1.07103,2.69522 -2.53118,2.75872 h -0.11395"
         style="fill:#f18532;fill-opacity:1;fill-rule:nonzero;stroke:none;stroke-width:0.0352778"
         id="path3282"
         sodipodi:nodetypes="cccccccccccccccccc" />
      <path
         d="m 124.59744,89.874671 c -0.36689,0 -0.7373,-0.07761 -1.08655,-0.236361 -0.82903,-0.370416 -1.40653,-1.143 -1.53212,-2.042583 l -1.35184,-9.673166 c -0.2025,-1.446389 0.8068,-2.783417 2.25248,-2.9845 1.44639,-0.204611 2.78695,0.804333 2.98803,2.25425 l 0.77258,5.513916 21.25134,-14.068777 -17.653,2.169583 c -1.44992,0.179917 -2.76931,-0.853722 -2.94922,-2.303639 -0.17639,-1.449917 0.85372,-2.769305 2.30363,-2.949222 l 28.80784,-3.538361 c 1.21708,-0.151695 2.37772,0.557389 2.80458,1.707444 0.42333,1.153584 0,2.44475 -1.02305,3.122084 l -34.1242,22.58836 c -0.43744,0.292806 -0.94897,0.440972 -1.4605,0.440972"
         style="fill:#f18532;fill-opacity:1;fill-rule:nonzero;stroke:none;stroke-width:0.0352778"
         id="path3284" />
    </g>
  </g>
</svg>
