<?xml version="1.0" encoding="UTF-8" standalone="no"?><!--Created with Inkscape (http://www.inkscape.org/)--><svg xmlns="http://www.w3.org/2000/svg" width="58" height="58" viewBox="0 0 58 58"><g fill="#f18532"><path d="M5.968 56.5a.825.825 0 01-.683-1.29L27.97 21.826a.827.827 0 011.36-.01l23.488 33.381a.827.827 0 01-1.352.951l-22.8-32.405L6.651 56.138a.826.826 0 01-.684.361"/><path d="M41.814 41.702a.826.826 0 01-.615-1.38l6.811-7.583a.827.827 0 011.221-.011l6.642 7.142a.826.826 0 11-1.211 1.125l-6.026-6.48-6.208 6.913a.824.824 0 01-.614.274M2.732 41.702a.827.827 0 01-.614-1.38L8.93 32.74a.826.826 0 011.22-.011l6.642 7.142a.826.826 0 11-1.21 1.125l-6.027-6.48-6.208 6.913a.824.824 0 01-.615.274M27.533 56.5a.827.827 0 01-.772-.53l-3.43-8.94a.826.826 0 01.378-1.022l10.016-5.446-5.858-18.015a.826.826 0 011.572-.512l6.07 18.669a.826.826 0 01-.391.981l-9.984 5.428 3.17 8.264a.827.827 0 01-.771 1.122"/><path d="M16.186 56.5a.825.825 0 01-.618-1.375l7.917-8.94a.826.826 0 111.237 1.097l-7.917 8.939a.822.822 0 01-.619.278M41.363 56.5a.825.825 0 01-.754-.488l-2.966-6.587a.826.826 0 111.506-.68l2.966 6.589a.826.826 0 01-.752 1.165M37.157 47.16a.827.827 0 01-.753-.488l-.283-.626a.827.827 0 011.508-.678l.282.626a.826.826 0 01-.754 1.165M28.458 4.536l.214 5.034 7.22-1.63-.43-4.643zm.113 18.733a.826.826 0 01-.825-.792l-.97-18.593a.826.826 0 01.682-.848l8.6-1.523a.823.823 0 01.966.737l.581 6.26a.828.828 0 01-.64.882l-8.222 1.856.654 11.159a.827.827 0 01-.79.862h-.036"/><path d="M35.12 13.137a.823.823 0 01-.818-.712l-.421-3.02a.826.826 0 111.636-.229l.242 1.722 6.637-4.394-5.513.678a.827.827 0 01-.202-1.64l8.998-1.106a.826.826 0 01.556 1.509l-10.658 7.054a.82.82 0 01-.456.138"/></g></svg>