<?xml version="1.0" encoding="UTF-8" standalone="no"?><!--Created with Inkscape (http://www.inkscape.org/)--><svg xmlns="http://www.w3.org/2000/svg" width="58" height="58" viewBox="0 0 58 58"><g fill="#1dcb11"><path d="M3.687 21.561a.869.869 0 01-.825-1.138C5.555 12.22 12.049 5.677 20.235 2.926a.868.868 0 01.553 1.644c-7.67 2.578-13.754 8.707-16.275 16.394a.869.869 0 01-.825.597M10.188 48.721a.863.863 0 01-.611-.253C4.367 43.27 1.499 36.357 1.499 29a.868.868 0 011.735 0c0 6.893 2.687 13.371 7.567 18.24a.868.868 0 01-.613 1.481M29 56.5c-3.707 0-7.303-.725-10.69-2.154a.868.868 0 01.674-1.598 25.615 25.615 0 0010.015 2.017c4.86 0 9.591-1.358 13.685-3.929a.868.868 0 11.922 1.469A27.42 27.42 0 0128.999 56.5M50.076 46.152a.868.868 0 01-.686-1.398c3.517-4.545 5.376-9.993 5.376-15.754 0-2.748-.43-5.451-1.278-8.036a.868.868 0 011.648-.54A27.468 27.468 0 0156.501 29c0 6.149-1.985 11.963-5.738 16.815a.867.867 0 01-.687.337M49.685 13.088a.866.866 0 01-.674-.32 25.679 25.679 0 00-20.012-9.533.868.868 0 010-1.735c8.322 0 16.107 3.709 21.358 10.174a.867.867 0 01-.672 1.414M29 42.56c-7.477 0-13.56-6.083-13.56-13.56S21.523 15.44 29 15.44c2.717 0 5.338.802 7.582 2.316a.867.867 0 01-.972 1.438 11.766 11.766 0 00-6.61-2.02c-6.52 0-11.826 5.305-11.826 11.826 0 6.52 5.306 11.825 11.825 11.825a.868.868 0 010 1.735M35.728 40.632a.869.869 0 01-.461-1.603A11.772 11.772 0 0040.825 29c0-1.033-.133-2.056-.396-3.044a.868.868 0 011.677-.445c.3 1.132.453 2.306.453 3.489 0 4.702-2.382 9.001-6.371 11.5a.858.858 0 01-.46.132"/><path d="M24.533 26.064a.867.867 0 01-.66-1.43A6.725 6.725 0 0129 22.269c1.227 0 2.428.333 3.473.963a.868.868 0 01-.896 1.486 4.995 4.995 0 00-6.382 1.043.864.864 0 01-.66.304M41.35 13.851a.868.868 0 01-.529-.18A19.172 19.172 0 0029.14 9.643h-.134c-3.099 0-6.185.761-8.933 2.205a.867.867 0 11-.807-1.534 20.999 20.999 0 019.741-2.405h.146a20.899 20.899 0 0112.73 4.39.867.867 0 01-.531 1.552M8.775 29.867A.868.868 0 017.908 29a21.08 21.08 0 014.716-13.24.867.867 0 111.347 1.093A19.34 19.34 0 009.643 29a.868.868 0 01-.868.867M28.885 50.091h-.005a21.113 21.113 0 01-19.223-12.67.867.867 0 111.59-.693A19.379 19.379 0 0028.89 48.357a.867.867 0 01-.006 1.735"/><path d="M40.088 46.688a.867.867 0 01-.482-1.589c5.395-3.607 8.667-9.527 8.749-15.839.05-3.8-1-7.492-3.036-10.676a.587.587 0 00-.43-.256.58.58 0 00-.478.17L28.52 34.386a.868.868 0 01-1.226 0l-4.774-4.773a.866.866 0 111.227-1.226l4.16 4.16L43.184 17.27a2.323 2.323 0 011.878-.67c.697.07 1.32.447 1.706 1.03l.007.012a21.01 21.01 0 013.315 11.64c-.09 6.882-3.65 13.335-9.52 17.258a.864.864 0 01-.482.147"/></g></svg>