<?xml version="1.0" encoding="UTF-8" standalone="no"?>
<!-- Created with Inkscape (http://www.inkscape.org/) -->

<svg
   width="58"
   height="58"
   viewBox="0 0 58 58"
   version="1.1"
   id="svg3915"
   inkscape:version="1.2.1 (9c6d41e4, 2022-07-14)"
   sodipodi:docname="reliable.svg"
   xmlns:inkscape="http://www.inkscape.org/namespaces/inkscape"
   xmlns:sodipodi="http://sodipodi.sourceforge.net/DTD/sodipodi-0.dtd"
   xmlns="http://www.w3.org/2000/svg"
   xmlns:svg="http://www.w3.org/2000/svg">
  <sodipodi:namedview
     id="namedview3917"
     pagecolor="#ffffff"
     bordercolor="#666666"
     borderopacity="1.0"
     inkscape:showpageshadow="2"
     inkscape:pageopacity="0.0"
     inkscape:pagecheckerboard="0"
     inkscape:deskcolor="#d1d1d1"
     inkscape:document-units="mm"
     showgrid="false"
     inkscape:zoom="9.5144351"
     inkscape:cx="-1.4188966"
     inkscape:cy="29.008554"
     inkscape:window-width="1342"
     inkscape:window-height="794"
     inkscape:window-x="425"
     inkscape:window-y="819"
     inkscape:window-maximized="0"
     inkscape:current-layer="layer1" />
  <defs
     id="defs3912" />
  <g
     inkscape:label="Layer 1"
     inkscape:groupmode="layer"
     id="layer1">
    <g
       id="g42051"
       transform="matrix(0.32779429,0,0,0.32779429,-5.4184011,-19.677452)"
       style="fill:#1dcb11;fill-opacity:1">
      <path
         d="m 27.778709,125.80581 c -0.271639,0 -0.550333,-0.0423 -0.8255,-0.13053 -1.386416,-0.45508 -2.144888,-1.95086 -1.689805,-3.34081 8.209139,-25.029578 28.021138,-44.986217 52.994276,-53.3788 1.386417,-0.465666 2.885723,0.282222 3.351389,1.665111 0.465667,1.386417 -0.278694,2.885722 -1.665111,3.351389 -23.399749,7.863417 -41.959388,26.56064 -49.649943,50.0133 -0.366889,1.11478 -1.404056,1.82034 -2.515306,1.82034"
         style="fill:#1dcb11;fill-opacity:1;fill-rule:nonzero;stroke:none;stroke-width:0.0352778"
         id="path5735" />
      <path
         d="m 47.611876,208.66272 c -0.673806,0 -1.351139,-0.25753 -1.866195,-0.77258 C 29.853043,192.03631 21.104154,170.94372 21.104154,148.5 c 0,-1.4605 1.185333,-2.64583 2.645833,-2.64583 1.4605,0 2.645834,1.18533 2.645834,2.64583 0,21.02908 8.198555,40.7917 23.085777,55.64364 1.033639,1.03364 1.037166,2.70933 0.0035,3.74297 -0.515056,0.51858 -1.192389,0.77611 -1.87325,0.77611"
         style="fill:#1dcb11;fill-opacity:1;fill-rule:nonzero;stroke:none;stroke-width:0.0352778"
         id="path5737" />
      <path
         d="m 104.99823,232.39408 c -11.306522,0 -22.277911,-2.21191 -32.610772,-6.57225 -1.347611,-0.5715 -1.975555,-2.12372 -1.407583,-3.4678 0.567972,-1.34761 2.120194,-1.97556 3.464278,-1.40759 9.680222,4.08517 19.956638,6.15598 30.554087,6.15598 14.82372,0 29.25938,-4.14514 41.74772,-11.98739 1.23472,-0.77611 2.86808,-0.4057 3.64772,0.83255 0.77611,1.23825 0.40217,2.87161 -0.83608,3.64773 -13.33148,8.37494 -28.74081,12.79877 -44.55936,12.79877"
         style="fill:#1dcb11;fill-opacity:1;fill-rule:nonzero;stroke:none;stroke-width:0.0352778"
         id="path5739" />
      <path
         d="m 169.29551,200.824 c -0.56444,0 -1.13594,-0.17992 -1.61925,-0.55386 -1.15358,-0.89253 -1.36525,-2.55411 -0.47272,-3.71122 10.72797,-13.86417 16.40064,-30.48353 16.40064,-48.05892 0,-8.382 -1.31233,-16.62994 -3.89819,-24.51453 -0.45509,-1.38994 0.29986,-2.88219 1.6898,-3.3408 1.38642,-0.45508 2.8822,0.30339 3.33728,1.6898 2.76225,8.42081 4.16278,17.22261 4.16278,26.16553 0,18.7572 -6.05367,36.49486 -17.50484,51.29742 -0.52211,0.6738 -1.30527,1.02658 -2.0955,1.02658"
         style="fill:#1dcb11;fill-opacity:1;fill-rule:nonzero;stroke:none;stroke-width:0.0352778"
         id="path5741" />
      <path
         d="m 168.10313,99.957781 c -0.77259,0 -1.53459,-0.335139 -2.0567,-0.977195 -15.01069,-18.482027 -37.26392,-29.082999 -61.0482,-29.082999 -1.4605,0 -2.64583,-1.185333 -2.64583,-2.645833 0,-1.464028 1.18533,-2.645834 2.64583,-2.645834 25.38589,0 49.1349,11.313583 65.15453,31.037389 0.92428,1.135944 0.74789,2.801055 -0.38452,3.721805 -0.49036,0.398639 -1.0795,0.592667 -1.66511,0.592667"
         style="fill:#1dcb11;fill-opacity:1;fill-rule:nonzero;stroke:none;stroke-width:0.0352778"
         id="path5743" />
      <path
         d="m 104.99823,189.86672 c -22.807077,0 -41.366716,-18.55611 -41.366716,-41.36672 0,-22.81061 18.559639,-41.36672 41.366716,-41.36672 8.29028,0 16.28775,2.44475 23.13164,7.06614 1.21003,0.81844 1.52753,2.46239 0.70909,3.67242 -0.81492,1.21355 -2.46239,1.53105 -3.67242,0.71261 -5.96547,-4.02873 -12.93636,-6.1595 -20.16831,-6.1595 -19.889605,0 -36.075049,16.18191 -36.075049,36.07505 0,19.89314 16.185444,36.07506 36.075049,36.07506 1.4605,0 2.64584,1.18533 2.64584,2.64583 0,1.4605 -1.18534,2.64583 -2.64584,2.64583"
         style="fill:#1dcb11;fill-opacity:1;fill-rule:nonzero;stroke:none;stroke-width:0.0352778"
         id="path5745" />
      <path
         d="m 125.52637,183.98592 c -0.88194,0 -1.74272,-0.44098 -2.24719,-1.24178 -0.77258,-1.23825 -0.39864,-2.87161 0.83961,-3.64772 10.61508,-6.64986 16.9545,-18.08692 16.9545,-30.59642 0,-3.1503 -0.40569,-6.27239 -1.2065,-9.28511 -0.37394,-1.41464 0.46567,-2.86103 1.88031,-3.2385 1.41111,-0.37394 2.86103,0.46567 3.23497,1.88031 0.91722,3.45369 1.38289,7.03438 1.38289,10.6433 0,14.34395 -7.26723,27.46022 -19.43806,35.08022 -0.43744,0.27517 -0.92075,0.4057 -1.40053,0.4057"
         style="fill:#1dcb11;fill-opacity:1;fill-rule:nonzero;stroke:none;stroke-width:0.0352778"
         id="path5747" />
      <path
         d="m 91.373958,139.54297 c -0.606778,0 -1.217083,-0.20461 -1.7145,-0.63147 -1.11125,-0.94897 -1.245306,-2.61761 -0.296333,-3.72886 3.912305,-4.58964 9.609666,-7.22136 15.635115,-7.22136 3.74297,0 7.4048,1.016 10.59391,2.93864 1.24884,0.75494 1.65453,2.38125 0.89959,3.63361 -0.75495,1.24883 -2.38125,1.651 -3.63362,0.89958 -2.36361,-1.42522 -5.08,-2.18016 -7.85988,-2.18016 -4.47323,0 -8.703032,1.95438 -11.609921,5.36222 -0.522111,0.61383 -1.266472,0.9278 -2.014361,0.9278"
         style="fill:#1dcb11;fill-opacity:1;fill-rule:nonzero;stroke:none;stroke-width:0.0352778"
         id="path5749" />
      <path
         d="m 142.67843,102.28611 c -0.56444,0 -1.13241,-0.17991 -1.61572,-0.55033 -10.287,-7.948083 -22.60953,-12.195527 -35.63761,-12.287249 -0.13406,0 -0.27164,0 -0.40923,0 -9.45444,0 -18.870079,2.321278 -27.252078,6.727472 -1.294695,0.680861 -2.892778,0.183444 -3.573639,-1.107722 -0.680861,-1.294695 -0.183445,-2.896306 1.11125,-3.573639 9.136944,-4.804833 19.402777,-7.337778 29.717997,-7.337778 0.14817,0 0.29634,0 0.4445,0 14.19578,0.102306 27.6225,4.73075 38.83378,13.391444 1.15711,0.892528 1.36878,2.554112 0.47625,3.711222 -0.52211,0.67381 -1.30175,1.02658 -2.0955,1.02658"
         style="fill:#1dcb11;fill-opacity:1;fill-rule:nonzero;stroke:none;stroke-width:0.0352778"
         id="path5751" />
      <path
         d="m 43.300931,151.14583 c -1.4605,0 -2.645833,-1.18533 -2.645833,-2.64583 0,-14.61558 5.108222,-28.95953 14.386277,-40.38953 0.92075,-1.13594 2.585862,-1.3088 3.721806,-0.38805 1.135944,0.92075 1.308805,2.58586 0.388055,3.7218 -8.516055,10.49162 -13.204472,23.65023 -13.204472,37.05578 0,1.4605 -1.185333,2.64583 -2.645833,2.64583"
         style="fill:#1dcb11;fill-opacity:1;fill-rule:nonzero;stroke:none;stroke-width:0.0352778"
         id="path5753" />
      <path
         d="m 104.64898,212.84314 c -0.003,0 -0.007,0 -0.0141,0 -25.452912,-0.14111 -48.471661,-15.31408 -58.645772,-38.65386 -0.585611,-1.33703 0.02822,-2.89631 1.368778,-3.48192 1.337027,-0.58208 2.896305,0.0282 3.481916,1.36878 9.338028,21.42067 30.465888,35.3448 53.826828,35.47533 1.4605,0.007 2.63878,1.19945 2.6282,2.65995 -0.007,1.45697 -1.18886,2.63172 -2.64583,2.63172"
         style="fill:#1dcb11;fill-opacity:1;fill-rule:nonzero;stroke:none;stroke-width:0.0352778"
         id="path5755" />
      <path
         d="m 138.8261,202.46089 c -0.85373,0 -1.68981,-0.41275 -2.20134,-1.17475 -0.81139,-1.21708 -0.4833,-2.86103 0.73025,-3.67242 16.46062,-11.00314 26.4407,-29.06536 26.69117,-48.31997 0.1517,-11.5958 -3.05153,-22.85647 -9.26041,-32.56844 -0.41275,-0.60678 -1.00189,-0.75142 -1.31587,-0.78317 -0.3175,-0.0353 -0.93133,-0.007 -1.45697,0.51858 l -48.47167,48.47167 c -0.49741,0.49742 -1.17122,0.77611 -1.87325,0.77611 -0.70202,0 -1.3723,-0.27869 -1.869719,-0.77611 L 85.235625,150.36972 c -1.033639,-1.03364 -1.033639,-2.7058 0,-3.73944 1.033639,-1.03364 2.709333,-1.03364 3.742972,0 l 12.689413,12.68942 46.60195,-46.60195 c 1.51342,-1.50989 3.59833,-2.25425 5.72911,-2.04258 2.12725,0.21519 4.0252,1.36172 5.207,3.14325 0.007,0.0106 0.0141,0.0212 0.0212,0.0353 6.78039,10.59039 10.27641,22.86705 10.11061,35.50708 -0.27517,20.99733 -11.13367,40.68233 -29.04067,52.65208 -0.45508,0.30339 -0.96308,0.44803 -1.47108,0.44803"
         style="fill:#1dcb11;fill-opacity:1;fill-rule:nonzero;stroke:none;stroke-width:0.0352778"
         id="path5757" />
    </g>
  </g>
</svg>
