<?xml version="1.0" encoding="UTF-8" standalone="no"?><svg xmlns="http://www.w3.org/2000/svg" width="525" height="498.286" data-name="Layer 1" viewBox="0 0 525 498.286"><g transform="translate(0 .516) scale(.7382)"><path fill="#cef4df" d="M671.722 623.279l2.467-239.261H516.326v184.995l30.944 50.43 2.355 3.836z"/><path d="M516.326 384.018v184.995l30.944 50.43 1.899-235.425z" opacity=".1"/><path fill="#cef4df" d="M66.17 618.345l-2.467-239.261h157.863V564.08l-30.944 50.43-2.355 3.835z"/><path d="M221.566 379.084V564.08l-30.944 50.43-1.899-235.426z" opacity=".1"/><path fill="#cef4df" d="M109.335 338.385h547.588l54.265 37v11.099H47.67v-16.033z"/><path d="M711.188 375.385v11.099H47.67v-16.033z" opacity=".1"/><path fill="#3f3d56" d="M142.635 430.883h-29.6l-12.333-8.633h55.499zM142.635 466.649h-29.6l-12.333-8.633h55.499zM142.635 517.215h-29.6l-12.333-8.634h55.499zM142.635 567.78h-29.6l-12.333-8.633h55.499zM595.257 435.816h29.6l12.333-8.633h-55.499zM595.257 471.582h29.6l12.333-8.633h-55.499zM595.257 522.148h29.6l12.333-8.633h-55.499zM595.257 572.713h29.6l12.333-8.633h-55.499zM615.414 124.456H366.228a9.423 9.423 0 00-9.423 9.424v167.858a9.423 9.423 0 009.423 9.424h94.593l-3.544 22.626s-20.252 10.76-6.012 11.076c14.24.316 81.328 0 81.328 0s12.974 0-7.595-11.392l-3.334-22.31h93.75a9.423 9.423 0 009.424-9.424V133.88a9.423 9.423 0 00-9.424-9.424z" class="darker"/><path fill="#cef4df" d="M365.823 134.424h249.996v139.871H365.823z"/><circle cx="490.821" cy="298.346" r="6.013" fill="#f2f2f2"/><path fill="#3f3d56" d="M477.971 350.56l3.481 11.392v3.165h-170.25v-2.532l.234-.633 4.196-11.392zM546.97 358.854c-.31 1.326-1.481 2.725-4.127 4.047-9.493 4.747-28.797-1.265-28.797-1.265s-14.873-2.532-14.873-9.177a11.866 11.866 0 011.304-.776c3.991-2.111 17.225-7.322 40.69.22a9.786 9.786 0 014.46 2.924 4.667 4.667 0 011.343 4.027z" class="darker"/><path d="M546.97 358.854c-11.62 4.452-21.978 4.785-32.607-2.598a23.343 23.343 0 00-13.886-4.573c3.991-2.111 17.225-7.322 40.69.22a9.786 9.786 0 014.46 2.924 4.667 4.667 0 011.343 4.027z" class="darker" opacity=".1"/><ellipse cx="532.4" cy="354.99" fill="#f2f2f2" rx="4.114" ry="1.266"/><path fill="#3f3d56" d="M481.452 365.117h-170.25v-2.532l.234-.633h170.016z" opacity=".1"/><path fill="#2f2e41" d="M94.661 2a8.554 8.554 0 00-4.96 1.108c-1.477 1.011-2.407 2.782-3.357 4.43A52.986 52.986 0 0171.91 23.843c-4.289 3.142-9.742 7.06-9.008 12.852a17.372 17.372 0 002.09 5.426c3.957 7.987 14.754 14.159 13.692 23.273 3.931-6.581-1.327-9.835 2.604-16.416 1.872-3.134 5.124-6.672 7.95-4.704.947.66 1.569 1.841 2.554 2.42 2.351 1.38 4.853-1.258 6.934-3.127 7.177-6.442 17.383-4.755 26.314-2.747 4.216.948 8.847 2.19 11.34 6.22 3.276 5.299-3.114 11.02-4.729 17.011a3.264 3.264 0 003.503 4.062c2.68-.264 5.854-.48 6.013-1.657 3.372.12 7.503-.262 8.947-3.772a14.762 14.762 0 00.693-4.293c.53-5.898 3.033-11.278 4.691-16.89 1.658-5.613 2.38-12.19-.419-17.167a19.864 19.864 0 00-3.666-4.456C135.533 4.512 114.657 1.978 94.661 2z" class="darker"/><path fill="#cef4df" d="M72.929 109.986c-12.663 2.302 11.511 41.44 11.511 41.44l57.557 6.908-13.814-46.046c1.466-11.265-60.684-14.638-55.254-2.302z"/><path fill="#ffb19e" d="M47.028 573.318l4.605 63.313h24.173L68.9 573.318zM224.303 453.6l3.453 52.952 26.477-11.511-10.361-43.743z"/><path fill="#2f2e41" d="M29.761 331.58s1.151 66.766 8.058 88.637c6.907 21.872 5.756 23.023 4.605 26.476-1.152 3.454-2.303 1.151-2.303 6.907s-2.302 96.695 0 104.753c2.303 8.058-6.907 21.872 0 23.023 6.907 1.151 39.139 0 40.29-6.907 1.151-6.906-9.21-9.209-4.605-13.813 4.605-4.605 11.512-98.998 11.512-98.998l16.116-65.615 29.93-34.534h63.312l19.57 75.975s-8.059 21.872-2.303 21.872c5.756 0 40.29 6.907 40.29-18.418s-11.512-100.15-13.814-102.452c-2.302-2.302 1.151-10.36-2.302-13.813-3.454-3.454-43.743-27.627-58.708-32.232-14.965-4.605-35.958-10.085-35.958-10.085zM254.233 485.832s-17.267-5.756-25.325 11.511-4.605 21.872-4.605 21.872 26.476 9.209 31.08 4.604c2.004-2.003 8.365-2.699 14.913-2.846 9.973-.224 12.627-14.333 3.208-17.619q-.422-.147-.853-.255c-9.21-2.302-18.418-17.267-18.418-17.267z" class="darker"/><circle cx="108.038" cy="61.365" r="34.534" fill="#ffb19e"/><path fill="#cef4df" d="M63.144 124.375s56.406 11.511 70.22-6.907c13.813-18.418 19.569 51.801 19.569 51.801l6.906 73.673-10.36 40.29s-54.103 43.743-71.37 47.196c-17.267 3.454-43.743 5.756-43.743 5.756s8.058-127.776 8.058-130.078c0-2.303 20.72-81.73 20.72-81.73z"/><path fill="#ef6801" d="M80.298 102.786s-12.55-7.19-16.003-.283c-3.453 6.907-35.685 24.174-39.139 24.174-3.453 0 6.907 95.545 2.303 107.056-4.605 11.511-26.476 95.544-13.814 102.451 12.663 6.907 3.454-6.907 16.116 10.36 12.663 17.267 74.824 17.267 78.277 10.36 3.454-6.906-27.627-58.707-21.871-107.055 5.755-48.348 14.964-115.114 6.906-124.323-8.057-9.209-12.775-22.74-12.775-22.74zM121.852 110.561l1.603-5.518s47.896 15.879 50.198 26.239c2.302 10.36 1.151 82.882-6.907 88.637-8.058 5.756-10.893 30.832-11.511 28.779-.808-2.683 17.267 28.778 24.174 29.93 6.907 1.15 19.57 9.208 16.116 17.266-3.454 8.058-44.895-6.906-44.895-6.906s-27.627-20.72-26.476-52.953c1.151-32.232-2.302-125.474-2.302-125.474z" class="primary"/><path fill="#ffb19e" d="M162.142 246.396l-27.628 51.8s-40.29 41.442-17.267 46.046c23.023 4.605 35.686-37.987 35.686-37.987l29.93-42.592z"/><path fill="#2f2e41" d="M96.344 11.036a7.838 7.838 0 00-4.039.783 9.413 9.413 0 00-2.732 3.131 39.773 39.773 0 01-11.75 11.524c-3.491 2.22-7.93 4.99-7.333 9.084a11.36 11.36 0 001.702 3.835 30.163 30.163 0 013.665 18.8l9.6-13.953c1.524-2.216 4.172-4.716 6.473-3.325.77.466 1.276 1.301 2.078 1.71 1.914.975 3.95-.89 5.644-2.21 5.843-4.553 14.15-3.36 21.421-1.942 3.432.67 7.202 1.549 9.231 4.397 3.372 4.733-.149 11.572 1.819 17.04a5.023 5.023 0 002.078-3.317c2.745.085 6.108-.185 7.284-2.666a9.188 9.188 0 00.563-3.035c.432-4.168 2.47-7.97 3.82-11.937 1.35-3.967 1.936-8.617-.342-12.134a14.681 14.681 0 00-2.984-3.149C129.616 12.811 112.62 11.02 96.344 11.036z" class="darker"/><path fill="#ef6801" d="M162.142 126.677l10.725 2.847s24.96 63.92 19.204 107.662c-5.755 43.744-9.209 34.535-9.209 34.535s-9.209-20.721-29.93-16.116z" class="primary"/><path fill="#2f2e41" d="M48.623 628.263c-2.776 3.773-2.22 9.165-4.678 13.151-2.132 3.455-6.149 5.267-8.815 8.329a22.326 22.326 0 00-2.266 3.26c-2.473 4.142-4.483 9.451-2.048 13.616 1.96 3.35 6.078 4.66 9.855 5.552 4.775 1.128 9.735 2.03 14.564 1.169 4.83-.862 9.549-3.82 11.27-8.413a32.5 32.5 0 011.206-3.4c2.617-5.153 10.827-5.209 13.506-10.33 1.875-3.584.151-7.917-1.571-11.576l-5.261-11.177c-1.746-3.71-8.824-1.576-12.514-2.465-4.812-1.16-9.786-2.436-13.248 2.284z" class="darker"/><path fill="#ffb19e" d="M10.192 269.418l48.347 74.824s29.93 37.988 39.139 20.72c9.21-17.266-32.232-46.045-32.232-46.045l-31.08-57.557z"/><path fill="#ef6801" d="M34.366 128.98l-9.21-2.303s-18.418 5.756-23.022 29.93c-4.605 24.174-1.151 120.87 4.604 122.02 5.756 1.151 28.428-16.836 32.057-13.023 3.629 3.814-7.883-15.755-4.43-26.115 3.454-10.36 0-110.51 0-110.51z" class="primary"/><g fill="#4a6248" data-name="Group 13"><path d="M437.407 180.363h29.752v7.163h-29.752z" data-name="Rectangle 55"/><path d="M559.722 180.363h10.468v7.163h-10.468z" data-name="Rectangle 56"/><path d="M580.659 180.363h10.468v7.163h-10.468z" data-name="Rectangle 57"/><path d="M477.628 180.363h71.075v7.163h-71.075z" data-name="Rectangle 58"/><path d="M399.941 226.644h29.752v7.163h-29.752z" data-name="Rectangle 59"/><path d="M522.256 226.644h10.468v7.163h-10.468z" data-name="Rectangle 60"/><path d="M543.193 226.644h10.468v7.163h-10.468z" data-name="Rectangle 61"/><path d="M440.162 226.644h71.075v7.163h-71.075z" data-name="Rectangle 62"/><path d="M522.807 196.341h29.752v7.163h-29.752z" data-name="Rectangle 63"/><path d="M563.028 196.341h29.752v7.163h-29.752z" data-name="Rectangle 64"/><path d="M399.941 196.341h10.468v7.163h-10.468z" data-name="Rectangle 66"/><path d="M420.878 196.341h10.468v7.163h-10.468z" data-name="Rectangle 67"/><path d="M441.815 196.341h71.075v7.163h-71.075z" data-name="Rectangle 68"/><path d="M461.099 211.768h29.752v7.163h-29.752z" data-name="Rectangle 69"/><path d="M420.878 211.768h29.752v7.163h-29.752z" data-name="Rectangle 70"/><path d="M399.941 211.768h10.468v7.163h-10.468z" data-name="Rectangle 71"/><path d="M582.312 211.768h10.468v7.163h-10.468z" data-name="Rectangle 73"/><path d="M500.768 211.768h71.075v7.163h-71.075z" data-name="Rectangle 74"/></g><circle cx="490.821" cy="129.738" r="1.582" fill="#f2f2f2"/><path fill="#cef4df" fill-opacity=".75" d="M214.051 105.346l12.307-70.409a6.648 6.648 0 016.608-5.696l113.259 1.14c4.102 0 7.065 3.646 6.61 7.52l-10.712 61.748-5.47 35.09c-.227 1.823-2.735 2.28-3.645.91l-14.357-21.644-97.764-1.14c-4.102 0-7.292-3.417-6.836-7.52z"/><path fill="#fff" d="M254.386 51.117h65.632c1.14 0 2.05.91 1.823 2.049l-.227 1.823c-.23.912-.912 1.595-1.824 1.595H254.16c-1.14 0-2.051-.91-1.824-2.05l.23-1.823c.227-.912.91-1.594 1.821-1.594zM252.108 68.433h65.631c1.14 0 2.051.912 1.824 2.051l-.23 1.822c-.227.912-.91 1.596-1.821 1.596H251.88c-1.14 0-2.05-.911-1.823-2.05l.227-1.824c.23-.912 1.141-1.595 1.824-1.595zM267.832 87.345h30.309c1.139 0 2.05.911 1.823 2.05l-.227 1.824c-.228.912-.912 1.595-1.824 1.595h-30.309c-1.139 0-2.05-.912-1.823-2.051l.227-1.822c.23-.912.912-1.596 1.824-1.596z"/><path fill="#fec49a" fill-opacity=".75" d="M363.545 104.89c-1.369 1.14-3.647 0-3.42-1.823l14.585-83.623c.457-2.734 2.735-4.785 5.47-4.785l96.168.912c3.418 0 6.154 2.961 5.47 6.38l-10.256 59.697c-.455 2.735-2.735 4.785-5.469 4.785l-74.063-.91c-3.418 0-6.837 1.14-9.57 3.418z"/><path fill="#fff" d="M393.397 39.495h65.631c1.14 0 2.052.911 1.824 2.05l-.228 1.824c-.229.912-.911 1.594-1.823 1.594h-65.632c-1.139 0-2.05-.911-1.823-2.05l.229-1.823c.228-.911.91-1.595 1.822-1.595zM391.346 57.04h65.631c1.14 0 2.051.912 1.824 2.052l-.228 1.821c-.229.912-.911 1.596-1.823 1.596h-65.632c-1.139 0-2.05-.911-1.823-2.05l.229-1.824c0-.912.91-1.594 1.822-1.594z"/><path fill="#fec49a" d="M64.377 55.283h2.628c0-19.868 19.663-32.887 39.499-32.897a43.3 43.3 0 018.594.835c3.185.636 6.491 1.399 9.74 2.392 12.808 3.926 24.687 11.516 24.687 29.67a41.308 41.308 0 01-1.335 10.45l2.544.662a44.086 44.086 0 001.419-11.112c0-15.862-6.512-26.758-17.76-33.255-5.913-3.416-13.13-5.618-21.398-6.69a51.053 51.053 0 00-10.38-.316c-22.812 1.64-38.238 19.132-38.238 40.261z"/><path fill="#fec49a" d="M59.998 56.74l1.036-7.653a8.257 8.257 0 012.628-5.025 8.313 8.313 0 016.964-2.103l1.645.226a3.43 3.43 0 012.287 1.33 3.442 3.442 0 01.678 2.56l-2.392 17.629a3.457 3.457 0 01-2.786 2.927 3.235 3.235 0 01-.64.063 3.416 3.416 0 01-.463-.031l-1.84-.247a8.3 8.3 0 01-5.645-3.38 9.53 9.53 0 01-.405-.615 8.803 8.803 0 01-1.067-5.682z"/><path fill="#ef6801" d="M73.333 42.506a3.38 3.38 0 011.225 1.01 3.442 3.442 0 01.678 2.559l-2.392 17.629a3.457 3.457 0 01-2.786 2.927zM59.998 56.74l1.036-7.653a8.257 8.257 0 012.628-5.025l-2.381 17.54a3.246 3.246 0 01-.216.82 8.803 8.803 0 01-1.067-5.683z" class="primary"/><ellipse cx="-75.932" cy="48.844" fill="#ef6801" class="primary" rx="1.314" ry="3.679" transform="scale(-1 1) rotate(-7.725)"/><ellipse cx="-76.222" cy="39.257" fill="#ef6801" class="primary" rx="1.314" ry="3.679" transform="scale(-1 1) rotate(-7.725)"/><ellipse cx="-66.821" cy="44.245" fill="#ef6801" class="primary" rx="1.314" ry="3.679" transform="scale(-1 1) rotate(-7.725)"/><path fill="#ef6801" d="M106.504 22.386a43.3 43.3 0 018.594.835c3.185.636 6.491 1.399 9.74 2.392 5.071-.247 8.803-1.561 9.555-3.585-5.913-3.416-13.13-5.618-21.398-6.69a51.053 51.053 0 00-10.38-.316 3.01 3.01 0 00-1.43 2.008c-.247 1.829 1.84 3.774 5.319 5.356z" class="primary"/><path fill="#fec49a" d="M140.059 73.522l4.047-16.825a3.166 3.166 0 012.565-2.391 3.54 3.54 0 01.526-.042 3.167 3.167 0 01.735.089l1.567.378a7.834 7.834 0 015.776 9.44l-1.813 7.548a8.328 8.328 0 01-2.807 4.53 7.382 7.382 0 01-.715.51 7.784 7.784 0 01-5.976.968l-1.561-.379a3.07 3.07 0 01-1.14-.53 3.15 3.15 0 01-1.204-3.296z"/><ellipse cx="-160.89" cy="30.005" fill="#ef6801" class="primary" rx="1.314" ry="3.679" transform="scale(-1 1) rotate(-13.531)"/><ellipse cx="-166.369" cy="30.308" fill="#ef6801" class="primary" rx="1.314" ry="3.679" transform="scale(-1 1) rotate(-13.531)"/><path fill="#ef6801" d="M139.801 73.459l4.047-16.825a3.433 3.433 0 012.78-2.586l-5.523 22.98a3.422 3.422 0 01-1.304-3.57zM154.36 60.84a3.404 3.404 0 01.616-1.289 7.74 7.74 0 01.3 4.62l-1.814 7.548a8.328 8.328 0 01-2.807 4.531z" class="primary"/><path fill="#fec49a" d="M133.241 90.998l-.301-1.81c9.655-1.508 16.595-14.48 16.595-14.48l1.509.904c-.603.605-7.543 13.576-17.803 15.386z"/><path fill="#fec49a" d="M134.75 90.094c-.302-1.508-2.716-2.414-5.432-1.812-2.713.605-4.826 2.113-4.525 3.622.301 1.508 2.716 2.412 5.431 1.81 3.017-.302 4.83-2.111 4.526-3.62z"/><g fill="#0c5207" class="darkest"><path d="M678.173 161.625a6.814 6.814 0 00-6.808 6.806 6.815 6.815 0 006.808 6.808 6.814 6.814 0 006.806-6.808 6.814 6.814 0 00-6.806-6.806zm0 16.052c-5.098 0-9.246-4.147-9.246-9.246 0-5.097 4.148-9.244 9.246-9.244 5.098 0 9.244 4.147 9.244 9.244 0 5.1-4.146 9.246-9.244 9.246" class="darkest"/><path d="M678.173 166.535c-1.046 0-1.897.85-1.897 1.896 0 1.047.851 1.898 1.897 1.898s1.896-.85 1.896-1.898c0-1.046-.85-1.896-1.896-1.896zm0 6.233a4.34 4.34 0 01-4.335-4.337 4.34 4.34 0 014.335-4.335 4.34 4.34 0 014.335 4.335 4.34 4.34 0 01-4.335 4.337" class="darkest"/></g><path fill="#0c5207" d="M562.217 31.397c-.283-.748-1.253-1.788-2.18-2.334l-1.67-.986 1.326-.557c1.477-.621 3.288-2.681 3.288-3.741 0-.38.463.187 1.03 1.259.567 1.072 1.67 2.291 2.45 2.71l1.418.76-1.567.844c-.862.465-1.906 1.418-2.32 2.12-.947 1.601-1.145 1.593-1.775-.075zM670.273 89.517c-.283-.749-1.253-1.788-2.18-2.335l-1.67-.985 1.326-.558c1.477-.62 3.287-2.68 3.287-3.741 0-.38.464.187 1.03 1.26.568 1.071 1.67 2.29 2.45 2.71l1.418.76-1.567.844c-.862.464-1.906 1.418-2.32 2.119-.946 1.602-1.145 1.594-1.774-.075zM475.64 611.21c-.282-.748-1.252-1.788-2.179-2.334l-1.67-.986 1.326-.557c1.477-.621 3.287-2.681 3.287-3.741 0-.38.464.187 1.031 1.259.567 1.072 1.669 2.291 2.45 2.71l1.418.76-1.568.844c-.862.465-1.906 1.418-2.32 2.12-.946 1.601-1.145 1.593-1.774-.075zM688.148 15.8c-.435-1.132.022-3.248.73-3.382.823-.156 1.337 1.426.957 2.942-.273 1.085-1.334 1.363-1.687.44zm-5.114-4.711c-.574-.334-.627-.543-.252-.994.669-.807 3.551-.752 3.868.073.463 1.208-2.03 1.843-3.616.92zm8.304-.6c-.44-1.146 2.07-1.874 3.45-1 1.08.684.165 1.644-1.568 1.644-1.128 0-1.712-.2-1.882-.644zm-3.19-2.739c-.435-1.133.022-3.248.73-3.382.823-.156 1.337 1.426.957 2.941-.273 1.086-1.334 1.363-1.687.441zM432.656 473.965c-.434-1.133.023-3.249.731-3.383.823-.156 1.337 1.426.956 2.942-.272 1.085-1.333 1.363-1.687.44zm-5.113-4.712c-.574-.334-.627-.543-.253-.994.67-.807 3.552-.752 3.868.073.464 1.207-2.03 1.843-3.615.92zm8.303-.6c-.44-1.147 2.07-1.874 3.451-1 1.08.684.165 1.644-1.568 1.644-1.128 0-1.712-.2-1.883-.644zm-3.19-2.739c-.434-1.133.023-3.248.731-3.382.823-.156 1.337 1.426.956 2.941-.272 1.086-1.333 1.363-1.687.441zM261.358 186.816l4.985 1.432a.494.494 0 01.317.674l-4.626 10.606 10.339-11.659-5.042-1.374a.494.494 0 01-.323-.679l4.616-10.424zm-1.03 15.875a.495.495 0 01-.454-.693l5.652-12.954-5.202-1.495a.495.495 0 01-.232-.807l12.877-14.33a.496.496 0 01.822.532l-5.644 12.746 5.255 1.434a.495.495 0 01.24.806L260.7 202.524a.495.495 0 01-.37.167M13.295 26.512c-.435-1.133.023-3.248.731-3.382.822-.156 1.337 1.426.956 2.941-.272 1.086-1.333 1.363-1.687.441zM8.181 21.8c-.574-.334-.627-.543-.252-.994.67-.806 3.552-.752 3.868.073.464 1.208-2.03 1.843-3.616.921zm8.304-.6c-.44-1.146 2.07-1.874 3.45-1 1.081.684.165 1.645-1.567 1.645-1.128 0-1.712-.2-1.883-.645zm-3.19-2.738c-.435-1.133.023-3.249.731-3.383.822-.156 1.337 1.426.956 2.942-.272 1.085-1.333 1.362-1.687.44zM692.5 665.587c-.435-1.133.022-3.249.73-3.383.823-.156 1.337 1.426.957 2.942-.272 1.085-1.333 1.363-1.687.44zm-5.114-4.712c-.574-.334-.627-.543-.252-.994.669-.807 3.551-.752 3.868.073.463 1.208-2.03 1.843-3.616.92zm8.304-.6c-.44-1.146 2.07-1.874 3.45-1 1.081.684.165 1.644-1.568 1.644-1.128 0-1.712-.2-1.882-.644zm-3.19-2.739c-.435-1.133.022-3.248.73-3.382.823-.156 1.337 1.426.957 2.941-.272 1.086-1.333 1.363-1.687.441zM327.314 590.343c-.434-1.133.023-3.249.731-3.383.823-.156 1.337 1.426.956 2.942-.272 1.085-1.333 1.362-1.687.44zm-5.113-4.713c-.574-.334-.627-.542-.253-.994.67-.806 3.552-.752 3.869.073.463 1.208-2.031 1.844-3.616.921zm8.303-.6c-.44-1.146 2.07-1.873 3.451-1 1.08.685.165 1.645-1.568 1.645-1.128 0-1.712-.2-1.883-.644zm-3.19-2.738c-.434-1.133.023-3.249.731-3.383.823-.155 1.337 1.426.956 2.942-.272 1.085-1.333 1.363-1.687.441z" class="darkest"/></g></svg>