<?xml version="1.0" encoding="UTF-8" standalone="no"?>
<!-- Created with Inkscape (http://www.inkscape.org/) -->

<svg
   width="900"
   height="520"
   viewBox="0 0 900 520"
   version="1.1"
   id="svg1"
   inkscape:version="1.3.2 (091e20e, 2023-11-25)"
   sodipodi:docname="2023-11-29-graphile-logos.svg"
   xmlns:inkscape="http://www.inkscape.org/namespaces/inkscape"
   xmlns:sodipodi="http://sodipodi.sourceforge.net/DTD/sodipodi-0.dtd"
   xmlns="http://www.w3.org/2000/svg"
   xmlns:svg="http://www.w3.org/2000/svg">
  <sodipodi:namedview
     id="namedview1"
     pagecolor="#ffffff"
     bordercolor="#666666"
     borderopacity="1.0"
     inkscape:showpageshadow="2"
     inkscape:pageopacity="0.0"
     inkscape:pagecheckerboard="0"
     inkscape:deskcolor="#d1d1d1"
     inkscape:document-units="mm"
     inkscape:zoom="0.73634667"
     inkscape:cx="688.53438"
     inkscape:cy="558.84004"
     inkscape:window-width="1920"
     inkscape:window-height="2024"
     inkscape:window-x="1920"
     inkscape:window-y="25"
     inkscape:window-maximized="0"
     inkscape:current-layer="layer1" />
  <defs
     id="defs1" />
  <g
     inkscape:label="Layer 1"
     inkscape:groupmode="layer"
     id="layer1">
    <g
       id="g1"
       transform="translate(401.04987,-116.41665)">
      <path
         fill="#a74413"
         d="m 48.950128,343.10042 12.678039,9.70148 -2.5908,38.75035 -5.953124,15.3789 L 181.24179,294.15251 93.929294,240.57438 Z m 0,0 -12.678039,9.70148 2.5908,38.75035 5.953124,15.3789 -128.15755,-112.77864 87.3124989,-53.57813 z"
         class="seg3"
         shape-rendering="geometricPrecision"
         id="path1"
         style="stroke-width:0.264583" />
      <g
         class="base"
         id="g7"
         transform="matrix(0.26458333,0,0,0.26458333,-109.79987,131.43376)">
        <path
           fill="#fa8e3b"
           d="M 100,615 25,360 260,25 600,800 Z"
           class="seg2"
           shape-rendering="geometricPrecision"
           id="path2" />
        <path
           fill="#d45c00"
           d="M 25,360 260,25 600,130 v 670 z"
           class="seg0"
           shape-rendering="geometricPrecision"
           id="path3" />
        <path
           fill="#fd6e01"
           d="M 260,25 600,130 940,25 600,800 Z"
           class="seg1"
           shape-rendering="geometricPrecision"
           id="path4" />
        <path
           fill="#d45c00"
           d="M 600,130 940,25 1175,360 600,800 Z"
           class="seg0"
           shape-rendering="geometricPrecision"
           id="path5" />
        <path
           fill="#fd6e01"
           d="m 940,25 235,335 -75,255 -500,185 z"
           class="seg1"
           shape-rendering="geometricPrecision"
           id="path6" />
        <path
           fill="#fa8e3b"
           d="M 1175,360 1100,615 600,800 Z M 100,615 25,360 600,800 Z"
           class="seg2"
           shape-rendering="geometricPrecision"
           id="path7" />
      </g>
      <path
         fill="#7e120e"
         d="m -77.829472,246.08645 76.0677069,58.20833 -59.5312489,-1.98437 z m 253.559202,0 -76.067709,58.20833 59.531249,-1.98437 z"
         class="seg4"
         shape-rendering="geometricPrecision"
         id="path8"
         style="stroke-width:0.264583" />
      <path
         fill="none"
         stroke="#7e120e"
         stroke-width="13.2292"
         d="M 18.964105,274.74982 -41.008204,138.04834 -85.98737,124.15772 -104.12244,150.00963 M 78.936151,274.74982 138.90846,138.04834 183.88763,124.15772 202.0227,150.00963"
         class="path4"
         id="path9" />
    </g>
    <g
       id="g2"
       transform="translate(-579.86578,180.42369)">
      <g
         id="g4"
         transform="translate(493.08245,115.72343)">
        <path
           fill="#fd504e"
           stroke="#fd504e"
           d="M 86.990228,19.0654 149.16731,-69.570016 269.55273,86.534149 Z"
           class="seg2"
           shape-rendering="geometricPrecision"
           id="path1-8"
           style="stroke-width:0.264583" />
        <path
           fill="#cd4948"
           stroke="#cd4948"
           d="m 149.16731,-69.570016 89.95833,27.78125 30.42709,128.322915 z"
           class="seg1"
           shape-rendering="geometricPrecision"
           id="path2-3"
           style="stroke-width:0.264583" />
        <path
           fill="#fd504e"
           stroke="#fd504e"
           d="m 239.12564,-41.788766 89.95834,-27.78125 -59.53125,156.104165 z"
           class="seg2"
           shape-rendering="geometricPrecision"
           id="path3-9"
           style="stroke-width:0.264583" />
        <path
           fill="#c0201c"
           stroke="#c0201c"
           d="M 329.08398,-69.570016 391.26106,19.0654 269.55273,86.534149 Z"
           class="seg3"
           shape-rendering="geometricPrecision"
           id="path4-0"
           style="stroke-width:0.264583" />
        <path
           fill="#7e120e"
           stroke="#7e120e"
           d="M 391.26106,19.0654 371.41731,86.534149 H 269.55273 Z"
           class="seg4"
           shape-rendering="geometricPrecision"
           id="path5-5"
           style="stroke-width:0.264583" />
        <path
           fill="#610f0d"
           stroke="#610f0d"
           d="M 371.41731,86.534149 239.12564,202.95081 269.55273,86.534149 Z"
           class="seg5"
           shape-rendering="geometricPrecision"
           id="path6-2"
           style="stroke-width:0.264583" />
        <path
           fill="#7e120e"
           stroke="#7e120e"
           d="M 239.12564,202.95081 106.83398,86.534149 h 162.71875 z"
           class="seg4"
           shape-rendering="geometricPrecision"
           id="path7-2"
           style="stroke-width:0.264583" />
        <path
           fill="#c0201c"
           stroke="#c0201c"
           d="M 106.83398,86.534149 86.990228,19.0654 269.55273,86.534149 Z"
           class="seg3"
           shape-rendering="geometricPrecision"
           id="path8-7"
           style="stroke-width:0.264583" />
      </g>
    </g>
    <g
       id="g3"
       transform="translate(681.82311,534.00754)">
      <g
         class="ears"
         id="g6"
         transform="matrix(0.26458333,0,0,0.26458333,-92.926438,-314.04502)">
        <path
           fill="#4ba8ff"
           stroke="#4ba8ff"
           d="M 25,360 260,25 715,615 Z"
           class="seg2"
           id="path1-2" />
        <path
           fill="#468bcc"
           stroke="#468bcc"
           d="M 260,25 600,130 715,615 Z"
           class="seg1"
           id="path2-39" />
        <path
           fill="#468bcc"
           stroke="#468bcc"
           d="M 600,130 940,25 715,615 Z"
           class="seg1"
           id="path3-97" />
        <path
           fill="#4ba8ff"
           stroke="#4ba8ff"
           d="M 940,25 1175,360 715,615 Z"
           class="seg2"
           id="path4-03" />
        <path
           fill="#468bcc"
           stroke="#468bcc"
           d="m 1175,360 -75,255 H 715 Z m -75,255 -500,440 115,-440 z"
           class="seg1"
           id="path5-9" />
        <path
           fill="#468bcc"
           stroke="#468bcc"
           d="M 600,1055 100,615 H 715 Z M 100,615 25,360 715,615 Z"
           class="seg1"
           id="path6-8" />
        <!--polygon points="25,360 260,25 260,25 600,130 600,130 940,25 940,25 1175,360 1175,360 1100,615 1100,615 600,1055 600,1055 100,615 100,615 25,360" class="heart-outline" /-->
      </g>
      <g
         class="face"
         id="g20"
         transform="matrix(0.26458333,0,0,0.26458333,-92.926438,-314.04502)">
        <path
           fill="#4ba8ff"
           stroke="#4ba8ff"
           d="M 490,96 H 710 L 875,300 600,450 325,300 Z"
           class="seg2 forehead-left"
           id="path7-6" />
        <path
           fill="#166ebf"
           d="M 710,96 875,300 600,450 Z"
           class="seg3 forehead-right no-stroke"
           id="path8-5" />
        <path
           fill="#468bcc"
           stroke="#468bcc"
           d="M 490,96 H 710 L 600,450 Z"
           class="seg1 forehead-top"
           id="path9-7" />
        <path
           fill="#0b457f"
           d="M 875,300 V 725 L 600,450 Z"
           class="seg4 right-eye-area no-stroke"
           id="path10" />
        <path
           fill="#468bcc"
           d="M 600,450 325,725 V 300 Z"
           class="seg1 left-eye-area no-stroke"
           id="path11" />
        <path
           fill="#ffffff"
           stroke="#082744"
           stroke-linejoin="round"
           stroke-width="8"
           d="m 375,740 85,55 -135,105 z"
           class="tusk left-tusk"
           id="path12" />
        <path
           fill="#ffffff"
           stroke="#082744"
           stroke-linejoin="round"
           stroke-width="8"
           d="m 825,740 -85,55 135,105 z"
           class="tusk right-tusk"
           id="path13" />
        <path
           fill="#166ebf"
           d="m 325,725 165,110 v 240 l 110,55 110,-55 V 835 L 875,725 600,450 Z"
           class="seg3 face-bottom no-stroke"
           id="path14" />
        <path
           fill="#0c3861"
           d="m 600,1130 110,-55 V 835 L 875,725 600,450 Z"
           class="seg5 face-bottom-right no-stroke"
           id="path15" />
        <path
           fill="#4ba8ff"
           d="m 490,835 v 240 l 110,55 V 450 Z"
           class="seg2 no-stroke trunk-highlight-left"
           id="path16" />
        <path
           fill="#166ebf"
           d="m 600,1130 110,-55 V 835 L 600,450 Z"
           class="seg3 no-stroke trunk-highlight-right"
           id="path17" />
        <path
           fill="#ffffff"
           stroke="#ffffff"
           d="m 385,415 130,40 -130,50 z"
           class="eye left-eye"
           id="path18" />
        <path
           fill="#ffffff"
           stroke="#ffffff"
           d="m 815,415 -130,40 130,50 z"
           class="eye right-eye"
           id="path19" />
        <path
           fill="none"
           stroke="#082744"
           stroke-linejoin="round"
           stroke-width="8"
           d="M 490,96 H 710 L 875,300 V 725 L 710,835 v 240 l -110,55 -110,-55 V 835 L 325,725 V 300 Z"
           class="entire-face stroke-only"
           id="path20" />
      </g>
    </g>
  </g>
</svg>
